<svg width="375" height="84" viewBox="0 0 375 84" fill="none" xmlns="http://www.w3.org/2000/svg">
<g opacity="0.9" clip-path="url(#clip0)">
<path d="M707 83.9973C699.723 77.8914 692.749 71.3449 684.849 65.7291C667.606 53.4801 661.963 60.4671 643.188 58.3511C622.612 56.0304 571.91 19.612 563.004 57.7492C537.32 48.5035 517.031 57.8609 491.985 57.6438C469.402 57.4452 452.732 47.7464 431.371 45.6553C425.224 45.0534 420.593 50.9359 415.177 49.5149C408.468 47.7588 406.196 37.7498 399.86 35.7331C388.725 32.19 381.572 37.725 370.805 35.0878C357.912 31.9293 351.419 20.6669 337.081 20.8592C326.244 21.0082 318.415 25.9227 305.9 25.1346C287.667 23.9805 257.227 19.0845 245.719 38.0167C238.074 20.6048 200.514 17.0927 193.518 40.4987C179.37 29.7699 159.589 4.04931 145.262 34.8458C127.531 18.8425 114.589 10.7696 96.5612 32.9842C81.1953 7.82208 48.7375 -7.59788 22.6641 3.81971C7.83382 10.3166 2.65593 28.6282 -12.2014 30.7503C-24.8458 32.5623 -37.1873 12.538 -47.5106 32.4878C-50.1996 13.9963 -70.1212 13.1958 -72.1935 32.494C-86.1743 15.7151 -106.87 17.6698 -116.544 37.9422C-128.301 25.147 -131.239 2.51041 -153.216 9.18102C-180.372 17.4278 -190.04 51.3641 -193 83.9973H707Z" fill="#597351"/>
<path d="M-8.37648 45.1432C-5.33577 51.4725 -4.07511 58.9188 0.366926 64.2987C0.848463 64.882 1.61135 64.0009 1.12981 63.4238C-3.23107 58.1431 -4.45385 50.7465 -7.44045 44.5227C-7.78132 43.8153 -8.71193 44.442 -8.37648 45.1432Z" fill="#798A30"/>
<path d="M-1.93974 33.4091C-0.430196 43.1761 0.0838163 53.4457 3.88743 62.5178C4.19042 63.2376 5.12102 62.6109 4.82344 61.891C1.07394 52.9369 0.597803 42.7231 -0.895507 33.0802C-1.01995 32.2922 -2.05877 32.6272 -1.93974 33.4091Z" fill="#798A30"/>
<path d="M7.49011 21.3525C5.60724 26.2546 6.73804 31.8455 7.62537 36.8841C8.96177 44.4421 8.13396 53.1108 8.13396 60.557C8.13396 61.7981 9.39462 61.7981 9.39462 60.557C9.39462 53.1108 9.39462 46.769 9.39462 39.8751C9.39462 37.6474 8.49646 35.1529 8.15019 32.9624C7.59291 29.3882 7.14925 25.4107 8.46401 21.9854C8.75077 21.2532 7.77145 20.6203 7.49011 21.3525Z" fill="#798A30"/>
<path d="M16.873 17.2135C13.5456 22.9595 13.8053 30.4988 13.4319 37.1074C12.8801 46.7317 10.559 56.1512 8.16209 65.3473C7.9619 66.1168 9.00613 66.4395 9.20632 65.6762C11.4787 56.9517 13.3291 48.2582 14.3463 39.2234C15.1471 32.106 14.1678 24.1199 17.8091 17.834C18.1932 17.17 17.2572 16.5495 16.873 17.2135Z" fill="#798A30"/>
<path d="M26.1717 10.0775C24.6784 23.3753 21.6052 36.2511 17.5365 48.798C17.2931 49.5489 18.3373 49.8715 18.5808 49.1269C22.6873 36.4683 25.7497 23.487 27.2592 10.0775C27.3458 9.28943 26.2637 9.29563 26.1717 10.0775Z" fill="#798A30"/>
<path d="M40.1485 7.06185C38.3576 8.52008 37.9843 11.6723 37.3513 13.9062C35.885 19.0938 33.9805 24.3744 32.0814 29.3758C28.2886 39.3662 23.944 50.1757 17.6786 58.4534C17.2241 59.0554 17.987 59.9365 18.4414 59.3284C24.09 51.8573 27.5907 42.7543 31.3456 33.9553C33.2068 29.593 34.7272 25.1625 36.1934 20.6078C36.886 18.467 37.7138 16.3759 38.3901 14.2289C38.9798 12.3673 39.1854 9.35157 40.6896 8.12294C41.2577 7.67617 40.722 6.59646 40.1485 7.06185Z" fill="#798A30"/>
<path d="M50.9684 9.54401C47.4082 12.2309 45.2765 16.7607 43.1988 20.8871C40.3042 26.6332 36.2463 30.6914 31.4904 34.3649C30.9169 34.8116 31.4579 35.8851 32.0369 35.4384C36.0299 32.3544 39.6603 28.9663 42.5333 24.4924C45.5199 19.8447 47.1161 13.9373 51.5148 10.6175C52.0938 10.1769 51.5527 9.10344 50.9684 9.54401Z" fill="#798A30"/>
<path d="M27.181 64.1684C32.0289 55.0902 38.8461 48.2644 44.814 40.2659C50.8305 32.1929 57.7722 25.0942 64.6111 17.9644C65.1305 17.4245 64.3622 16.5496 63.8482 17.0894C56.9985 24.2316 50.1379 31.3676 44.0511 39.391C37.975 47.4019 31.1307 54.4014 26.2504 63.5479C25.8771 64.2305 26.8131 64.851 27.181 64.1684Z" fill="#798A30"/>
<path d="M43.4544 46.254C48.6107 44.3614 52.2141 39.7013 56.5696 36.2636C61.7962 32.1371 66.6115 27.2164 71.1077 22.1033C71.6055 21.5386 70.8372 20.6637 70.3448 21.2284C65.8865 26.298 61.1198 30.983 56.0285 35.1963C51.8678 38.6402 48.1616 43.2321 43.1731 45.0626C42.5022 45.2984 42.7835 46.5022 43.4544 46.254Z" fill="#798A30"/>
<path d="M44.4975 60.861C45.9854 57.2682 48.8692 54.8854 51.6448 52.6825C54.4366 50.4672 57.223 48.1899 60.0473 46.0367C65.6256 41.7862 69.9216 35.7981 71.9613 28.4511C72.1723 27.6879 71.1281 27.359 70.9171 28.1223C68.4391 37.0268 62.9095 42.0219 56.6171 47.3336C52.1209 51.1312 46.0773 54.1594 43.556 60.2405C43.2639 60.9541 44.1945 61.587 44.4975 60.861Z" fill="#798A30"/>
<path d="M53.0695 65.1241C58.7668 57.9012 66.9475 54.2649 72.8613 47.3771C78.1041 41.265 83.9745 33.8187 84.9701 24.9763C85.062 24.182 83.9745 24.1945 83.8879 24.9763C82.8708 34.0111 76.4106 41.538 71.0596 47.706C68.1541 51.0568 64.199 53.4831 60.8066 56.1265C57.7388 58.5155 54.7955 61.0907 52.3012 64.2491C51.8359 64.8386 52.5988 65.7198 53.0695 65.1241Z" fill="#798A30"/>
<path d="M87.0354 38.5036C82.5393 41.6249 79.6122 46.4836 76.447 51.1561C75.1268 53.0983 73.363 54.5503 71.7128 56.1016C69.6189 58.0687 67.0489 60.5446 64.2246 60.7618C63.532 60.8176 63.5266 62.0586 64.2246 62.0028C68.5151 61.6739 72.0807 57.3303 75.2242 54.3828C77.2586 52.4716 78.7086 49.7785 80.3155 47.4081C82.3878 44.3552 84.6765 41.6 87.5819 39.5834C88.1771 39.1614 87.6306 38.0879 87.0354 38.5036Z" fill="#798A30"/>
<path d="M92.6991 40.2538C86.5095 48.2647 81.8781 58.2055 73.3294 63.3248C72.7126 63.6971 73.2591 64.7644 73.8759 64.3983C82.5111 59.2293 87.2075 49.2327 93.462 41.1349C93.9273 40.533 93.1644 39.6519 92.6991 40.2538Z" fill="#798A30"/>
<path d="M88.9376 55.5867C89.0242 60.526 90.4417 65.6205 93.423 69.263C93.8991 69.8463 94.6674 68.9713 94.1859 68.388C91.4048 64.9876 90.1009 60.191 90.0143 55.5867C90.0089 54.7862 88.9268 54.7862 88.9376 55.5867Z" fill="#798A30"/>
<path d="M92.6243 54.2402C95.6596 60.5509 97.088 69.9083 104.49 71.0749C105.171 71.1804 105.463 69.989 104.776 69.8773C97.7481 68.7728 96.4333 59.6015 93.5549 53.6134C93.2195 52.9185 92.2835 53.539 92.6243 54.2402Z" fill="#798A30"/>
<path d="M97.6112 40.8554C99.3318 52.6205 106.16 64.8137 116.023 69.418C116.673 69.7221 116.949 68.5183 116.31 68.2204C106.798 63.7837 100.3 51.8138 98.65 40.5265C98.5364 39.7385 97.4976 40.0735 97.6112 40.8554Z" fill="#798A30"/>
<path d="M104.107 33.4091C104.535 36.3194 105.363 39.0372 106.391 41.7365C107.667 45.0873 109.826 48.1775 110.843 51.6214C112.326 56.629 114.382 61.6428 117.947 65.124C118.478 65.639 119.246 64.7641 118.71 64.249C115.053 60.681 113.148 55.5617 111.633 50.4548C110.892 47.9603 109.215 45.5155 108.165 43.1513C106.748 39.9556 105.66 36.6234 105.141 33.0802C105.033 32.2922 103.994 32.6272 104.107 33.4091Z" fill="#798A30"/>
<path d="M110.65 28.594C115.492 40.0178 116.315 52.7571 119.252 64.851C119.442 65.6205 120.486 65.2916 120.297 64.5222C117.332 52.3165 116.471 39.5027 111.586 27.9672C111.277 27.2474 110.347 27.8804 110.65 28.594Z" fill="#798A30"/>
<path d="M117.948 26.2362C121.043 30.8095 121.313 37.1202 121.811 42.649C122.396 49.1955 123.51 55.5931 123.564 62.2017C123.57 63.0021 124.652 63.0021 124.646 62.2017C124.587 55.047 123.38 48.1034 122.747 41.0171C122.266 35.5875 121.719 29.8042 118.716 25.3613C118.283 24.7284 117.526 25.6157 117.948 26.2362Z" fill="#798A30"/>
<path d="M127.193 30.9272C128.697 36.8407 128.946 42.9591 128.681 49.0836C128.53 52.5337 128.14 55.99 127.653 59.4029C127.318 61.7609 126.452 64.274 126.452 66.7561C126.452 67.9971 127.356 67.9971 127.356 66.7561C127.356 65.515 126.273 65.515 126.273 66.7561C126.273 67.9971 127.534 67.9971 127.534 66.7561C127.534 64.274 128.595 60.5695 128.979 57.6903C129.357 54.8483 129.606 51.969 129.763 49.096C130.104 42.897 129.758 36.5863 128.237 30.6045C128.037 29.835 126.993 30.1577 127.193 30.9272Z" fill="#798A30"/>
<path d="M135.845 35.5625C132.88 43.834 136.121 54.4635 130.932 61.7671C130.494 62.3814 131.257 63.2625 131.695 62.642C137.089 55.0468 133.827 44.4297 136.884 35.8913C137.149 35.1529 136.105 34.8365 135.845 35.5625Z" fill="#798A30"/>
<path d="M142.399 41.2091C139.434 48.8167 136.085 56.3623 134.408 64.5221C134.245 65.2978 135.29 65.6329 135.452 64.851C137.108 56.7904 140.403 49.3504 143.335 41.8358C143.611 41.1098 142.68 40.4769 142.399 41.2091Z" fill="#798A30"/>
<path d="M144.505 58.2302C146.069 62.5801 148.466 66.0426 151.966 68.5309C152.561 68.9528 153.102 67.8793 152.513 67.4574C149.266 65.1552 146.999 61.9285 145.549 57.9013C145.284 57.1753 144.235 57.4918 144.505 58.2302Z" fill="#798A30"/>
<path d="M148.107 49.1329C149.86 55.2327 151.944 66.4207 158.588 67.7672C159.269 67.9037 159.562 66.7123 158.874 66.5696C152.723 65.3223 150.786 54.4942 149.152 48.7978C148.935 48.047 147.891 48.3697 148.107 49.1329Z" fill="#798A30"/>
<path d="M153.141 36.5554C152.752 39.9124 154.494 43.3811 155.787 46.2604C157.21 49.4374 158.736 52.5028 159.861 55.8412C161.1 59.5209 163.411 69.17 168.253 67.7738C168.93 67.5815 168.643 66.3839 167.966 66.5762C163.795 67.7801 161.387 56.7472 160.251 53.6384C159.337 51.1315 158.168 48.7673 157.053 46.3721C155.717 43.4928 153.829 39.9497 154.218 36.5554C154.316 35.7611 153.233 35.7736 153.141 36.5554Z" fill="#798A30"/>
<path d="M156.764 29.2768C158.257 37.2877 161.639 44.8022 161.796 53.1048C161.812 53.9053 162.894 53.9053 162.878 53.1048C162.721 44.6781 159.323 37.0705 157.808 28.9479C157.662 28.1598 156.618 28.4949 156.764 29.2768Z" fill="#798A30"/>
<path d="M166.866 28.4452C169.836 39.6642 171.827 51.2742 171.897 63.0269C171.903 63.8273 172.985 63.8273 172.98 63.0269C172.909 51.1625 170.907 39.4346 167.91 28.1101C167.704 27.3531 166.66 27.6819 166.866 28.4452Z" fill="#798A30"/>
<path d="M175.58 33.7629C174.206 36.6173 174.606 40.0736 174.741 43.2011C174.931 47.4392 174.941 52.1738 173.416 56.1017C173.134 56.8277 174.065 57.4606 174.352 56.7284C175.618 53.4769 175.813 49.9834 175.861 46.465C175.915 42.6736 174.849 37.846 176.516 34.3896C176.851 33.6823 175.915 33.0617 175.58 33.7629Z" fill="#798A30"/>
<path d="M183.439 44.0015C183.228 52.7509 178.57 60.2592 176.968 68.6548C176.817 69.4367 177.861 69.7656 178.012 68.9837C179.641 60.464 184.31 52.8812 184.527 43.9953C184.543 43.201 183.455 43.2011 183.439 44.0015Z" fill="#798A30"/>
<path d="M188.565 47.8239C186.196 53.601 185.644 60.0668 184.183 66.1728C183.999 66.9484 185.043 67.2711 185.227 66.5016C186.661 60.5136 187.175 54.116 189.501 48.4507C189.794 47.7309 188.863 47.1041 188.565 47.8239Z" fill="#798A30"/>
<path d="M192.095 51.4477C192.16 55.0157 192.988 58.6768 194.043 62.009C194.768 64.3173 195.974 67.5316 198.409 67.7923C199.102 67.8667 199.096 66.6257 198.409 66.5512C195.936 66.2844 194.887 61.1961 194.34 59.0553C193.718 56.6167 193.226 53.9981 193.177 51.4539C193.161 50.6473 192.079 50.6473 192.095 51.4477Z" fill="#798A30"/>
<path d="M195.775 46.7939C199.059 53.6196 200.871 67.2525 209.085 68.5928C209.766 68.7045 210.058 67.5069 209.371 67.3952C201.613 66.1293 199.843 52.6888 196.711 46.1671C196.375 45.4722 195.439 46.0927 195.775 46.7939Z" fill="#798A30"/>
<path d="M205.079 36.5554C205.128 39.7201 205.528 42.7607 206.313 45.795C207.211 49.2637 209.088 52.1057 210.246 55.4193C211.994 60.4207 212.876 65.993 216.89 69.3562C217.453 69.8278 217.994 68.7543 217.437 68.2827C213.558 65.0312 212.713 59.1672 211.031 54.3458C210.073 51.6093 208.553 49.2389 207.644 46.4403C206.616 43.2819 206.215 39.9062 206.167 36.5554C206.15 35.755 205.068 35.755 205.079 36.5554Z" fill="#798A30"/>
<path d="M208.689 30.7659C208.835 37.753 211.334 44.1816 213.039 50.7901C213.78 53.6631 214.884 56.4865 215.652 59.3719C216.415 62.2325 217.297 65.0621 218.861 67.4821C219.272 68.1151 220.213 67.5008 219.797 66.8554C216.826 62.2636 216.258 56.2445 214.337 51.0693C212.054 44.92 209.911 37.4613 209.771 30.7659C209.755 29.9654 208.672 29.9654 208.689 30.7659Z" fill="#798A30"/>
<path d="M215.924 26.7945C218.234 34.067 218.754 41.3023 218.797 48.9843C218.835 55.0034 219.224 61.2583 221.751 66.6568C222.081 67.3642 223.017 66.7375 222.687 66.0301C219.901 60.0669 219.879 53.0922 219.874 46.4836C219.874 39.5834 219.03 32.9563 216.968 26.4594C216.73 25.7148 215.681 26.0375 215.924 26.7945Z" fill="#798A30"/>
<path d="M222.392 28.2839C223.128 34.9421 224.768 43.8838 220.385 49.3568C219.914 49.9463 220.677 50.8275 221.148 50.2318C225.796 44.4299 224.254 35.3517 223.469 28.2839C223.388 27.5021 222.306 27.4897 222.392 28.2839Z" fill="#798A30"/>
<path d="M231.775 35.7297C231.764 40.4519 231.494 45.1741 230.877 49.8404C230.249 54.5812 229.275 61.2332 225.553 64.1496C224.979 64.5964 225.52 65.6761 226.099 65.2231C229.632 62.4618 230.779 56.9454 231.575 52.428C232.543 46.9612 232.846 41.2958 232.857 35.7297C232.863 34.9293 231.78 34.9293 231.775 35.7297Z" fill="#798A30"/>
<path d="M238.262 44.0017C237.456 51.8451 235.79 60.2532 231.845 66.8555C231.45 67.5195 232.386 68.14 232.781 67.4822C236.845 60.6813 238.516 52.0685 239.35 44.0017C239.425 43.2074 238.343 43.2198 238.262 44.0017Z" fill="#798A30"/>
<path d="M247.079 45.2176C245.331 47.6066 245.164 50.8458 244.109 53.6195C242.399 58.1059 240.494 62.6357 238.336 66.8552C237.984 67.544 238.92 68.1707 239.272 67.4819C241.279 63.554 242.859 59.3841 244.59 55.2949C245.813 52.3971 246.024 48.5746 247.842 46.0926C248.285 45.4844 247.528 44.6033 247.079 45.2176Z" fill="#798A30"/>
<path d="M248.393 60.7121C249.545 67.2896 257.548 70.1378 262.623 70.2681C263.321 70.2867 263.321 69.0457 262.623 69.0271C258.013 68.903 250.487 66.3588 249.437 60.3832C249.296 59.6014 248.252 59.9302 248.393 60.7121Z" fill="#798A30"/>
<path d="M254.212 50.9329C258.173 60.7123 266.721 73.3337 277.315 67.7056C277.948 67.3705 277.396 66.297 276.769 66.6321C266.797 71.9376 258.8 59.3348 255.143 50.3062C254.856 49.5802 253.92 50.2131 254.212 50.9329Z" fill="#798A30"/>
<path d="M259.905 34.8986C259.299 42.5061 265.451 48.1653 268.681 53.9796C272.468 60.7991 277.165 67.6435 284.107 70.2497C284.772 70.4979 285.053 69.3003 284.393 69.0521C277.706 66.5452 273.285 59.8745 269.612 53.3529C266.479 47.793 260.403 42.1773 260.982 34.8986C261.052 34.1043 259.97 34.1105 259.905 34.8986Z" fill="#798A30"/>
<path d="M270.032 32.5837C272.007 38.4353 274.799 43.7469 277.542 49.1455C280.523 55.0156 281.984 61.7048 285.236 67.4757C285.614 68.1458 286.55 67.5253 286.172 66.8489C283.288 61.7296 281.389 56.0333 279.316 50.4486C276.979 44.1503 273.251 38.7021 271.076 32.2487C270.822 31.5164 269.777 31.8329 270.032 32.5837Z" fill="#798A30"/>
<path d="M291.936 67.6807C290.383 64.3113 290.794 60.3648 291.065 56.7037C291.259 54.0293 291.2 51.7892 290.837 49.1644C290.183 44.3491 289.788 38.2432 286.801 34.458C286.331 33.8623 285.568 34.7435 286.038 35.3329C289.079 39.1926 289.295 45.8942 289.977 50.7901C290.789 56.623 288.457 62.7724 291.005 68.3012C291.33 69.0148 292.26 68.3881 291.936 67.6807Z" fill="#798A30"/>
<path d="M291.217 54.24C293.89 47.1661 294.864 40.0921 294.896 32.4163C294.902 31.6158 293.82 31.6158 293.814 32.4163C293.782 39.8439 292.873 46.7689 290.281 53.6133C290.005 54.3455 290.936 54.9784 291.217 54.24Z" fill="#798A30"/>
<path d="M299.932 69.8155C300.835 63.8584 303.957 58.8881 305.705 53.2661C307.469 47.5884 307.847 40.8743 307.891 34.8987C307.896 34.0982 306.814 34.0982 306.809 34.8987C306.765 41.1722 306.251 47.8242 304.406 53.7688C302.735 59.1425 299.759 63.7592 298.893 69.4804C298.769 70.2684 299.813 70.6035 299.932 69.8155Z" fill="#798A30"/>
<path d="M304.262 73.1224C306.534 66.5945 311.063 61.5 313.33 54.9908C315.732 48.0843 317.864 40.7436 317.989 33.2415C317.999 32.441 316.917 32.441 316.907 33.2415C316.777 40.9732 314.569 49.344 311.62 56.2752C309.169 62.0337 305.306 66.7931 303.218 72.7873C302.958 73.5382 304.008 73.8608 304.262 73.1224Z" fill="#798A30"/>
<path d="M314.296 58.3789C316.714 52.4839 322.098 48.7236 326.248 44.5723C330.587 40.2286 334.721 34.7122 336.712 28.4449C336.95 27.6941 335.906 27.3714 335.667 28.116C333.444 35.1217 328.542 40.7933 323.645 45.4906C319.907 49.0835 315.497 52.5398 313.36 57.7522C313.068 58.472 313.998 59.1049 314.296 58.3789Z" fill="#798A30"/>
<path d="M328.406 45.4289C335.213 42.1959 340.196 36.9215 344.6 30.2509C345.022 29.6118 344.081 28.9974 343.664 29.6242C339.466 35.9907 334.623 41.1411 328.12 44.2313C327.487 44.5353 327.763 45.7329 328.406 45.4289Z" fill="#798A30"/>
<path d="M313.838 71.9252C317.333 71.5467 320.152 66.626 322.332 63.9453C326.834 58.4041 331.546 52.6643 336.584 47.7497C337.114 47.2285 336.346 46.3598 335.821 46.8748C331.227 51.3612 327.591 57.0327 322.987 61.457C321.526 62.8594 320.309 64.6589 319.005 66.2537C317.706 67.8484 315.867 70.467 313.838 70.6904C313.151 70.7587 313.145 71.9997 313.838 71.9252Z" fill="#798A30"/>
<path d="M321.622 63.6285C327.06 65.6079 332.497 60.1908 336.35 56.4863C341.787 51.2677 348.713 47.0109 351.808 39.3475C352.1 38.6277 351.164 37.9947 350.872 38.7207C348.085 45.6271 342.404 48.8352 337.632 53.5822C333.72 57.4791 327.655 64.522 321.904 62.4247C321.244 62.1889 320.962 63.3865 321.622 63.6285Z" fill="#798A30"/>
<path d="M335.024 70.1878C340.873 66.1233 344.568 59.1797 349.367 53.775C353.885 48.6867 359.485 44.5106 361.963 37.5483C362.228 36.8099 361.179 36.4872 360.919 37.2195C358.555 43.8652 352.993 48.1158 348.605 52.9C343.778 58.1559 340.272 65.0995 334.478 69.1205C333.883 69.53 334.424 70.6035 335.024 70.1878Z" fill="#798A30"/>
<path d="M342.309 71.7452C346.107 75.6173 353.065 64.8513 354.899 62.3071C357.512 58.6709 359.903 54.8112 362.073 50.8088C363.42 48.333 365.13 45.4475 365.579 42.5063C365.698 41.7244 364.654 41.3893 364.535 42.1774C364.156 44.6781 362.76 47.0733 361.651 49.2141C359.893 52.6084 357.902 55.8537 355.813 58.9935C354.406 61.1095 346.182 74.035 343.077 70.8579C342.552 70.3367 341.784 71.2116 342.309 71.7452Z" fill="#798A30"/>
<path d="M355.95 73.495C365.478 66.4831 368.145 53.3095 373.458 42.6613C373.805 41.9663 372.869 41.3396 372.522 42.0346C367.323 52.4469 364.72 65.5648 355.403 72.4215C354.819 72.8559 355.36 73.9294 355.95 73.495Z" fill="#798A30"/>
<path d="M369.639 64.9998C370.315 66.638 370.521 68.4499 371.111 70.1191C371.69 71.7511 372.777 72.7998 374.162 73.4948C374.795 73.8112 375.347 72.7439 374.709 72.4213C371.641 70.8824 371.83 67.4261 370.575 64.3731C370.272 63.6471 369.341 64.28 369.639 64.9998Z" fill="#798A30"/>
<path d="M374.631 52.9369C373.657 56.8338 374.929 61.6428 376.308 65.2046C377.699 68.7974 379.96 73.3334 383.807 73.5816C384.505 73.6251 384.5 72.384 383.807 72.3406C380.28 72.1172 378.234 67.333 377.06 64.0752C375.913 60.9044 374.82 56.6848 375.675 53.272C375.865 52.4963 374.82 52.1674 374.631 52.9369Z" fill="#798A30"/>
</g>
<defs>
<clipPath id="clip0">
<rect width="900" height="84" fill="white" transform="translate(-193)"/>
</clipPath>
</defs>
</svg>
