<svg width="87" height="96" viewBox="0 0 87 96" fill="none" xmlns="http://www.w3.org/2000/svg">
<g clip-path="url(#clip0)">
<path d="M20.2468 67.0202C20.2468 67.0202 53.3833 67.3367 42.0709 40.9393C42.0709 40.9393 52.3503 20.9731 34.402 13.5465C34.402 13.5465 22.9138 -17.4825 7.93405 14.3749C7.93405 14.3749 -5.8435 19.8499 2.91259 37.1187C2.91259 37.1187 -8.57123 64.1211 20.2468 67.0202Z" fill="#406150"/>
<path d="M27.2031 46.2204C27.2986 45.919 27.3963 45.6176 27.4918 45.3162C27.5916 45.0148 27.7109 44.7178 27.8194 44.4185C28.0408 43.8201 28.2643 43.2194 28.4878 42.6188C28.7113 42.0182 28.9327 41.4175 29.154 40.8191C29.3623 40.2141 29.6379 39.6438 29.8745 39.0605C30.3627 37.9005 30.8445 36.7578 31.3089 35.6541C31.7667 34.6805 32.2138 33.7416 32.6391 32.8417C32.715 32.8699 32.7975 32.8721 32.8778 32.833C32.8995 32.8222 33.0904 32.7225 33.4094 32.5598C33.7284 32.395 34.1776 32.1782 34.6659 31.8334C34.9154 31.6686 35.1824 31.493 35.4666 31.3065C35.7422 31.1092 36.0157 30.8794 36.3064 30.6539C36.6254 30.4153 36.9379 30.1486 37.2504 29.8711C37.2808 29.9101 37.3155 29.9383 37.3546 29.934C37.3676 29.9318 37.4761 29.9123 37.6584 29.8819C37.7495 29.8646 37.858 29.8451 37.9817 29.8234C38.1054 29.7952 38.2378 29.7497 38.3853 29.7063C38.9799 29.5545 39.7112 29.2054 40.3991 28.8194C41.7619 28.0063 42.9641 27.0024 42.9207 26.9221C42.8643 26.8181 41.5492 27.6637 40.1865 28.3229C39.4986 28.6308 38.7998 28.9083 38.2508 29.0103C38.2313 29.0146 38.2139 29.0189 38.1944 29.0233C39.2837 27.9955 40.2147 26.8267 40.7941 25.8661C41.4082 24.8644 41.6708 24.1271 41.636 24.1098C41.5818 24.0816 41.2346 24.7668 40.564 25.6927C39.9022 26.6229 38.8823 27.7678 37.7235 28.7435C37.1267 29.2206 36.5473 29.7301 35.9592 30.1335C35.6684 30.3416 35.395 30.5541 35.1238 30.7363C34.846 30.9054 34.5834 31.068 34.3382 31.2176C33.8586 31.5364 33.4225 31.7294 33.1143 31.8768C33.1035 31.8811 33.097 31.8855 33.0861 31.8898C33.4398 31.1331 33.774 30.411 34.0756 29.7258C34.4749 28.8563 34.8091 28.0432 35.0565 27.3124C35.2909 26.5774 35.4341 25.9204 35.4862 25.3783C35.5035 25.1072 35.5187 24.8665 35.5317 24.6562C35.5187 24.448 35.4992 24.2702 35.484 24.1271C35.4536 23.8431 35.4254 23.6956 35.3994 23.6978C35.3733 23.7 35.3516 23.8539 35.3321 24.1336C35.3256 24.2724 35.3169 24.4437 35.3061 24.6454C35.2735 24.8449 35.2344 25.0747 35.1932 25.3327C35.0956 25.8445 34.9154 26.4581 34.6485 27.152C34.3664 27.8437 34.0062 28.6113 33.5657 29.4591C33.3509 29.8841 33.1273 30.3264 32.8973 30.784C32.6586 31.2437 32.4134 31.7164 32.1595 32.2042C31.6539 33.1822 31.1222 34.2121 30.571 35.2789C30.0676 36.3761 29.549 37.5102 29.0216 38.6659C28.7677 39.247 28.4726 39.8173 28.2448 40.4201C28.0278 40.9644 27.8086 41.5108 27.5894 42.0572C27.5352 41.2896 27.4505 40.097 27.3464 38.6355C27.3247 38.319 27.3008 37.9915 27.2748 37.6533C27.2487 37.315 27.2552 36.9659 27.2422 36.6081C27.2335 36.2504 27.227 35.8817 27.2183 35.5066C27.214 35.1315 27.2422 34.7477 27.2531 34.3574C27.2682 33.9671 27.2834 33.5703 27.3008 33.1691C27.3312 32.8309 27.3616 32.4861 27.3941 32.1435C27.4939 32.1348 27.5959 32.085 27.6719 31.9961C27.7088 31.9505 28.3207 31.2068 29.2191 30.1139C29.4426 29.8407 29.6857 29.5458 29.9396 29.2336C30.1913 28.9148 30.4864 28.5788 30.7425 28.2123C31.2459 27.4577 31.6712 26.6099 32.1053 25.7838C32.5718 24.9966 33.0514 24.151 33.3747 23.3357C33.7089 22.5161 33.9715 21.7376 34.1603 21.0589C34.3577 20.3846 34.4879 19.8121 34.5726 19.411C34.655 19.0098 34.6919 18.7778 34.6681 18.7713C34.6138 18.754 34.3512 19.6517 33.8912 20.9635C33.6633 21.6205 33.366 22.3729 33.0058 23.1535C32.8192 23.5417 32.6239 23.9385 32.396 24.3245C32.2897 24.5239 32.1725 24.7148 32.0445 24.9012L31.86 25.1853L31.7667 25.3284C31.7298 25.3848 31.719 25.4065 31.706 25.4303L31.6626 25.5062C31.1938 26.328 30.749 27.1411 30.2607 27.8285C30.0068 28.1689 29.7334 28.4573 29.4795 28.7631C29.2148 29.0688 28.9652 29.3572 28.7308 29.6261C28.2057 30.2354 27.7804 30.7276 27.4983 31.0528C27.5612 30.5303 27.6371 30.0077 27.7066 29.483C27.7543 29.0688 27.8303 28.6611 27.9106 28.2557C27.9496 28.0432 27.9887 27.8328 28.0299 27.6225C28.0408 27.5943 28.0451 27.5705 28.0429 27.5466C28.0733 27.3797 28.1059 27.2105 28.1363 27.0436C28.3554 26.2565 28.5442 25.4737 28.7851 24.7321C29.026 23.9905 29.2517 23.2728 29.4817 22.5963C29.7139 21.9198 29.9027 21.2714 30.1696 20.7098C30.2911 20.4236 30.4126 20.1526 30.5168 19.888C30.6123 19.6213 30.7034 19.3698 30.788 19.1313C30.9703 18.6586 31.0767 18.2401 31.1504 17.8845C31.2937 17.1754 31.4369 16.7548 31.4108 16.7439C31.3913 16.7287 31.196 17.1451 31.0072 17.8433C30.9096 18.1967 30.788 18.5848 30.5841 19.0489C30.4907 19.2787 30.3909 19.5237 30.2846 19.7818C30.1739 20.0376 30.0415 20.3022 29.9113 20.5797C29.8462 20.7185 29.779 20.8594 29.7117 21.0047L29.6596 21.1131L29.6227 21.1955L29.5989 21.2627C29.5707 21.3408 29.5424 21.4189 29.5121 21.4969C29.397 21.8113 29.2755 22.1366 29.1518 22.4705C28.9023 23.1362 28.6571 23.8561 28.3945 24.5955C28.1384 25.3241 27.9301 26.1047 27.6936 26.8853C27.6415 26.7747 27.5851 26.6511 27.5286 26.5123C27.3984 26.2066 27.2682 25.838 27.1446 25.4368C27.086 25.2373 27.023 25.027 26.9709 24.8145C26.9427 24.6996 26.9254 24.6172 26.8841 24.4741L26.7865 24.1532C26.5304 23.2923 26.3612 22.4055 26.3438 21.7181C26.3199 21.0307 26.4545 20.558 26.3959 20.5364C26.3633 20.5147 26.1246 20.9744 26.0595 21.7051C25.9858 22.4315 26.0834 23.3812 26.283 24.2898L26.3612 24.6302C26.3677 24.6605 26.3764 24.6931 26.372 24.6801L26.3872 24.7668L26.4176 24.9403C26.4567 25.1701 26.5066 25.3913 26.5565 25.6081C26.6606 26.0374 26.7756 26.4343 26.895 26.7703C27.1272 27.4469 27.3898 27.8914 27.4115 27.9196C27.4245 27.9413 27.444 27.9521 27.4657 27.9629C27.4527 28.028 27.4397 28.0909 27.4245 28.1559C27.3355 28.5701 27.2487 28.9864 27.1923 29.4006C27.0643 30.231 26.9167 31.0593 26.8451 31.8898C26.7995 32.304 26.7561 32.7138 26.7127 33.1193C26.6888 33.5269 26.6671 33.9302 26.6433 34.327C26.6259 34.7238 26.5912 35.1142 26.589 35.4979C26.5912 35.8817 26.5934 36.2569 26.5955 36.6233C26.602 36.9876 26.589 37.3475 26.6107 37.6901C26.6303 38.0327 26.6498 38.3623 26.6671 38.6811C26.8125 41.2159 26.9124 42.9441 26.9189 43.046C26.9275 43.2108 26.9644 43.3582 27.0165 43.4796C26.9449 43.6574 26.8733 43.8374 26.8017 44.0152C26.6845 44.3166 26.5565 44.6115 26.448 44.9151C26.3416 45.2208 26.2375 45.5244 26.1333 45.8258C25.7145 47.0379 25.3022 48.2305 24.9029 49.3884C24.5297 50.5571 24.2519 51.7237 23.9893 52.8317C23.883 53.3998 23.7593 53.9419 23.679 54.4862C23.6682 54.5816 23.6551 54.6748 23.6443 54.7681C23.6139 54.523 23.5922 54.2758 23.5662 54.0286C23.449 52.964 23.3687 51.8429 23.2754 50.7349C23.156 48.5102 23.1126 46.2313 23.0106 43.9502C22.9781 42.8161 22.9477 41.6821 22.9152 40.5545C22.9 39.9908 22.8848 39.427 22.8696 38.8654C22.8674 38.3016 22.8652 37.74 22.8631 37.1828C22.8609 34.9472 22.8414 32.7463 22.8132 30.617C22.8045 30.0858 22.8088 29.5567 22.7871 29.0341C22.7611 28.5115 22.735 27.9955 22.7068 27.4837C22.6721 26.8137 22.6374 26.1589 22.6048 25.5084C22.6765 25.4346 22.7372 25.3414 22.7654 25.2243C22.7741 25.1896 22.8457 24.8904 22.9651 24.3895C23.0258 24.1401 23.0974 23.8387 23.1799 23.4961C23.2797 23.1579 23.3926 22.7784 23.5141 22.3664C23.9199 20.9136 24.5644 19.1074 25.1807 17.2101C25.2176 17.2231 25.2545 17.2275 25.2848 17.2101C25.2979 17.2036 25.402 17.1364 25.5778 17.0258C25.7362 16.8935 25.9792 16.7352 26.2201 16.4946C26.7214 16.0349 27.2856 15.3497 27.7565 14.6146C28.2144 13.873 28.6657 13.1423 28.9175 12.5373C28.9826 12.3899 29.0238 12.2468 29.065 12.1232C29.0932 11.9952 29.1171 11.8868 29.1323 11.7979C29.1388 11.6158 29.1323 11.5182 29.1084 11.516C29.0824 11.5139 29.0412 11.6049 28.9913 11.7567C28.9565 11.8348 28.9153 11.928 28.8654 12.0364C28.8046 12.1427 28.7504 12.2663 28.6679 12.3942C28.5182 12.6566 28.3099 12.9536 28.082 13.2767C27.8476 13.5998 27.6003 13.9532 27.3507 14.2828C26.8473 14.9485 26.2809 15.5535 25.8078 15.9395C25.6971 16.0392 25.5908 16.1173 25.4932 16.1866C25.7471 15.1242 25.8143 14.053 25.8838 13.0577C25.9532 11.9996 26.0595 11.0108 26.066 10.163C26.0791 9.31515 26.0357 8.61261 25.9489 8.1334C25.8686 7.6542 25.7818 7.394 25.7622 7.39833C25.7015 7.41134 25.9163 8.48034 25.7796 10.15C25.7297 10.9848 25.5843 11.9497 25.4736 13.0209C25.363 14.0768 25.2545 15.1935 24.9485 16.2365C24.7857 16.7439 24.5796 17.2817 24.3886 17.8086C24.1976 18.3355 24.0089 18.8559 23.8244 19.3589C23.4642 20.3694 23.1257 21.317 22.8718 22.1518C22.7394 22.5681 22.6179 22.9497 22.5094 23.2902C22.4855 23.3791 22.466 23.4571 22.4443 23.5395C22.2555 21.9588 21.9951 20.4648 21.6652 19.0966C21.2963 17.4508 20.8905 15.9611 20.5542 14.6319C20.5129 14.4715 20.476 14.3219 20.437 14.1657C20.5259 14.1376 20.5997 14.0768 20.6301 13.9858C20.6366 13.9641 20.693 13.7733 20.7885 13.4567C20.8341 13.2984 20.8905 13.1076 20.9534 12.8929C20.999 12.6739 21.0489 12.4289 21.1053 12.1622C21.2269 11.6309 21.318 11.0108 21.4157 10.3516C21.4699 10.022 21.5046 9.67944 21.5524 9.33467C21.5958 8.98773 21.6479 8.63863 21.6544 8.28085C21.7368 6.86709 21.6891 5.45333 21.4894 4.42987C21.2941 3.40207 20.9643 2.80578 20.9339 2.82312C20.8732 2.85131 21.1053 3.46929 21.2073 4.4754C21.3158 5.47718 21.2855 6.85625 21.1379 8.23098C21.1162 8.57141 21.0489 8.91401 20.9925 9.2501C20.9317 9.58837 20.884 9.92012 20.8189 10.2432C20.6974 10.8872 20.5867 11.4922 20.4522 11.9974C20.3914 12.2533 20.335 12.4874 20.2829 12.6956C20.2395 12.8279 20.2004 12.945 20.1657 13.0556C19.9965 12.3682 19.8489 11.735 19.7339 11.1734C19.5082 10.2128 19.3932 9.43875 19.2912 8.91618C19.1935 8.39361 19.1284 8.11389 19.1024 8.11823C19.0764 8.12256 19.0916 8.40662 19.1415 8.94003C19.1935 9.47344 19.2608 10.2606 19.4409 11.2385C19.5559 11.9952 19.7317 12.8647 19.9357 13.8362C19.9357 13.8448 19.94 13.8513 19.94 13.8578C20.0008 14.1462 20.0637 14.4411 20.1288 14.7469C20.335 15.6966 20.578 16.7331 20.8146 17.8368C20.7451 17.8107 20.6323 17.763 20.4652 17.672C20.2026 17.5267 19.8359 17.2795 19.4019 16.9607C18.9505 16.6333 18.4666 16.2864 17.9848 15.831C17.8633 15.7183 17.7396 15.6034 17.6159 15.4863C17.4966 15.3627 17.3772 15.2391 17.2557 15.1111C17.0105 14.864 16.7761 14.5907 16.5374 14.3219C16.0578 13.7841 15.5457 13.2854 15.1573 12.7411C14.9403 12.4853 14.7971 12.1926 14.63 11.9302C14.515 11.6505 14.4216 11.3599 14.3305 11.104C13.9833 10.0589 13.6209 9.44309 13.5818 9.46694C13.5319 9.49729 13.7967 10.1348 14.0571 11.1973C14.094 11.3295 14.1309 11.4705 14.1699 11.6136C14.1894 11.6852 14.2112 11.7589 14.2307 11.8348C14.2567 11.9107 14.2567 11.9757 14.3175 12.0993C14.4737 12.3877 14.6148 12.7151 14.8231 12.997C15.205 13.602 15.6976 14.1311 16.1468 14.6862C16.3747 14.968 16.5938 15.2521 16.8391 15.521C16.9584 15.6554 17.0778 15.792 17.1949 15.9243C17.3208 16.05 17.4423 16.1758 17.5639 16.2994C17.7982 16.5509 18.0651 16.7699 18.306 16.9846C18.4232 17.0952 18.5534 17.1906 18.6619 17.273C18.7747 17.3619 18.8854 17.4486 18.9917 17.531C19.4192 17.8715 19.8012 18.149 20.1006 18.329C20.3979 18.5111 20.6258 18.5892 20.6518 18.5978C20.7603 18.639 20.8797 18.613 20.9643 18.548C21.012 18.7757 21.0598 18.999 21.1053 19.2332C21.4569 20.8724 21.7064 22.6548 21.854 24.55C21.8844 25.5149 21.9148 26.5058 21.9452 27.5206C21.9603 28.028 21.9777 28.5397 21.9951 29.058C22.0059 29.5762 21.9907 30.1031 21.9907 30.6322C21.9799 32.6574 21.9625 34.7542 21.9321 36.8965C21.7216 36.5865 21.4677 36.1723 21.1336 35.6844C20.9166 35.3982 20.7147 35.1055 20.5021 34.7932C20.4348 34.7022 20.374 34.5981 20.3133 34.5005C20.3697 34.4528 20.4044 34.3921 20.4023 34.327C20.3979 34.2923 20.3415 33.7177 20.259 32.8721C20.2243 32.4493 20.1484 31.9635 20.0702 31.4475C19.9856 30.9292 19.9249 30.3806 19.8033 29.8342C19.7469 29.561 19.6948 29.2878 19.6362 29.0233C19.5646 28.7609 19.493 28.5029 19.4257 28.2535C19.2934 27.7548 19.1284 27.3059 19.0026 26.9156C18.7357 26.1415 18.536 25.632 18.4883 25.6471C18.4384 25.6623 18.5447 26.2001 18.727 27.0002C18.8095 27.3992 18.9353 27.861 19.0265 28.3597C19.0764 28.6091 19.1263 28.865 19.1784 29.1252C19.2152 29.3897 19.2543 29.6564 19.2912 29.9253C19.378 30.4565 19.4084 31.0138 19.4648 31.5234C19.5169 32.0373 19.569 32.5186 19.5842 32.9371C19.5907 33.0499 19.5972 33.1583 19.6037 33.2602C19.493 33.0521 19.3845 32.8396 19.2803 32.6184C19.1849 32.4189 19.0872 32.2172 18.9917 32.0134C18.9114 31.8356 18.8312 31.5993 18.7487 31.3933C18.0933 29.6998 17.4966 27.9955 17.1776 26.6663C16.8499 25.3414 16.7848 24.4134 16.7197 24.4177C16.6937 24.4199 16.6893 24.6519 16.7023 25.0595C16.7045 25.2655 16.7197 25.5127 16.7609 25.7924C16.7978 26.0721 16.826 26.3931 16.8977 26.7335C17.1342 28.1039 17.6658 29.8711 18.2604 31.5884L18.3711 31.9115C18.4123 32.0221 18.4319 32.1153 18.497 32.2584C18.5881 32.4666 18.6792 32.6748 18.7704 32.8829C18.9505 33.2971 19.1523 33.6982 19.3433 34.0864C19.5603 34.4636 19.7404 34.8453 19.9683 35.177C20.1853 35.5175 20.3936 35.8405 20.5824 36.1007C20.9404 36.6515 21.2269 37.1676 21.4721 37.521C21.7108 37.8788 21.8974 38.0761 21.9104 38.1021C21.9148 38.1065 21.9191 38.1086 21.9235 38.113C21.9213 38.3688 21.9169 38.6225 21.9148 38.8806C21.9213 39.4465 21.9278 40.0168 21.9343 40.5849C21.9495 41.7233 21.9647 42.8682 21.9799 44.013C22.0471 46.2681 22.058 48.5514 22.1491 50.8173C22.2142 51.741 22.275 52.6452 22.3509 53.5668C22.1296 53.1179 21.9018 52.6582 21.6674 52.1855C21.42 51.6348 21.0706 51.0992 20.743 50.5463C20.5759 50.2709 20.4088 49.9912 20.2395 49.7093C20.0659 49.4317 19.8728 49.1694 19.6883 48.8962C19.2738 48.276 18.8312 47.6624 18.3798 47.0509C18.4449 46.8904 18.4774 46.6671 18.4622 46.4199C18.4579 46.3614 18.421 45.8431 18.3581 44.9823C18.3255 44.553 18.2865 44.0369 18.2431 43.4493C18.1715 42.8638 18.089 42.209 18.0022 41.4956C17.9588 41.14 17.9111 40.7692 17.8655 40.3876C17.8177 40.0059 17.7765 39.6091 17.6875 39.2123C17.527 38.4144 17.3772 37.5709 17.1884 36.7057C17.0886 36.2742 16.9888 35.8362 16.8868 35.3939C16.8347 35.1727 16.7848 34.9494 16.7327 34.726C16.6806 34.5027 16.6351 34.2772 16.5526 34.0582C16.2705 33.167 15.9146 32.3018 15.5544 31.4496C15.1529 30.4565 14.7341 29.4721 14.3131 28.5137C14.3804 28.4335 14.4195 28.3229 14.413 28.2036C14.4043 28.1451 14.3609 27.178 14.2285 25.7599C14.1634 25.0508 14.094 24.2312 13.9746 23.3574C13.916 22.9215 13.8705 22.4705 13.7988 22.0152C13.7207 21.562 13.6383 21.1023 13.558 20.6448C13.482 20.1851 13.3887 19.7297 13.2976 19.2809C13.1869 18.8364 13.0936 18.3962 12.9569 17.9842C12.8918 17.7782 12.8288 17.5744 12.7681 17.3749C12.6965 17.1797 12.6249 16.9889 12.5576 16.8046C12.4122 16.4425 12.321 16.0761 12.2147 15.7486C12.0151 15.0895 11.7937 14.5626 11.5832 14.2373C11.3793 13.9077 11.2143 13.7668 11.2013 13.7776C11.1731 13.8015 11.299 13.9728 11.453 14.3154C11.6136 14.6536 11.7829 15.1675 11.937 15.8332C12.0238 16.1693 12.0889 16.5271 12.2256 16.9347C12.2842 17.119 12.3428 17.3077 12.4035 17.5007C12.4556 17.698 12.5077 17.8996 12.5598 18.1035C12.6748 18.5111 12.7464 18.947 12.8375 19.3828C12.9091 19.8273 12.9829 20.2783 13.0437 20.7358C13.1066 21.1912 13.1717 21.6487 13.2346 22.0997C13.2911 22.5507 13.3236 22.9996 13.367 23.4311C13.4603 24.2963 13.5059 25.1116 13.5515 25.8163C13.5797 26.2478 13.6014 26.6316 13.6187 26.9677C12.8093 25.2048 12.0064 23.5807 11.2859 22.2428C10.661 21.0156 10.0816 20.0311 9.68446 19.3351C9.28517 18.6434 9.04647 18.2531 9.02477 18.2661C9.00307 18.2791 9.1962 18.6954 9.55426 19.4131C9.90797 20.133 10.4461 21.1392 11.0299 22.386C11.325 23.0061 11.6592 23.6718 11.9912 24.3873C12.3167 25.1072 12.6574 25.8661 13.0133 26.6511C13.2411 27.1476 13.456 27.668 13.673 28.1928C13.6752 28.2188 13.6752 28.2405 13.6773 28.247C13.6838 28.3749 13.7403 28.4812 13.8227 28.5527C13.8987 28.7349 13.9724 28.9148 14.0506 29.0992C14.222 29.5198 14.4086 29.9318 14.5692 30.3676C14.7341 30.8013 14.8969 31.2393 15.0727 31.6665C15.4199 32.5295 15.7519 33.3816 16.0058 34.2338C16.0817 34.442 16.123 34.6675 16.1707 34.8886C16.2184 35.1098 16.2662 35.331 16.3117 35.55C16.3378 35.6714 16.3638 35.7907 16.3899 35.9121C16.0557 35.563 15.5913 35.1228 14.9924 34.6761C14.3652 34.1904 13.6122 33.6874 12.8353 33.1279C12.7572 33.0716 12.6769 33.0087 12.5966 32.9501C12.6856 32.9133 12.7442 32.8612 12.7399 32.8027C12.7377 32.7919 12.7225 32.6856 12.6986 32.51C12.6856 32.4232 12.6704 32.317 12.6509 32.1999C12.6227 32.085 12.5923 31.9549 12.5598 31.8118C12.4361 31.2437 12.1822 30.5368 11.8936 29.8581C11.3033 28.5072 10.5525 27.2799 10.4678 27.3233C10.3702 27.3731 10.9561 28.6915 11.4053 30.0511C11.6223 30.7319 11.8154 31.4215 11.8936 31.9527C11.9174 32.085 11.937 32.2064 11.9565 32.3148C11.9608 32.369 11.9652 32.4211 11.9695 32.4666C11.4856 32.0763 11.0147 31.6513 10.6132 31.1613C10.0165 30.3243 9.38499 29.509 8.92278 28.646C8.40197 27.822 8.01787 26.9915 7.66416 26.2955C7.4797 25.9485 7.33431 25.6211 7.20845 25.3284C7.07608 25.0378 6.96324 24.7841 6.86775 24.576C6.67462 24.1597 6.5531 23.9255 6.52923 23.9363C6.50536 23.9472 6.57914 24.1987 6.72887 24.6367C6.80482 24.8557 6.89814 25.1181 7.00664 25.4216C7.11297 25.7252 7.23883 26.0656 7.40375 26.4256C7.72275 27.1498 8.07212 28.0085 8.56689 28.8693C8.81211 29.3008 9.01826 29.7735 9.3264 30.1963C9.61719 30.63 9.91231 31.0724 10.2074 31.5125C10.8736 32.382 11.6982 33.0564 12.4708 33.6505C13.2455 34.2425 13.979 34.7607 14.5735 35.2464C15.7823 36.1983 16.3703 37.0461 16.4072 37.0917C16.4745 37.1893 16.57 37.2565 16.6698 37.2825C16.8043 37.9872 16.9237 38.6789 17.0452 39.3359C17.1277 39.7306 17.1646 40.123 17.2058 40.5025C17.247 40.882 17.2883 41.2462 17.3273 41.5997C17.4054 42.3044 17.4771 42.9527 17.5422 43.5317C17.579 44.115 17.6116 44.6267 17.6376 45.0517C17.668 45.5396 17.6919 45.9104 17.7071 46.1554C17.5769 45.9819 17.4467 45.8106 17.3165 45.6371C16.902 45.0972 16.4832 44.5551 16.0644 44.0109C15.8452 43.7377 15.6304 43.4558 15.4068 43.1891L14.732 42.4063C14.5193 42.1439 14.2871 41.8924 14.0918 41.6214C13.9008 41.3438 13.7077 41.0901 13.5167 40.7952C13.3258 40.5047 13.137 40.2141 12.9482 39.9235C12.7594 39.6352 12.5771 39.3403 12.3623 39.0736C11.5246 37.9785 10.7478 36.9291 10.0317 35.8514C9.67578 35.3115 9.33291 34.7781 8.98137 34.262C8.80777 34.004 8.63633 33.7481 8.4649 33.4944C8.38027 33.3686 8.29564 33.2429 8.21101 33.1193C8.11986 33 8.02872 32.8808 7.93758 32.7637C7.57736 32.2953 7.22581 31.8399 6.88729 31.3998C6.71802 31.1808 6.55093 30.9639 6.38818 30.7514C6.24062 30.5281 6.10607 30.3004 5.96719 30.0792C5.82397 29.8624 5.70679 29.6369 5.59612 29.4136C5.48327 29.1902 5.36609 28.9777 5.26627 28.7609C5.08182 28.3229 4.88 27.9152 4.73461 27.5141C4.41996 26.7226 4.17691 26.0179 3.97293 25.4433C3.5693 24.2876 3.31975 23.6436 3.27201 23.6588C3.22427 23.6783 3.37834 24.3505 3.69082 25.5409C3.85141 26.135 4.04888 26.8593 4.32665 27.6811C4.45034 28.0952 4.63696 28.5267 4.80622 28.9842C4.89953 29.2119 5.01021 29.4396 5.11654 29.6759C5.22287 29.9123 5.33354 30.153 5.47459 30.3893C5.60914 30.6257 5.74151 30.8707 5.88907 31.1157C6.05399 31.3477 6.22109 31.5863 6.39252 31.8269C6.70934 32.2714 7.03702 32.7333 7.37337 33.206C7.45583 33.3231 7.54047 33.4402 7.6251 33.5594C7.70322 33.6852 7.78351 33.811 7.86163 33.9389C8.02004 34.1948 8.1828 34.4528 8.34555 34.713C8.67322 35.2443 9.00524 35.7863 9.34593 36.3393C9.67144 36.8965 10.0729 37.456 10.4505 38.0262L10.7391 38.4534L11.0255 38.8545C11.2165 39.1213 11.4096 39.3901 11.6028 39.659C11.8046 39.9214 11.9717 40.2119 12.1496 40.4982C12.3254 40.7844 12.5012 41.0706 12.6791 41.3568C12.8527 41.6409 13.0827 41.9726 13.2845 42.2762C13.4408 42.5017 13.6057 42.7034 13.7685 42.9094C13.5493 42.8378 13.3019 42.7467 13.0285 42.634C12.8983 42.5819 12.7637 42.5256 12.627 42.4692L12.5684 42.4453L12.4925 42.4193L12.384 42.3825C12.3102 42.3586 12.2364 42.3326 12.1626 42.3087C11.8632 42.209 11.5463 42.1027 11.2208 41.9921C10.5698 41.7601 9.85806 41.5108 9.18101 41.2484C7.80955 40.7388 6.54442 39.9604 5.66339 39.2752C5.22287 38.9326 4.88217 38.6009 4.68253 38.3211C4.56969 38.191 4.5111 38.0631 4.45902 37.9807C4.40911 37.8983 4.37656 37.8549 4.36354 37.8593C4.35052 37.8636 4.36137 37.9157 4.38958 38.0132C4.41996 38.1086 4.46119 38.2583 4.55884 38.4079C4.7281 38.7353 5.05361 39.1169 5.47893 39.5072C6.31874 40.2813 7.58387 41.1595 8.97703 41.7558C9.67795 42.0659 10.342 42.3282 10.9973 42.5928C11.3272 42.7185 11.6483 42.84 11.9521 42.9549C12.0281 42.9831 12.104 43.0113 12.1778 43.0395L12.2885 43.0807L12.3167 43.0915L12.3297 43.0958C12.3189 43.0915 12.3167 43.0915 12.3167 43.0915L12.3601 43.111C12.499 43.1739 12.6335 43.2346 12.7637 43.2932C13.6426 43.7008 14.3609 43.8743 14.5952 43.9176L14.6018 43.9241C14.8122 44.1865 15.0032 44.4511 15.205 44.7134C15.613 45.2685 16.0188 45.8236 16.4224 46.3744C17.2166 47.4781 18 48.5536 18.6879 49.6334C18.8615 49.9023 19.046 50.1646 19.2066 50.4335C19.3628 50.7046 19.5169 50.9713 19.6688 51.238C19.9704 51.7714 20.2872 52.2701 20.5281 52.8339C20.7842 53.3781 21.0359 53.9094 21.2768 54.4233C21.3983 54.6791 21.5177 54.9328 21.6348 55.1822C21.6934 55.3058 21.752 55.4294 21.8084 55.5508L21.8301 55.5964C21.8323 55.6007 21.8475 55.6007 21.8497 55.605C21.8453 55.592 21.854 55.5725 21.8605 55.5899L21.867 55.6094C21.8692 55.6137 21.854 55.6159 21.854 55.6159L21.8605 55.6527L21.9386 55.8717C22.1556 56.4052 22.3292 56.8367 22.4942 57.2812C22.6331 57.7257 22.7871 58.142 22.8783 58.554C22.9846 58.9616 23.0866 59.3411 23.143 59.7097C23.2059 60.074 23.2797 60.4058 23.321 60.7158C23.3882 61.2969 23.4403 61.7631 23.4815 62.1101C23.4859 62.1664 23.4902 62.2185 23.4946 62.2705C23.5011 62.405 23.5054 62.5199 23.5097 62.6045C23.373 62.4939 23.2298 62.3876 23.0844 62.2857C22.8652 62.1448 22.6396 61.993 22.4074 61.8347C21.9408 61.5181 21.4374 61.1755 20.9057 60.8134C20.7299 60.692 20.5433 60.5749 20.3545 60.46C20.348 60.4144 20.3372 60.3667 20.322 60.319C20.3089 60.2822 20.1787 59.9309 19.9162 59.391C19.6558 58.8489 19.2478 58.1268 18.74 57.3072C18.6141 57.1012 18.4839 56.8887 18.3472 56.6697C18.217 56.4485 18.0738 56.223 17.9067 55.9997C17.5877 55.553 17.2535 55.0846 16.9107 54.6033C16.6329 54.2195 16.353 53.8227 16.0795 53.4128C16.1338 53.3738 16.1664 53.3239 16.162 53.2719C16.149 53.248 16.1229 52.7558 15.9645 52.0901C15.8343 51.4158 15.5826 50.5506 15.3027 49.7115C15.166 49.2995 15.0293 48.8701 14.8578 48.4907C14.758 48.3085 14.6799 48.1112 14.5432 47.9811C14.4195 47.8402 14.2806 47.7339 14.1504 47.6429C13.8856 47.4716 13.6448 47.3566 13.4864 47.2374C13.3258 47.1268 13.2325 47.0487 13.2129 47.0682C13.1956 47.0813 13.2498 47.1962 13.3887 47.3545C13.5254 47.5193 13.7598 47.6906 13.9746 47.8814C14.0788 47.979 14.1829 48.0852 14.2719 48.2153L14.3392 48.3151C14.3522 48.3367 14.3522 48.3281 14.3587 48.3497L14.3804 48.4083C14.413 48.4907 14.4455 48.5731 14.4802 48.6576C14.6018 49.0198 14.6994 49.4296 14.8079 49.8719C15.0206 50.7219 15.2115 51.5632 15.3005 52.2202C15.3048 52.2463 15.3092 52.2679 15.3114 52.294C15.1399 52.0706 14.9555 51.8538 14.7558 51.6521C13.1847 49.9825 11.3445 48.7791 10.0208 47.8337C8.68407 46.8991 7.8421 46.2161 7.80738 46.2616C7.79219 46.2811 7.98315 46.4741 8.33687 46.7994C8.68624 47.1268 9.25696 47.5171 9.89929 48.0267C11.1796 49.048 12.946 50.3425 14.4716 51.9319L14.4933 51.9557C14.8752 52.3547 15.1573 52.8794 15.4698 53.4172C15.7888 53.9419 16.1164 54.4732 16.4506 54.9632C16.7761 55.4446 17.0843 55.9216 17.3859 56.3661C17.4597 56.4767 17.5291 56.5916 17.6007 56.6979C17.668 56.8128 17.7309 56.9299 17.796 57.0405C17.9262 57.2638 18.0521 57.4807 18.1736 57.6866C18.6619 58.5128 19.0416 59.2175 19.276 59.7357C19.2912 59.7683 19.3042 59.8008 19.3194 59.8311C19.2782 59.8051 19.2369 59.7813 19.1957 59.7552C18.0087 59.0397 16.7479 58.2764 15.4893 57.5175C14.8622 57.1359 14.2524 56.7326 13.6404 56.3488C13.048 55.939 12.4578 55.5443 11.9022 55.141C11.3641 54.716 10.8172 54.3322 10.3398 53.9181C9.86891 53.4974 9.40235 53.1179 9.00307 52.732C8.61029 52.3352 8.25224 51.9709 7.93324 51.65C7.60991 51.3291 7.37988 51.0038 7.15637 50.7609C6.7267 50.2622 6.45979 49.9868 6.41856 50.0172C6.37733 50.0476 6.55961 50.3837 6.91984 50.9518C7.10646 51.2293 7.3061 51.5936 7.59906 51.9535C7.89418 52.3135 8.22837 52.7168 8.59076 53.1591C8.96401 53.582 9.40452 53.9983 9.85372 54.458C9.79947 54.4385 9.74739 54.4189 9.6888 54.3973C9.56945 54.3561 9.44358 54.3105 9.31555 54.265C9.25262 54.2411 9.18101 54.2238 9.11157 54.2021C9.05515 54.1869 8.99656 54.1696 8.93797 54.1522C8.66454 54.059 8.37593 53.9614 8.07863 53.8595C7.78351 53.7468 7.46885 53.686 7.15637 53.6015C6.83954 53.5169 6.52272 53.4432 6.21023 53.3803C4.95162 53.1158 3.79933 52.4761 3.0333 51.8603C2.26511 51.2402 1.87234 50.6699 1.81592 50.7111C1.79422 50.7262 1.87668 50.878 2.0416 51.1339C2.11972 51.264 2.22388 51.4158 2.3671 51.5719C2.50599 51.728 2.64921 51.9232 2.84451 52.088C3.58015 52.8014 4.76065 53.5581 6.06484 53.9072L6.54659 54.0395C6.69849 54.0872 6.85039 54.1327 7.00013 54.1804C7.29742 54.278 7.6034 54.3517 7.87465 54.4688C8.15241 54.5772 8.41933 54.6813 8.67539 54.7811C8.81645 54.8309 8.95316 54.8786 9.0877 54.9242C9.20705 54.9719 9.32423 55.0174 9.43707 55.0629C9.89061 55.2494 10.2877 55.4207 10.5915 55.5118C10.8953 55.605 11.0863 55.6484 11.1102 55.6506C11.1362 55.6549 11.1601 55.6484 11.184 55.6441C11.2556 55.7069 11.3272 55.7677 11.3966 55.8305C11.9391 56.2794 12.5207 56.7131 13.1044 57.1641C13.7034 57.5847 14.3066 58.0292 14.9208 58.4434C15.4784 58.8229 16.0448 59.2001 16.6047 59.5709C16.1772 59.6382 15.5023 59.7618 14.6907 59.9634C14.005 60.126 13.2216 60.3125 12.3796 60.4491C11.5377 60.577 10.6436 60.6161 9.7756 60.3927C8.90976 60.1802 8.10467 59.7357 7.44715 59.1893C7.28223 59.0527 7.1325 58.9031 6.97843 58.7643C6.83303 58.6125 6.69198 58.4651 6.55527 58.322C6.28185 58.0314 6.02144 57.7582 5.78274 57.5045C5.54837 57.2465 5.31184 57.034 5.11003 56.841C5.00587 56.7456 4.91472 56.6502 4.82141 56.5765C4.72376 56.5049 4.63479 56.4398 4.5545 56.3813C4.23116 56.1493 4.04454 56.0279 4.02935 56.0495C3.99029 56.1124 4.69772 56.6393 5.57224 57.7105C5.79359 57.9794 6.03229 58.2678 6.29921 58.5757C6.43158 58.7296 6.56829 58.8857 6.70717 59.0484C6.86124 59.2023 7.01315 59.3693 7.18024 59.5211C7.85078 60.1347 8.7036 60.6551 9.63455 60.9218C10.5633 61.2037 11.5659 61.195 12.4404 61.0866C13.3214 60.9739 14.1287 60.8069 14.8122 60.6638C16.1815 60.3667 17.0973 60.2778 17.1537 60.2757C17.2687 60.2648 17.3685 60.2041 17.438 60.1217C17.8134 60.3689 18.1845 60.6139 18.5425 60.8503C19.1133 61.2362 19.6796 61.5788 20.1918 61.9583C20.7039 62.3356 21.1922 62.6912 21.6413 63.0229C21.867 63.1899 22.084 63.346 22.2924 63.4891C22.4811 63.6322 22.6504 63.7602 22.785 63.8968C22.9369 64.0226 23.0302 64.1678 23.1408 64.2893C23.2298 64.4237 23.3058 64.5495 23.3774 64.6644C23.4316 64.7901 23.4794 64.9029 23.5206 65.0005C23.5662 65.098 23.5748 65.2 23.5987 65.2759C23.6399 65.4298 23.6638 65.5209 23.6682 65.5404C23.6747 65.6033 23.6964 65.6597 23.7267 65.716C23.7376 65.9329 23.7506 66.154 23.7571 66.3709C23.7832 67.2968 23.8201 68.1901 23.8331 69.0531C23.8938 72.503 23.8743 75.4237 23.896 77.5118C23.9155 79.6021 23.9416 80.8598 23.9524 81.0029C23.9828 82.1413 24.3387 83.0433 24.7445 83.0173C25.1503 82.9912 25.4541 82.061 25.4237 80.9378C25.415 80.799 25.3781 79.5523 25.3391 77.475C25.2979 75.3934 25.2892 72.4813 25.1915 69.0011C25.1677 68.1316 25.1221 67.2274 25.0852 66.2928C25.0787 66.0912 25.0613 65.8808 25.0505 65.677C25.057 65.664 25.0592 65.651 25.0657 65.638C25.146 65.5729 25.2002 65.4927 25.2154 65.406C25.2154 65.3886 25.2458 65.3149 25.2848 65.1848C25.3087 65.1219 25.3217 65.0373 25.3608 64.9506C25.402 64.866 25.4498 64.7706 25.5018 64.6622C25.5626 64.5581 25.6451 64.4541 25.7254 64.3305C25.8295 64.222 25.9228 64.0941 26.0639 63.9705C26.129 63.9076 26.1984 63.8426 26.283 63.7732C26.3699 63.6973 26.461 63.6214 26.5543 63.5412C26.7279 63.3851 26.9102 63.2224 27.1012 63.0511C27.1988 62.9644 27.2986 62.8755 27.3984 62.7866C27.5004 62.689 27.6068 62.5893 27.7131 62.4874C27.8194 62.392 27.9236 62.2662 28.0299 62.1513C28.1688 61.9973 28.1645 62.0168 28.3012 61.8867C28.7243 61.4726 29.1866 61.0606 29.6336 60.5857C29.6401 60.577 29.6488 60.5705 29.6575 60.5619C29.6748 60.5424 29.7443 60.5684 29.7963 60.564C29.8267 60.5619 30.0893 60.5337 30.4929 60.4361C30.8965 60.3472 31.4325 60.1564 32.0336 60.0848L32.0575 60.0805C33.1317 59.881 34.4988 59.5796 35.8529 58.9204L36.1068 58.8012L36.3455 58.6516L36.8229 58.348C37.1441 58.1507 37.45 57.9252 37.7582 57.7127C38.0707 57.5045 38.3636 57.266 38.6544 57.0383C38.9495 56.8171 39.223 56.5721 39.4855 56.3314C40.5402 55.3687 41.3626 54.3539 41.8292 53.5408C41.8921 53.441 41.9529 53.3499 42.0049 53.2589C42.0527 53.1635 42.0961 53.0746 42.1373 52.9922C42.2176 52.8252 42.2871 52.6821 42.3435 52.5628C42.4541 52.3265 42.5062 52.1921 42.4889 52.1834C42.4715 52.1747 42.3869 52.2896 42.2458 52.5043C42.1764 52.6127 42.0939 52.745 41.9963 52.8989C41.9485 52.977 41.8986 53.0594 41.8444 53.1461C41.7836 53.2285 41.7185 53.3153 41.6491 53.4085C41.1348 54.1652 40.2884 55.1041 39.2273 55.9932C38.9604 56.2143 38.6891 56.4442 38.3918 56.6458C38.0989 56.8562 37.8081 57.0773 37.4956 57.2703C37.1853 57.4676 36.8793 57.678 36.5647 57.8558L36.0959 58.1333L35.8616 58.2699L35.6207 58.3697C35.4015 58.4672 35.1802 58.554 34.9567 58.6364C35.0131 58.4391 35.0869 58.1637 35.1563 57.8558C35.2019 57.717 35.2323 57.5696 35.2995 57.4026C35.3646 57.2378 35.4319 57.0643 35.5035 56.8844C35.6446 56.5222 35.7965 56.1341 35.9484 55.7416L35.9549 55.7286C36.109 55.2971 36.2912 54.87 36.4866 54.4775C36.6949 54.0937 36.901 53.7337 37.1224 53.454C37.5499 52.8816 37.9448 52.5737 37.9101 52.5173C37.8927 52.4783 37.4305 52.6994 36.9075 53.2415C36.6385 53.5039 36.3824 53.8573 36.1285 54.2411C35.8876 54.6336 35.6598 55.0651 35.4666 55.5031C35.2887 55.8826 35.1107 56.2599 34.9458 56.6111C34.8612 56.7911 34.7809 56.9646 34.705 57.1294C34.6268 57.292 34.5704 57.4807 34.5118 57.6368C34.4207 57.9338 34.3447 58.1832 34.2905 58.361C34.2406 58.5388 34.195 58.5952 34.1928 58.6125C34.169 58.6689 34.221 58.7621 34.3122 58.851C33.4745 59.1047 32.6608 59.2565 31.9729 59.3649L32.0033 59.3628C31.3045 59.4278 30.7967 59.5926 30.4256 59.6685C30.5971 59.469 30.7685 59.2652 30.9399 59.0592C31.1591 58.7968 31.3479 58.5041 31.5519 58.2244C31.758 57.9425 31.9534 57.6606 32.14 57.3809C32.9038 56.2512 33.646 55.0911 34.2384 53.9484C34.6984 53.0724 35.0739 52.2116 35.3429 51.4093C35.3733 51.4114 35.4037 51.4114 35.4319 51.4006C35.4601 51.3963 35.6381 51.3247 35.8486 51.1773C36.0569 51.0342 36.3129 50.8065 36.5864 50.5593C36.6168 50.5333 36.6493 50.5051 36.6819 50.4769C36.6927 50.4682 36.7079 50.4574 36.7014 50.4595L36.7665 50.4205C36.8533 50.3685 36.9444 50.3164 37.0356 50.2622C37.22 50.1538 37.4153 50.0389 37.615 49.9218C37.8146 49.8025 38.0229 49.6811 38.2313 49.5575C38.266 49.538 38.3832 49.4708 38.4157 49.4296L38.5568 49.3038C38.6501 49.2192 38.7477 49.1369 38.8389 49.048C39.581 48.3411 40.1387 47.452 40.3774 46.73C40.6205 46.0079 40.6552 45.5027 40.6183 45.4962C40.5575 45.4789 40.4273 45.9581 40.1192 46.6064C39.8132 47.2569 39.2447 48.0158 38.5134 48.6273C38.4222 48.7032 38.3267 48.7747 38.2334 48.8485L38.0924 48.959C38.0685 48.9786 38.0555 48.9894 38.0555 48.9872C38.0511 48.9894 38.0468 48.9916 38.0381 48.9959L37.9969 49.0176C37.7821 49.1282 37.5694 49.2366 37.3632 49.3428C37.1571 49.4491 36.9574 49.551 36.7687 49.6486C36.6732 49.6985 36.582 49.7462 36.4931 49.7917L36.4258 49.8264C36.3694 49.8524 36.3455 49.8741 36.313 49.8936C36.2674 49.9283 36.2218 49.9608 36.1784 49.9955C35.9549 50.1777 35.7726 50.3251 35.625 50.4335C36.0873 48.5926 35.905 47.3566 35.8355 47.3675C35.7075 47.3631 35.7032 48.6793 35.0174 50.5072C34.6854 51.4223 34.1776 52.4479 33.5353 53.5039C32.8995 54.5642 32.1226 55.6419 31.3154 56.7217L31.0072 57.1315L30.7056 57.5132C30.5016 57.7647 30.315 58.0292 30.1001 58.2656C29.6661 58.7361 29.2451 59.2045 28.7894 59.6251C28.5941 59.8203 28.3945 60.0046 28.1948 60.1846C28.1775 59.9851 28.1536 59.7466 28.1297 59.4734C28.0581 58.7188 27.9605 57.73 27.9388 56.7391C27.9106 55.7503 27.9822 54.7594 28.1297 54.0221C28.2686 53.2849 28.4531 52.8035 28.3988 52.7775C28.3619 52.7558 28.0863 53.2003 27.8542 53.9441C27.6155 54.6835 27.457 55.7113 27.4201 56.7282C27.3746 57.7474 27.4201 58.76 27.4527 59.5211C27.4852 60.1867 27.5091 60.666 27.5135 60.7939C27.4983 60.8069 27.4809 60.8221 27.4657 60.8351L27.3854 60.9066L27.3464 60.9413L27.3095 60.9739L27.2726 61.0129L27.1077 61.182C27.0209 61.2688 26.9471 61.3577 26.8473 61.4401C26.7539 61.5246 26.6606 61.6048 26.5695 61.6872C26.4697 61.7696 26.372 61.8499 26.2744 61.9301C25.8751 62.2597 25.5062 62.5633 25.1763 62.8321C25.1243 62.8733 25.0787 62.921 25.0309 62.9687C25.0331 62.9059 25.0331 62.8408 25.0288 62.7758C25.0309 62.7367 25.0049 62.5329 24.9723 62.1925C24.9702 62.1404 24.9658 62.0927 24.9637 62.032C24.9572 61.9843 24.9506 61.9258 24.9441 61.8737C24.9181 61.5918 24.8921 61.2557 24.866 60.8589C24.8508 60.2822 24.8139 59.5926 24.8053 58.8033C24.8183 58.0141 24.8313 57.1294 24.8769 56.1493C24.9528 54.6922 25.261 53.0269 25.6971 51.2662C25.8078 51.2553 25.9293 51.2185 26.0465 51.1556C26.0726 51.1404 26.244 51.0472 26.5326 50.8867C26.8299 50.7154 27.2661 50.4942 27.7717 50.1798C28.0191 50.0129 28.2882 49.8307 28.5789 49.6356C28.8697 49.4383 29.1714 49.2604 29.4925 49.0545C29.8267 48.842 30.1761 48.6186 30.5428 48.3844C30.7338 48.2717 30.8944 48.1156 31.0767 47.979C31.2546 47.838 31.4369 47.6949 31.604 47.5366C31.9512 47.2287 32.3006 46.9078 32.6564 46.5782C33.0036 46.2421 33.34 45.88 33.6894 45.5244C34.0366 45.1666 34.386 44.8023 34.7397 44.4402L35.0044 44.167C35.0869 44.0716 35.1867 44 35.2778 43.8634L35.7227 43.2476C36.326 42.4323 36.9509 41.6387 37.5108 40.8386C38.075 40.0406 38.572 39.2362 38.9604 38.4512V38.4491V38.4469C39.2816 37.7313 39.581 37.0613 39.8675 36.4737C40.0063 36.1766 40.1452 35.8991 40.2494 35.6389C40.3492 35.3722 40.4273 35.1207 40.4989 34.8886C40.6422 34.4268 40.7637 34.056 40.8765 33.8088C40.9872 33.5594 41.0653 33.425 41.048 33.4142C41.0393 33.4055 40.9351 33.5226 40.7941 33.7633C40.6508 34.004 40.4968 34.3726 40.3275 34.8258C40.2429 35.0534 40.1517 35.2963 40.0432 35.5457C39.9347 35.7798 39.7785 36.0595 39.6309 36.3458C39.3228 36.9139 38.9951 37.5839 38.6414 38.3038L38.6522 38.2799C38.2508 39.028 37.7452 39.7956 37.1701 40.5632C36.5972 41.333 35.9571 42.1071 35.3299 42.9159L34.8634 43.5295L34.8286 43.575L34.7766 43.6271L34.642 43.7593L34.3729 44.0239C34.0149 44.3773 33.659 44.7308 33.3074 45.0777C32.9863 45.3921 32.6738 45.7109 32.357 46.0101C32.3613 45.661 32.396 45.1341 32.5393 44.4749C32.6586 43.8938 32.8517 43.2281 33.0991 42.5234C33.2272 42.1743 33.3595 41.8122 33.5093 41.4501C33.5765 41.2701 33.6698 41.0901 33.7284 40.882L33.9107 40.3073C34.3773 38.7722 34.872 37.2608 35.4623 36.2178C36.0439 35.1727 36.6298 34.6068 36.5799 34.5525C36.5625 34.533 36.4106 34.6631 36.1545 34.9082C36.0265 35.0318 35.8659 35.177 35.7205 35.3809C35.5751 35.5803 35.382 35.7907 35.2258 36.0552C34.54 37.0808 33.952 38.6204 33.4268 40.123L33.2033 40.6781C33.1664 40.7865 33.1512 40.8191 33.1013 40.9275L32.9776 41.2007C32.8105 41.5628 32.6608 41.9293 32.5176 42.2849C32.2355 43.0004 32.0098 43.6921 31.8622 44.3079C31.5541 45.5417 31.6105 46.4524 31.6127 46.5001C31.6148 46.5457 31.6257 46.5869 31.6409 46.6259C31.489 46.7582 31.3392 46.8883 31.1917 47.0162C31.0224 47.1702 30.8488 47.3003 30.6795 47.4304C30.5081 47.554 30.3475 47.7036 30.1739 47.8012C29.8202 48.018 29.4795 48.2283 29.154 48.4256C28.8155 48.6316 28.4791 48.8268 28.1948 49.0111C27.9084 49.1976 27.6437 49.3689 27.4006 49.5272C26.9058 49.8221 26.4892 50.0259 26.1984 50.1863C26.0791 50.2492 25.9858 50.3013 25.9076 50.3425C25.9597 50.1451 26.014 49.9478 26.0682 49.7483C26.4393 48.6056 26.8169 47.4217 27.2031 46.2204Z" fill="#D7C7B8"/>
<path d="M21.8281 55.605C21.8305 55.6098 21.8329 55.6147 21.8329 55.6171C21.8354 55.6195 21.8329 55.6171 21.8329 55.6171V55.6147C21.8329 55.6123 21.8305 55.6074 21.8281 55.605Z" fill="#66462D"/>
<path d="M35.4414 55.4909C35.4459 55.4819 35.4504 55.4729 35.4549 55.4639L35.4414 55.4909Z" fill="#66462D"/>
<path d="M14.7422 51.6348C14.7445 51.637 14.7445 51.6393 14.7467 51.6393C14.749 51.6416 14.7513 51.6439 14.7513 51.6439L14.7422 51.6348Z" fill="#66462D"/>
<path d="M22.1186 1.40751C21.4111 1.05624 20.8079 2.26618 21.5153 2.61745C22.3421 3.02943 22.9453 1.8195 22.1186 1.40751Z" fill="#D4D659"/>
<path d="M19.6885 1.55912C18.8618 1.1493 18.2607 2.35924 19.0853 2.76905C19.7949 3.12033 20.396 1.91039 19.6885 1.55912Z" fill="#D4D659"/>
<path d="M22.959 3.86429C22.1323 3.45447 21.5312 4.66441 22.3558 5.07423C23.0632 5.4255 23.6665 4.21556 22.959 3.86429Z" fill="#D4D659"/>
<path d="M24.4164 3.00321C23.709 2.65194 23.1057 3.86188 23.8131 4.21315C24.6399 4.62514 25.2432 3.4152 24.4164 3.00321Z" fill="#D4D659"/>
<path d="M25.8344 3.70829C25.127 3.35702 24.5237 4.56696 25.2311 4.91823C26.0557 5.32805 26.659 4.11811 25.8344 3.70829Z" fill="#D4D659"/>
<path d="M17.2748 6.70048C16.5674 6.34921 15.9641 7.55914 16.6715 7.91042C17.4983 8.32023 18.0994 7.1103 17.2748 6.70048Z" fill="#D4D659"/>
<path d="M16.6684 5.26493C15.9609 4.91366 15.3577 6.1236 16.0651 6.47487C16.8919 6.88469 17.493 5.67475 16.6684 5.26493Z" fill="#D4D659"/>
<path d="M12.4151 10.8487C11.5883 10.4388 10.9872 11.6488 11.8118 12.0586C12.5193 12.412 13.1225 11.2021 12.4151 10.8487Z" fill="#D4D659"/>
<path d="M13.5323 14.8037C12.7055 14.3939 12.1044 15.6039 12.929 16.0137C13.6386 16.3671 14.2397 15.155 13.5323 14.8037Z" fill="#D4D659"/>
<path d="M16.0166 18.9821C15.8994 18.9236 15.7692 18.9019 15.6564 18.9171C15.728 18.6482 15.6651 18.3555 15.3721 18.208C14.5453 17.7982 13.9442 19.0082 14.7689 19.418C14.8795 19.4744 14.9859 19.4874 15.0879 19.4744C15.0249 19.7432 15.0596 20.0143 15.4155 20.1899C16.2401 20.6041 16.8434 19.3941 16.0166 18.9821Z" fill="#D4D659"/>
<path d="M17.5792 19.9859C16.7524 19.5761 16.1513 20.786 16.9759 21.1958C17.6855 21.5471 18.2888 20.3371 17.5792 19.9859Z" fill="#D4D659"/>
<path d="M10.0557 16.4712C9.22894 16.0614 8.62784 17.2713 9.45246 17.6812C10.1599 18.0324 10.7632 16.8225 10.0557 16.4712Z" fill="#D4D659"/>
<path d="M9.74356 14.7298C9.03613 14.3785 8.43286 15.5884 9.14029 15.9397C9.96707 16.3517 10.5703 15.1418 9.74356 14.7298Z" fill="#D4D659"/>
<path d="M13.0873 8.01444C12.3799 7.66317 11.7766 8.87311 12.484 9.22438C13.3108 9.6342 13.9141 8.42426 13.0873 8.01444Z" fill="#D4D659"/>
<path d="M6.24205 19.1032C5.97514 18.971 5.72125 19.0599 5.54981 19.2442C5.43914 19.2225 5.32413 19.2247 5.21129 19.2659C4.86842 19.3851 4.67312 19.7754 4.78596 20.1224C4.84455 20.3023 4.90097 20.4823 4.95956 20.6623C5.07024 21.0092 5.44999 21.1979 5.79286 21.0764C6.09883 20.9702 6.28329 20.6515 6.24423 20.337C6.68908 20.1202 6.84315 19.4003 6.24205 19.1032Z" fill="#D4D659"/>
<path d="M7.64981 20.7102C6.94238 20.359 6.33911 21.5689 7.04654 21.9202C7.87332 22.33 8.47659 21.1201 7.64981 20.7102Z" fill="#D4D659"/>
<path d="M9.96175 24.5785C10.463 24.4462 10.743 23.607 10.1722 23.323C9.36499 22.9218 8.7704 24.0689 9.51906 24.5047C8.99174 24.6218 8.71832 25.4675 9.33027 25.7732C10.0833 26.1484 10.6779 24.9731 9.96175 24.5785Z" fill="#D4D659"/>
<path d="M4.66901 22.8501C3.84222 22.4403 3.24112 23.6503 4.06574 24.0601C4.77317 24.4135 5.37644 23.2014 4.66901 22.8501Z" fill="#D4D659"/>
<path d="M3.53229 20.6993C2.7055 20.2894 2.10441 21.4994 2.92902 21.9092C3.63645 22.2626 4.23972 21.0527 3.53229 20.6993Z" fill="#D4D659"/>
<path d="M7.50919 16.5623C6.80175 16.211 6.19849 17.421 6.90592 17.7722C7.73053 18.1821 8.3338 16.9721 7.50919 16.5623Z" fill="#D4D659"/>
<path d="M19.1504 23.0323C18.3237 22.6224 17.7226 23.8324 18.5472 24.2422C19.2568 24.5935 19.86 23.3835 19.1504 23.0323Z" fill="#D4D659"/>
<path d="M19.3842 20.2029C18.6768 19.8516 18.0735 21.0616 18.7809 21.4129C19.6077 21.8248 20.211 20.6149 19.3842 20.2029Z" fill="#D4D659"/>
<path d="M15.6928 15.198C14.9853 14.8468 14.3821 16.0567 15.0895 16.408C15.9163 16.8178 16.5196 15.6079 15.6928 15.198Z" fill="#D4D659"/>
<path d="M18.001 12.0435C17.1743 11.6337 16.5732 12.8436 17.3978 13.2534C18.1052 13.6047 18.7085 12.3948 18.001 12.0435Z" fill="#D4D659"/>
<path d="M2.45157 25.8255C1.74414 25.4742 1.14087 26.6841 1.8483 27.0354C2.67508 27.4452 3.27618 26.2353 2.45157 25.8255Z" fill="#D4D659"/>
<path d="M2.31744 27.5708C1.49066 27.161 0.889561 28.371 1.71417 28.7808C2.42378 29.132 3.02488 27.9221 2.31744 27.5708Z" fill="#D4D659"/>
<path d="M3.45416 29.7198C2.62738 29.3099 2.02628 30.5199 2.85089 30.9297C3.56049 31.2831 4.16159 30.0732 3.45416 29.7198Z" fill="#D4D659"/>
<path d="M4.41217 32.2349C3.58539 31.8251 2.98429 33.035 3.8089 33.4448C4.51633 33.7961 5.1196 32.5862 4.41217 32.2349Z" fill="#D4D659"/>
<path d="M4.83307 34.9346C4.00629 34.5248 3.40519 35.7347 4.2298 36.1445C4.93723 36.498 5.5405 35.288 4.83307 34.9346Z" fill="#D4D659"/>
<path d="M13.016 37.4192C12.3086 37.068 11.7053 38.2779 12.4128 38.6292C13.2374 39.0411 13.8406 37.8312 13.016 37.4192Z" fill="#D4D659"/>
<path d="M14.8565 36.9751C14.0297 36.5653 13.4286 37.7752 14.2532 38.1851C14.9607 38.5385 15.5639 37.3286 14.8565 36.9751Z" fill="#D4D659"/>
<path d="M15.6378 38.9502C14.811 38.5404 14.2099 39.7504 15.0345 40.1602C15.7441 40.5136 16.3474 39.3037 15.6378 38.9502Z" fill="#D4D659"/>
<path d="M15.9698 21.4473C15.143 21.0375 14.5419 22.2474 15.3665 22.6572C16.074 23.0107 16.6772 21.8007 15.9698 21.4473Z" fill="#D4D659"/>
<path d="M22.5287 15.6556C21.8213 15.3043 21.218 16.5142 21.9254 16.8655C22.7522 17.2753 23.3555 16.0654 22.5287 15.6556Z" fill="#D4D659"/>
<path d="M6.45059 25.7752C5.74316 25.4239 5.13989 26.6338 5.84732 26.9851C6.67194 27.3949 7.27521 26.185 6.45059 25.7752Z" fill="#D4D659"/>
<path d="M6.38809 32.9915C5.68066 32.6402 5.07739 33.8502 5.78482 34.2014C6.61161 34.6112 7.21487 33.4013 6.38809 32.9915Z" fill="#D4D659"/>
<path d="M7.42715 36.2268C6.71972 35.8756 6.11645 37.0855 6.82388 37.4368C7.6485 37.8466 8.25177 36.6367 7.42715 36.2268Z" fill="#D4D659"/>
<path d="M3.52838 41.9859C2.7016 41.5761 2.1005 42.786 2.92511 43.1958C3.63254 43.5493 4.23581 42.3393 3.52838 41.9859Z" fill="#D4D659"/>
<path d="M4.94244 42.6905C4.11566 42.2806 3.51456 43.4906 4.33917 43.9004C5.04661 44.2517 5.64988 43.0417 4.94244 42.6905Z" fill="#D4D659"/>
<path d="M4.12213 45.2256C3.29535 44.8158 2.69425 46.0257 3.51886 46.4355C4.22846 46.789 4.83173 45.5791 4.12213 45.2256Z" fill="#D4D659"/>
<path d="M2.62637 46.7478C1.91894 46.3966 1.31567 47.6065 2.0231 47.9578C2.84989 48.3698 3.45099 47.1598 2.62637 46.7478Z" fill="#D4D659"/>
<path d="M4.26531 49.3733C3.91159 49.1977 3.71629 49.2931 3.54052 49.4536C3.56656 49.2194 3.45806 48.97 3.20416 48.8443C2.37738 48.4345 1.77628 49.6444 2.60089 50.0542C2.85479 50.18 3.11953 50.1193 3.28879 49.9545C3.26709 50.1908 3.30832 50.4055 3.66204 50.5811C4.36947 50.9345 4.97274 49.7246 4.26531 49.3733Z" fill="#D4D659"/>
<path d="M7.34024 46.1492C6.63281 45.7979 6.02954 47.0079 6.73697 47.3591C7.56376 47.769 8.16703 46.559 7.34024 46.1492Z" fill="#D4D659"/>
<path d="M9.55963 43.1743C8.73285 42.7645 8.13175 43.9745 8.95636 44.3843C9.66596 44.7377 10.2671 43.5278 9.55963 43.1743Z" fill="#D4D659"/>
<path d="M11.7113 44.471C11.0039 44.1197 10.4006 45.3297 11.1081 45.6809C11.9327 46.0929 12.5359 44.883 11.7113 44.471Z" fill="#D4D659"/>
<path d="M8.8334 48.4759C8.12597 48.1246 7.5227 49.3345 8.23013 49.6858C9.05692 50.0956 9.66018 48.8857 8.8334 48.4759Z" fill="#D4D659"/>
<path d="M6.72858 41.7671C5.90179 41.3573 5.30069 42.5672 6.12531 42.9771C6.83274 43.3283 7.43601 42.1184 6.72858 41.7671Z" fill="#D4D659"/>
<path d="M9.80508 38.5428C9.09765 38.1915 8.49438 39.4014 9.20181 39.7527C10.0286 40.1625 10.6319 38.9526 9.80508 38.5428Z" fill="#D4D659"/>
<path d="M3.37213 39.6441C2.54535 39.2343 1.94425 40.4442 2.76886 40.854C3.47629 41.2053 4.07956 39.9953 3.37213 39.6441Z" fill="#D4D659"/>
<path d="M6.46622 54.9983C5.75879 54.6471 5.15552 55.857 5.86295 56.2083C6.68973 56.6202 7.293 55.4103 6.46622 54.9983Z" fill="#D4D659"/>
<path d="M8.73599 56.3537C8.19999 56.0869 7.75731 56.5054 7.73995 56.9434C7.40142 57.221 7.30811 57.8346 7.81156 58.084C8.30199 58.3268 8.72514 57.9127 8.76203 57.4855C9.09622 57.2036 9.20689 56.5878 8.73599 56.3537Z" fill="#D4D659"/>
<path d="M10.1417 57.96C9.31488 57.5502 8.71378 58.7601 9.53839 59.1699C10.248 59.5212 10.8513 58.3113 10.1417 57.96Z" fill="#D4D659"/>
<path d="M3.43463 52.8106C2.60785 52.4008 2.00675 53.6107 2.83136 54.0205C3.53879 54.3739 4.14206 53.164 3.43463 52.8106Z" fill="#D4D659"/>
<path d="M11.0049 50.9131C10.1782 50.5033 9.57706 51.7132 10.4017 52.1231C11.1091 52.4765 11.7124 51.2666 11.0049 50.9131Z" fill="#D4D659"/>
<path d="M15.3295 26.5667C14.6221 26.2154 14.0188 27.4254 14.7262 27.7766C15.553 28.1886 16.1563 26.9787 15.3295 26.5667Z" fill="#D4D659"/>
</g>
<g clip-path="url(#clip1)">
<path d="M43.8601 95.0046C43.8601 95.0046 35.4782 85.2543 47.4126 80.9303C47.4126 80.9303 49.0342 70.2085 59.9818 72.6124C59.9818 72.6124 72.7418 64.927 77.9663 75.9151C77.9663 75.9151 90.5127 77.2792 85.8857 86.0822C85.8857 86.0822 91.0224 94.3561 79.238 95.5006C65.2332 96.8609 43.8601 95.0046 43.8601 95.0046Z" fill="#A4A53F"/>
<path d="M68.8698 80.5309C68.9334 80.536 69.0009 80.5181 69.0533 80.4728C69.0651 80.4619 69.1693 80.3687 69.3422 80.2136C69.5191 80.0566 69.7701 79.8459 70.0636 79.5785C70.2084 79.4419 70.3728 79.3098 70.5314 79.1419C70.6107 79.0595 70.6926 78.9746 70.7758 78.8885L70.8387 78.8234C70.8472 78.8138 70.8669 78.7953 70.8538 78.8068C70.8479 78.8106 70.8728 78.7902 70.8813 78.7831C70.9298 78.7423 70.9783 78.7008 71.0274 78.6587C71.2233 78.4787 71.393 78.2719 71.5457 78.0529C71.5843 78.1129 71.6354 78.1487 71.68 78.1353C71.6957 78.1301 71.9565 78.0414 72.3397 77.9112C72.7243 77.7784 73.2387 77.6042 73.7275 77.3705C74.2182 77.1427 74.6683 76.8382 74.9448 76.5586C75.2252 76.2816 75.3458 76.0562 75.3261 76.0428C75.298 76.0224 75.1328 76.2101 74.8354 76.436C74.5392 76.6646 74.097 76.9122 73.6141 77.0967C73.1338 77.2863 72.6248 77.428 72.2369 77.5391C72.0574 77.5908 71.906 77.6342 71.7913 77.6674C71.8398 77.585 71.889 77.502 71.9342 77.4191L72.115 77.0852C72.1714 76.9978 72.2559 76.8854 72.328 76.7897C72.4806 76.5918 72.6313 76.3965 72.7768 76.2082C73.0683 75.8303 73.3317 75.4684 73.5106 75.1364C73.6934 74.8064 73.7936 74.5122 73.8336 74.3053C73.8768 74.0979 73.8677 73.9785 73.8572 73.9779C73.8185 73.9721 73.7668 74.4445 73.3619 75.0579C73.1673 75.3662 72.8921 75.7045 72.5841 76.0665C72.4295 76.2497 72.269 76.4392 72.1065 76.632L71.9859 76.7814L71.9263 76.858L71.8962 76.8963C71.8877 76.9033 71.8582 76.9499 71.8556 76.9569L71.6636 77.2799C71.4081 77.7082 71.1257 78.1116 70.7869 78.4046L70.6579 78.508L70.6133 78.5438L70.5596 78.5955L70.4993 78.6542C70.4194 78.7327 70.3407 78.8093 70.2641 78.884C70.114 79.0353 69.9424 79.1661 69.7996 79.2938C69.506 79.5472 69.2453 79.7553 69.0651 79.9079C69.0579 79.9142 69.052 79.9187 69.0448 79.9251C69.0906 79.8479 69.0821 79.7534 69.0271 79.6813C69.0834 79.1483 69.1385 78.6223 69.1922 78.1129C69.2426 77.5429 69.2761 76.9927 69.3088 76.4699C69.3101 76.4724 69.3101 76.4743 69.3114 76.4763C69.3632 76.5797 69.4615 76.632 69.5309 76.5931C69.5434 76.5816 69.8454 76.4265 70.1566 76.0773C70.4672 75.7307 70.7522 75.2047 70.9068 74.6628C71.0706 74.1221 71.1388 73.5751 71.1689 73.1666C71.1977 72.7581 71.1932 72.4861 71.1637 72.4836C71.1322 72.481 71.0792 72.7491 70.9986 73.1474C70.9173 73.5451 70.8027 74.0736 70.612 74.5741C70.4292 75.0777 70.1422 75.5347 69.8631 75.8188C69.5984 76.0894 69.3599 76.2063 69.3252 76.2273C69.354 75.7716 69.3835 75.3375 69.4241 74.9354C69.4634 74.47 69.4995 74.0443 69.5309 73.6664C69.5899 73.2949 69.5866 72.9687 69.5794 72.6993C69.5545 72.1625 69.5532 71.8459 69.5349 71.8472C69.527 71.8472 69.5191 71.925 69.51 72.0719C69.4995 72.2199 69.4929 72.4338 69.4903 72.7025C69.4831 72.9706 69.4713 73.2923 69.4018 73.6472L69.3887 73.734L69.3802 73.8062C69.3743 73.8547 69.3691 73.9032 69.3632 73.953C69.3521 74.0526 69.3403 74.1547 69.3278 74.2594C69.3042 74.4707 69.2787 74.6922 69.2525 74.9239C69.1306 75.8711 69.0729 76.9358 68.9471 78.0957C68.8915 78.5451 68.8338 79.0085 68.7755 79.4776C68.7447 79.4547 68.7132 79.431 68.6759 79.4036C68.5062 79.2472 68.2546 79.0391 68.0096 78.7423C67.9427 78.6727 67.8805 78.5942 67.8222 78.5093C67.7612 78.4257 67.6983 78.3395 67.6335 78.2508C67.5149 78.0663 67.3924 77.8697 67.2797 77.6584C67.0543 77.2352 66.8571 76.7616 66.6769 76.2765C66.4725 75.7984 66.2825 75.3273 66.2287 74.8498C66.2183 74.7311 66.2032 74.6136 66.2084 74.4981C66.2045 74.3826 66.2124 74.269 66.2255 74.1585C66.2418 74.0487 66.2327 73.9364 66.2268 73.833C66.2209 73.7289 66.215 73.6281 66.2097 73.5311C66.1645 72.7612 66.1167 72.2404 66.0872 72.2397C66.0721 72.2397 66.061 72.37 66.0531 72.5991C66.0453 72.8283 66.042 73.1596 66.0374 73.5374C66.0368 73.6325 66.0361 73.7321 66.0348 73.8349C66.0348 73.8866 66.0341 73.9383 66.0341 73.9919V74.0245C66.0335 74.0289 66.0309 74.0455 66.0296 74.0526L66.0164 74.1394C65.9968 74.2555 65.9824 74.3756 65.9791 74.4994C65.968 74.6232 65.9771 74.749 65.9824 74.8773C66.0138 75.3892 66.2006 75.9113 66.3807 76.3831C66.5406 76.8714 66.726 77.3686 66.9468 77.8167C67.0569 78.0408 67.1794 78.2521 67.2987 78.4506C67.3642 78.547 67.4284 78.6402 67.49 78.7308C67.5496 78.8227 67.6132 78.9083 67.682 78.9855C67.9355 79.3104 68.1976 79.5415 68.3771 79.7138C68.5697 79.8696 68.691 79.957 68.7047 79.9691C68.5796 80.5321 68.442 81.099 68.269 81.6728C68.1825 81.976 68.096 82.2799 68.0096 82.5824C67.9663 82.7343 67.9231 82.8856 67.8798 83.0369C67.8431 83.1901 67.8071 83.3433 67.7711 83.4952C67.6335 84.1112 67.4671 84.6889 67.3157 85.2582C67.2541 85.4753 67.1997 85.6891 67.1381 85.9004C67.1375 85.8991 67.1368 85.8978 67.1362 85.8959C67.1001 85.8053 67.068 85.7012 67.0287 85.5895C66.8597 85.1453 66.711 84.5344 66.593 83.9159C66.3709 82.6743 66.3775 81.3983 66.3093 81.399C66.2811 81.399 66.2418 81.7162 66.2202 82.1969C66.2025 82.6769 66.2097 83.3203 66.2825 83.9612C66.3624 84.6008 66.483 85.2397 66.6363 85.7083C66.6716 85.8257 66.7005 85.9355 66.7332 86.0313C66.768 86.1257 66.7988 86.2093 66.825 86.2783C66.8767 86.4168 66.9075 86.5004 66.9108 86.5094C66.9154 86.5221 66.9259 86.5317 66.9357 86.5413C66.8977 86.6574 66.859 86.7768 66.8217 86.8904C66.7372 87.1496 66.6546 87.4017 66.5753 87.6468C66.4725 87.8792 66.3729 88.1045 66.2772 88.3209C66.2294 88.4288 66.1822 88.5354 66.1364 88.6388C66.0879 88.7422 66.0315 88.8418 65.9811 88.9401C65.8782 89.136 65.7806 89.3224 65.6889 89.498C65.5034 89.8522 65.3403 90.1637 65.204 90.4235C65.1418 90.5416 65.0867 90.6482 65.0363 90.744C65.092 89.1922 65.1627 87.3615 65.204 85.5321C65.204 85.2448 65.204 84.9576 65.204 84.6716C65.1857 84.3869 65.1673 84.1035 65.1496 83.8227C65.1405 83.6822 65.1313 83.5424 65.1215 83.4033C65.1038 83.2654 65.0861 83.1282 65.0684 82.9916C65.0323 82.719 64.9963 82.4503 64.9609 82.1854C64.9177 81.9224 64.86 81.6664 64.8115 81.4143C64.7631 81.1902 64.7264 80.9694 64.6726 80.7575C64.6753 80.7555 64.6785 80.7549 64.6805 80.753C64.7749 80.6764 64.788 80.5404 64.7093 80.4498C64.7067 80.4466 64.6956 80.4345 64.6805 80.4172C64.7578 80.3872 64.8155 80.3221 64.8214 80.2455C64.8227 80.2187 64.8437 79.7751 64.8744 79.1234C64.898 78.4736 64.9544 77.6023 64.9668 76.7418C64.955 76.5254 64.9432 76.309 64.9314 76.0965L64.9223 75.9382L64.8961 75.7837C64.8784 75.6816 64.8613 75.5807 64.8443 75.4818C64.788 75.0834 64.6818 74.7254 64.6025 74.417C64.4309 73.803 64.29 73.4021 64.2625 73.4091C64.2297 73.4168 64.3143 73.8336 64.4335 74.456C64.4866 74.7668 64.5672 75.1281 64.5986 75.5188C64.6097 75.6158 64.6209 75.7154 64.632 75.8156L64.6497 75.9669L64.6504 76.1207C64.6517 76.3263 64.653 76.535 64.6543 76.7444C64.5632 77.9016 64.4722 79.0627 64.4211 79.7132C64.3922 79.5887 64.3647 79.4655 64.3365 79.3468C64.1505 78.5182 63.9624 77.8365 63.7796 77.3801C63.6977 77.1484 63.608 76.9773 63.5496 76.8599C63.4907 76.7431 63.4566 76.6824 63.4494 76.685C63.4422 76.6882 63.4632 76.7552 63.5077 76.8771C63.5516 76.9997 63.627 77.1746 63.6944 77.4088C63.8484 77.8703 64.0076 78.5502 64.1668 79.3838C64.2048 79.5747 64.2441 79.7745 64.2854 79.9806C64.1642 79.844 64.0247 79.6832 63.87 79.4987C63.3996 78.9357 62.8093 78.1672 62.3434 77.3291C62.1036 76.9135 61.913 76.4743 61.7511 76.0562C61.6804 75.8437 61.6024 75.6407 61.5552 75.4403C61.5284 75.3407 61.5028 75.2437 61.4779 75.1505C61.4589 75.0554 61.4406 74.9634 61.4229 74.8747C61.2886 74.1655 61.2997 73.6728 61.2597 73.6734C61.2447 73.6734 61.2302 73.7953 61.2171 74.0111C61.2145 74.0653 61.2112 74.1247 61.2073 74.1898C61.2093 74.2549 61.2119 74.3245 61.2145 74.3998C61.2204 74.5498 61.2237 74.7196 61.2519 74.9022C61.2637 74.9934 61.2761 75.0892 61.2886 75.1881C61.3056 75.2858 61.3279 75.386 61.3488 75.4901C61.3855 75.6988 61.453 75.9113 61.5146 76.1335C61.6581 76.5707 61.8337 77.0316 62.0617 77.4676C62.5039 78.3472 63.0805 79.1521 63.5411 79.7387C64.0037 80.3253 64.3464 80.7013 64.3647 80.7255C64.3909 80.7555 64.425 80.7741 64.4604 80.7868C64.5115 81.007 64.5416 81.2317 64.5862 81.4615C64.6281 81.7111 64.6792 81.9645 64.7159 82.2256C64.7454 82.4879 64.7749 82.7548 64.805 83.0248C64.8194 83.1601 64.8345 83.2961 64.8489 83.4327C64.8554 83.5699 64.862 83.7084 64.8679 83.8469C64.8803 84.1246 64.8928 84.4042 64.9059 84.6857C64.9007 84.9678 64.8954 85.2506 64.8902 85.534C64.8653 86.06 64.8397 86.5866 64.8148 87.1062C64.7637 87.0379 64.689 86.9415 64.5907 86.8253C64.4977 86.7162 64.385 86.5866 64.2677 86.4385C64.2101 86.3645 64.1478 86.2853 64.0941 86.1991L64.0509 86.134C64.0135 86.0779 64.007 86.0721 63.988 86.0447C63.9545 85.9987 63.9205 85.9515 63.8858 85.903C63.7475 85.7083 63.5896 85.5027 63.4343 85.271C63.3609 85.1517 63.2843 85.0291 63.2063 84.9027C63.167 84.8395 63.1277 84.7757 63.0877 84.7106L63.0274 84.6129L62.9967 84.5638C62.9901 84.5523 62.9783 84.5325 62.9685 84.5229L62.9482 84.4987C62.5459 84.004 62.0781 83.4952 61.624 82.9463C61.5126 82.8077 61.4006 82.6673 61.2879 82.5262C61.1818 82.3813 61.0743 82.2352 60.9669 82.0884C60.8692 81.9358 60.767 81.7845 60.6714 81.6294L60.5397 81.3907C60.5017 81.3128 60.4368 81.226 60.4257 81.1622C60.2343 80.4479 59.9906 79.7406 59.6683 79.108C58.941 77.8774 58.922 76.5337 58.5911 75.6611L58.5905 75.6592C58.5269 75.4371 58.4692 75.2354 58.4188 75.0586C58.3664 74.8811 58.3395 74.7209 58.3068 74.5926C58.2779 74.3277 58.2609 74.1764 58.2484 74.1764C58.2373 74.1758 58.2294 74.3277 58.236 74.6034C58.2576 74.7349 58.274 74.9022 58.3159 75.0841C58.3566 75.2628 58.4031 75.4658 58.4542 75.6905L58.4575 75.7026C58.5099 75.926 58.5675 76.1711 58.6291 76.4341C58.6927 76.6958 58.7254 76.9863 58.7798 77.2856C58.8041 77.435 58.8407 77.6029 58.8722 77.7657C58.901 77.9323 58.9705 78.0874 59.0196 78.2527C59.1356 78.5757 59.2797 78.8961 59.4291 79.2172C59.6722 79.7272 59.8602 80.2749 60.0162 80.8436C59.7285 80.6183 59.2601 80.25 58.7916 79.883C58.4142 79.5836 58.0067 79.3525 57.7656 79.0921C57.5225 78.8368 57.4163 78.6159 57.3797 78.6319C57.3652 78.6376 57.379 78.697 57.415 78.7985C57.4458 78.9019 57.5212 79.0385 57.626 79.1936C57.8422 79.5076 58.2484 79.7974 58.5708 80.1019C58.9305 80.4421 59.2561 80.7243 59.5326 80.9732C59.8052 81.2145 59.9913 81.3792 60.0024 81.3888C60.0352 81.4175 60.0981 81.4028 60.161 81.3575L60.1865 81.4066L60.2527 81.533L60.385 81.7852C60.4807 81.9486 60.5829 82.1069 60.6812 82.2671C60.7886 82.4203 60.8961 82.5728 61.0022 82.7241C61.1149 82.8703 61.2263 83.0152 61.337 83.1588C61.7878 83.725 62.2458 84.2414 62.6311 84.731L62.6501 84.7546L62.6802 84.805L62.7398 84.9053C62.7791 84.9716 62.8184 85.0374 62.8571 85.1019C62.9344 85.2314 63.0091 85.3572 63.0825 85.4791C63.2384 85.7191 63.4003 85.9381 63.5405 86.1423C63.5758 86.1934 63.6112 86.2425 63.6453 86.291C63.6591 86.3108 63.6885 86.353 63.68 86.3408L63.7285 86.4168C63.7908 86.5189 63.8563 86.6057 63.9185 86.6874C64.0437 86.8496 64.1544 86.9804 64.2441 87.0889C64.4217 87.3047 64.5062 87.4336 64.5193 87.4515C64.6006 87.5734 64.6962 87.6647 64.7886 87.696C64.6091 91.4608 64.4525 94.7456 64.4466 94.8649C64.4328 95.1496 64.5206 95.3807 64.6432 95.382C64.765 95.3833 64.8751 95.1535 64.8889 94.8688C64.8915 94.7979 64.9347 93.6087 64.9983 91.8648C64.9996 91.8323 65.0002 91.7985 65.0016 91.7659C65.069 91.6868 65.1359 91.5821 65.1896 91.4608C65.1975 91.4429 65.2355 91.3555 65.2997 91.2067C65.3318 91.1327 65.3711 91.0427 65.4156 90.9393C65.4681 90.8372 65.5277 90.7203 65.5939 90.5914C65.7262 90.3322 65.8854 90.0207 66.0662 89.6665C66.1573 89.4878 66.2536 89.2988 66.3552 89.0997C66.405 88.9994 66.46 88.8999 66.5092 88.7926C66.5557 88.6841 66.6035 88.573 66.6526 88.4594C66.7496 88.2328 66.8499 87.9973 66.954 87.7541C67.0314 87.5064 67.1113 87.2511 67.1938 86.9887C67.2757 86.7264 67.3603 86.4577 67.4461 86.1825C67.5359 85.9093 67.5955 85.6202 67.6734 85.3323C67.8189 84.754 67.9814 84.1565 68.1059 83.5565C68.1393 83.4058 68.1727 83.2552 68.2061 83.1033C68.2467 82.9526 68.2874 82.802 68.328 82.6507C68.4092 82.3475 68.4911 82.0437 68.573 81.7398C68.6824 81.3409 68.7807 80.9356 68.8698 80.5309Z" fill="#4F1900"/>
<path d="M75.6384 89.6086C75.6541 89.6066 75.6685 89.6054 75.6849 89.6009C75.7124 89.6009 75.7386 89.5945 75.7615 89.5798C75.7681 89.5754 75.7714 89.5683 75.7766 89.5639C75.8179 89.5415 75.8592 89.5135 75.8965 89.4771C75.9116 89.4586 76.0688 89.3124 76.3394 89.0743C76.6133 88.8375 77.0156 88.5228 77.484 88.1168C77.6013 88.0153 77.7212 87.9081 77.8398 87.7894C77.9623 87.6757 78.0809 87.55 78.1989 87.4159C78.3129 87.2889 78.4295 87.1587 78.5481 87.0259C78.6713 86.9015 78.7984 86.7751 78.9406 86.6583C79.4077 86.2568 79.9876 85.9101 80.5268 85.4972C80.5792 85.5323 80.6388 85.5457 80.688 85.5227C80.6978 85.5176 80.7849 85.4729 80.9304 85.3989C81.0031 85.3618 81.0903 85.3165 81.1892 85.2654C81.2921 85.2182 81.4067 85.1652 81.5319 85.1078C82.0298 84.8729 82.7027 84.5882 83.373 84.2939C84.055 84.0009 84.6552 83.565 85.0404 83.1922C85.4309 82.822 85.6648 82.5519 85.6458 82.5328C85.6242 82.5098 85.3477 82.7428 84.9304 83.0696C84.5156 83.4003 83.9273 83.7731 83.2609 84.0201C82.5834 84.2767 81.8942 84.5346 81.3785 84.7541C81.3766 84.7548 81.3746 84.7561 81.3726 84.7567C81.7664 84.3597 82.1104 83.9314 82.4157 83.5158C82.6313 83.2158 82.8396 82.9254 83.0368 82.6502C83.1351 82.5124 83.236 82.3834 83.3238 82.2487C83.3979 82.1096 83.4693 81.9749 83.5374 81.8453C83.8093 81.3277 83.9947 80.8796 84.0897 80.561C84.1369 80.4015 84.1664 80.2751 84.1756 80.1883C84.1887 80.1021 84.192 80.0555 84.1847 80.0548C84.1775 80.0536 84.1592 80.0976 84.1317 80.18C84.1081 80.2629 84.0648 80.3836 84.0052 80.5361C83.8847 80.8413 83.6789 81.2702 83.3861 81.7726C83.3127 81.8983 83.236 82.0298 83.1561 82.1651C83.1384 82.1939 83.1554 82.1683 83.1377 82.1926L83.0997 82.2404L83.0231 82.3375C82.972 82.4026 82.9196 82.469 82.8671 82.536C82.6608 82.8041 82.4432 83.0875 82.2178 83.3798C81.7651 83.9575 81.2567 84.5473 80.6388 85.0235C80.0341 85.5189 79.3166 85.8961 78.7066 86.3959C78.5533 86.5172 78.4112 86.6519 78.2762 86.7834C78.151 86.918 78.0279 87.0495 77.908 87.1778C77.7966 87.3004 77.6832 87.4166 77.564 87.5225C77.4506 87.633 77.3327 87.7338 77.218 87.8302C76.9402 88.0626 76.6841 88.2655 76.458 88.4449L76.5976 88.226L76.7201 88.0332L76.8289 87.834C77.5044 86.6614 78.0076 85.4295 78.3961 84.2735C78.4695 84.3188 78.5514 84.3271 78.5992 84.2856C78.613 84.2716 78.8613 84.0431 79.2439 83.7105C79.6239 83.376 80.135 82.9369 80.6015 82.4568C81.0673 81.9787 81.4886 81.454 81.6852 81.0085C81.8942 80.5649 81.8719 80.2502 81.8503 80.2527C81.811 80.2495 81.7749 80.5425 81.5332 80.9364C81.3038 81.334 80.8668 81.8089 80.3866 82.2487C79.9057 82.6898 79.3822 83.1003 78.9871 83.4188C78.818 83.5535 78.6739 83.6716 78.5612 83.7648C78.7925 83.0294 78.9792 82.3336 79.1358 81.7164C79.2609 81.2913 79.3337 80.8936 79.4169 80.5451C79.4962 80.1946 79.5656 79.8895 79.6226 79.638C79.6901 79.3878 79.7432 79.1906 79.7792 79.0559C79.8133 78.9206 79.8283 78.8471 79.8205 78.8452C79.8133 78.8433 79.7844 78.9123 79.736 79.0437C79.6894 79.1765 79.622 79.3712 79.5361 79.6189C79.4634 79.8678 79.3828 80.1723 79.2885 80.5208C79.1921 80.8655 79.1063 81.2606 78.9694 81.68C78.839 82.1 78.704 82.5609 78.5612 83.0479C78.4885 83.2911 78.4007 83.535 78.3181 83.7877C78.2382 84.0411 78.1425 84.2952 78.0423 84.5537C77.6518 85.5872 77.1728 86.6761 76.5576 87.6968L76.4475 87.8908L76.3243 88.0772L76.0787 88.45C75.9948 88.5726 75.9207 88.7015 75.8284 88.8183C75.7956 88.8605 75.7635 88.9026 75.7307 88.9447C75.7124 88.8841 75.694 88.8145 75.6757 88.7328C75.6036 88.4309 75.5558 87.9885 75.4628 87.4453C75.4038 87.181 75.3409 86.8957 75.2734 86.5944C75.2105 86.3251 75.145 86.0442 75.0847 85.7557C75.1705 85.7672 75.257 85.7352 75.299 85.6689C75.3055 85.658 75.3645 85.5591 75.4628 85.3944C75.5617 85.2297 75.6901 84.9967 75.8775 84.7254C76.2444 84.1829 76.6913 83.4526 77.1499 82.73C77.5371 81.9385 77.7651 81.1374 77.8628 80.5176C77.9617 79.901 77.9289 79.4931 77.9047 79.4938C77.868 79.4938 77.8418 79.8965 77.6937 80.4895C77.6249 80.787 77.5135 81.1285 77.3812 81.4911C77.3091 81.6704 77.2383 81.8568 77.1512 82.0419C77.1099 82.1351 77.0687 82.229 77.0202 82.3209L76.9507 82.46L76.916 82.5296C76.8983 82.5647 76.9114 82.5411 76.8885 82.5756C76.3977 83.2771 75.9207 83.9952 75.5388 84.5212C75.3461 84.781 75.2013 85.0235 75.0939 85.1908C75.0592 85.2457 75.031 85.2903 75.0054 85.3306C74.9701 85.1129 74.9406 84.8907 74.9275 84.6648C74.9111 84.3233 74.9176 83.9684 74.9157 83.6141C74.9111 82.2009 75.1837 80.7947 75.5021 79.7689C75.8238 78.7425 76.1376 78.0856 76.0996 78.071C76.0859 78.0652 75.9981 78.2248 75.8546 78.5101C75.7825 78.6525 75.6947 78.8254 75.6128 79.0316C75.5316 79.2378 75.4208 79.4644 75.3383 79.7236C74.9648 80.7461 74.6379 82.1773 74.6025 83.6135C74.5946 83.9697 74.5776 84.3271 74.5855 84.6884C74.5972 85.0497 74.6464 85.3989 74.7014 85.7327C74.761 86.0646 74.8279 86.3831 74.8908 86.6806C74.9504 86.9781 75.0067 87.2596 75.0592 87.5206C75.1365 88.037 75.1778 88.4992 75.2492 88.8285C75.3075 89.1222 75.3868 89.3105 75.4051 89.3647C75.2747 89.5326 75.143 89.7005 75.0061 89.8696C74.82 90.102 74.6444 90.3343 74.4695 90.5603C74.1216 91.0148 73.7841 91.4476 73.4356 91.8318C73.2659 92.0284 73.0844 92.2033 72.9114 92.3757C72.7326 92.5455 72.5458 92.6891 72.3781 92.8551C71.0382 94.1604 70.1242 95.0502 70.0692 95.1038C69.853 95.3145 69.7442 95.5532 69.8261 95.6362C69.908 95.7192 70.153 95.6132 70.3725 95.3994C70.4263 95.3458 71.3265 94.4508 72.6461 93.1378C72.8079 92.9731 73.0058 92.8161 73.1873 92.6393C73.3661 92.4567 73.5542 92.2716 73.7271 92.0661C74.0829 91.6633 74.421 91.2178 74.7624 90.7588C75.0493 90.3841 75.3422 89.9986 75.6384 89.6086Z" fill="#4F1900"/>
<path d="M84.765 90.5283C84.5769 90.6496 84.3397 90.7683 84.0829 90.8902C83.8215 91.0051 83.5378 91.1194 83.2456 91.2189C82.7895 91.3766 82.3211 91.5113 81.9175 91.6262C81.9581 91.5949 81.9994 91.5643 82.0387 91.5324C82.1907 91.3983 82.3388 91.2732 82.4895 91.1532C83.0949 90.6732 83.6799 90.2429 84.136 89.8274C84.5959 89.417 84.9261 89.0263 85.1135 88.7327C85.2039 88.584 85.2714 88.4665 85.3042 88.381C85.3409 88.2974 85.3566 88.2514 85.35 88.2488C85.3317 88.2412 85.2452 88.4142 85.0401 88.6874C84.8337 88.9593 84.493 89.3225 84.0239 89.7074C83.5587 90.098 82.9671 90.5034 82.3388 90.9719C82.2595 91.0332 82.1796 91.0945 82.099 91.157C82.0249 91.2177 81.9502 91.2789 81.8749 91.3409C81.7229 91.4583 81.5669 91.5694 81.3966 91.667C81.242 91.759 81.0788 91.8426 80.9117 91.9204C80.8456 91.9409 80.8036 91.9543 80.7977 91.9562C80.7768 91.9626 80.7604 91.9766 80.7466 91.9939C80.6025 92.057 80.4557 92.1171 80.3063 92.1732C79.5227 92.4464 78.7358 92.7509 77.9974 93.0222C77.8127 93.0911 77.6312 93.1588 77.453 93.2252L77.32 93.275L77.2872 93.2871C77.2702 93.2928 77.2466 93.3018 77.2276 93.3152L77.1536 93.3592C77.0789 93.4039 77.0048 93.4479 76.9321 93.4914C76.6294 93.656 76.3208 93.7875 76.026 93.9158C75.7331 94.0339 75.4474 94.1929 75.2247 94.3275C74.9999 94.4654 74.8086 94.5886 74.6494 94.6812C74.5642 94.7329 74.4882 94.775 74.422 94.8095C74.4666 94.7265 74.5393 94.6052 74.6533 94.4533C74.8623 94.1744 75.2214 93.8118 75.6912 93.4116C75.9303 93.2118 76.1884 92.996 76.461 92.7688C76.5292 92.7101 76.5986 92.6513 76.6687 92.5913L76.7729 92.4975L76.8253 92.4503C76.8312 92.4439 76.8509 92.4305 76.8613 92.4151L76.8862 92.3851C77.0035 92.2422 77.1234 92.0966 77.2453 91.9485C77.4884 91.6543 77.7393 91.3511 77.9942 91.0428C78.1272 90.8953 78.2615 90.7466 78.3965 90.5972L78.5996 90.3732L78.821 90.167C78.9678 90.0336 79.1191 89.8849 79.2626 89.7629C79.4317 89.6499 79.6 89.537 79.7671 89.4253C80.1032 89.2031 80.4459 89.0014 80.7761 88.8029C81.4451 88.4199 82.0492 88.0305 82.6067 87.765C83.1604 87.4937 83.6184 87.2607 83.9139 87.066C83.9872 87.0169 84.0528 86.9728 84.1098 86.9345C84.1628 86.8918 84.208 86.856 84.2447 86.826C84.3168 86.7667 84.3528 86.7322 84.3482 86.7265C84.3437 86.7207 84.2984 86.7437 84.2185 86.7916C84.1792 86.8158 84.1307 86.8458 84.0737 86.8816C84.0141 86.9141 83.946 86.9518 83.87 86.9939C83.564 87.1631 83.104 87.368 82.5366 87.6182C81.9548 87.8678 81.3383 88.2374 80.6569 88.6018C80.3195 88.7921 79.9676 88.9861 79.6197 89.2031C79.4461 89.3129 79.2718 89.424 79.0962 89.5351C79.03 89.5759 79.0064 89.6097 78.9632 89.6442L78.8453 89.7483L78.6094 89.957L78.3742 90.1663L78.1606 90.391C78.0191 90.541 77.8782 90.6904 77.738 90.8391C77.4753 91.1436 77.2164 91.4436 76.9655 91.7347C76.8417 91.8796 76.7192 92.0219 76.5999 92.1617L76.5816 92.1834L76.5717 92.1917L76.5213 92.2358L76.4204 92.3226C76.3509 92.3794 76.2828 92.4362 76.2153 92.4917C75.9375 92.7152 75.6748 92.9271 75.431 93.1237C74.9429 93.5252 74.5531 93.9024 74.3107 94.2146C74.0676 94.5261 73.9654 94.7552 73.9582 94.782C73.9365 94.8337 73.9228 94.8854 73.9156 94.9333C73.9103 94.9805 73.9182 95.0259 73.928 95.0635C73.9228 95.0686 73.9149 95.0718 73.9097 95.0769C73.8586 95.128 73.8258 95.1899 73.833 95.2474C73.8402 95.3048 73.8887 95.3469 73.97 95.3667C74.0505 95.3872 74.1659 95.3859 74.2687 95.3393C74.2956 95.3303 74.5374 95.2378 74.8689 95.0297C75.0379 94.9282 75.2286 94.8012 75.4448 94.6639C75.6649 94.5273 75.8923 94.3927 76.1871 94.2669C76.4735 94.1361 76.7945 93.9943 77.1201 93.8099C77.2001 93.7601 77.2813 93.7097 77.3632 93.6586L77.394 93.6394L77.4091 93.6299L77.4143 93.6267C77.4163 93.6254 77.4169 93.6248 77.4222 93.6228L77.4549 93.6101L77.5866 93.5584C77.7629 93.4888 77.9431 93.4179 78.1259 93.3458C78.859 93.0605 79.6302 92.7439 80.4151 92.4503C80.5383 92.4011 80.6608 92.3481 80.782 92.2932C80.824 92.3437 80.8777 92.3711 80.9262 92.3558C80.9445 92.35 81.2472 92.2402 81.7019 92.0896C82.1553 91.9364 82.7614 91.7404 83.3484 91.4972C83.6426 91.3772 83.9289 91.2394 84.1897 91.1002C84.4472 90.9534 84.6811 90.8091 84.8626 90.6623C85.2321 90.3751 85.411 90.1287 85.3926 90.114C85.3645 90.0898 85.1476 90.2934 84.765 90.5283ZM77.4097 93.6273C77.4104 93.6267 77.411 93.6267 77.4117 93.626C77.4097 93.6273 77.4078 93.6286 77.4097 93.6273Z" fill="#4F1900"/>
<path d="M72.1459 88.4448C72.4178 88.0331 72.6537 87.6067 72.8797 87.2129C73.0606 86.7967 73.2427 86.4169 73.3325 86.0703C73.3823 85.8992 73.4399 85.7454 73.4668 85.6043C73.4904 85.4632 73.5107 85.34 73.5271 85.2385C73.5579 85.0362 73.5683 84.9213 73.5533 84.92C73.5382 84.9181 73.4982 85.0298 73.4399 85.2239C73.4124 85.3215 73.3783 85.4396 73.3403 85.5749C73.301 85.7103 73.2309 85.8577 73.17 86.0211C73.0586 86.3531 72.8568 86.715 72.6615 87.1101C72.4198 87.4873 72.1702 87.894 71.8937 88.2789C71.3099 89.0302 70.5944 89.7247 70.1181 90.3176C70.1174 90.3183 70.1168 90.3196 70.1161 90.3202C70.3481 89.4904 70.5512 88.6089 70.715 87.721C70.8781 86.7731 71.0596 85.8354 71.2227 84.9539C71.3027 84.5128 71.38 84.0864 71.4527 83.6823C71.5281 83.2789 71.5687 82.8934 71.6218 82.5404C71.7377 81.8344 71.7548 81.242 71.7783 80.829C71.7993 80.4161 71.8046 80.1812 71.7895 80.1812C71.7744 80.1812 71.739 80.4154 71.6892 80.8252C71.6368 81.235 71.5929 81.821 71.4514 82.5212C71.3859 82.8717 71.3328 83.2515 71.245 83.653C71.1605 84.0545 71.072 84.4777 70.9797 84.9162C70.9279 85.16 70.8748 85.4103 70.8211 85.6624C70.7811 85.5909 70.7379 85.5003 70.6933 85.3924C70.5695 85.086 70.4548 84.6462 70.392 84.2006C70.3579 83.9791 70.3566 83.7545 70.3487 83.5368C70.3389 83.3223 70.3297 83.1225 70.3218 82.9502C70.3015 82.6068 70.2766 82.3789 70.2458 82.3789C70.215 82.3789 70.1823 82.6061 70.1495 82.9489C70.1358 83.1206 70.1194 83.3204 70.1017 83.5349C70.0945 83.6428 70.0866 83.7538 70.0788 83.8674C70.0716 83.9906 70.0748 84.1094 70.0794 84.2287C70.1043 84.7036 70.1895 85.169 70.3035 85.52C70.4116 85.8718 70.582 86.1035 70.5951 86.1169C70.6219 86.1488 70.6691 86.1533 70.7202 86.1379C70.6134 86.6441 70.5066 87.1593 70.4077 87.6737C70.3166 88.1435 70.1928 88.6057 70.0893 89.0659C69.9752 89.5236 69.8377 89.9685 69.7184 90.4032C69.6136 90.7402 69.4996 91.0619 69.3915 91.376C69.3816 91.3932 69.3757 91.4047 69.3738 91.4085C69.3567 91.4398 69.3495 91.4717 69.3482 91.503C69.3325 91.5483 69.3161 91.5956 69.3011 91.6402C69.1635 92.0315 69.0141 92.3884 68.8529 92.7171C68.6924 93.0465 68.5338 93.3477 68.3956 93.6222C68.3608 93.6905 68.3268 93.7563 68.294 93.8207C68.2914 93.831 68.2645 93.8667 68.2593 93.8999L68.2436 93.9605C68.235 93.9937 68.2265 94.0263 68.2187 94.0576C68.1859 94.1839 68.1564 94.3001 68.1263 94.4029C68.0129 94.8191 67.895 95.0329 67.8852 95.0597C67.7882 95.2531 67.7535 95.4382 67.8465 95.5155C67.9337 95.5902 68.1623 95.4708 68.2835 95.2295C68.2953 95.2008 68.4323 94.9352 68.545 94.4974C68.5758 94.3882 68.6039 94.2688 68.6354 94.1405C68.6518 94.0825 68.6668 93.9912 68.6773 93.9835C68.7088 93.9197 68.7415 93.8539 68.7749 93.7856C68.9079 93.5137 69.0639 93.2073 69.2224 92.8684C69.3902 92.4975 69.5494 92.0883 69.7007 91.6556C69.7289 91.6364 69.7538 91.6134 69.7702 91.5834C69.7767 91.5707 69.835 91.4583 69.9313 91.2713C70.0558 91.0945 70.2039 90.8341 70.4378 90.5487C70.8761 89.9634 71.568 89.2497 72.1459 88.4448Z" fill="#4F1900"/>
<path d="M61.7406 93.6605C61.5991 93.4013 61.4281 93.0911 61.2132 92.7521C61.0048 92.4074 60.767 92.0283 60.5055 91.6197C59.9925 90.8021 59.5155 89.7903 58.9809 88.7096C58.844 88.4409 58.7051 88.1677 58.5649 87.8913C58.4115 87.62 58.2707 87.3398 58.1036 87.0698C57.7924 86.5189 57.3835 86.0025 57.0428 85.4715C56.8659 85.2072 56.689 84.9429 56.5121 84.6799C56.3588 84.4036 56.2062 84.1278 56.0548 83.8546C55.8281 83.4774 55.6519 83.0816 55.4789 82.6929C55.5228 82.6756 55.5627 82.6469 55.589 82.6022C55.5988 82.5907 55.6564 82.4701 55.7246 82.2684C55.794 82.0654 55.8412 81.7788 55.8622 81.4494C55.8733 81.2841 55.8759 81.1092 55.8786 80.926C55.8799 80.8883 55.8759 80.9209 55.8818 80.8826L55.893 80.8117C55.9002 80.7645 55.9074 80.716 55.9152 80.6675C55.9283 80.5704 55.9493 80.4715 55.9552 80.3707C55.9991 79.966 56.0044 79.5421 56.0089 79.1195C56.0089 79.1106 56.0096 79.1004 56.0076 79.0915L56.0037 79.0634L55.9978 79.0251L55.986 78.9491L55.9624 78.7972C55.9441 78.6963 55.9362 78.5929 55.9264 78.4908C55.9067 78.2859 55.8871 78.0842 55.8687 77.8889C55.8504 77.6935 55.8176 77.5046 55.794 77.3271C55.7534 77.1503 55.6977 76.9901 55.6348 76.8471C55.5103 76.5618 55.4022 76.3218 55.3603 76.1367C55.3118 75.9541 55.3112 75.8392 55.2902 75.8399C55.2804 75.838 55.2509 75.9554 55.2718 76.1526C55.2863 76.3512 55.3741 76.6167 55.471 76.9046C55.5208 77.0508 55.5595 77.202 55.5844 77.3616C55.5949 77.5372 55.6145 77.7159 55.6211 77.9112C55.6289 78.1072 55.6368 78.3102 55.6446 78.5163C55.6492 78.621 55.6519 78.7251 55.6656 78.8342L55.6951 79.1208C55.6709 79.537 55.6473 79.9557 55.5903 80.3381C55.5811 80.4351 55.5575 80.5277 55.5411 80.6196C55.5326 80.6656 55.5234 80.7109 55.5149 80.7556L55.5025 80.8226C55.4998 80.8251 55.4861 80.9202 55.4894 80.9241C55.4795 81.106 55.471 81.2764 55.4553 81.4303C55.4271 81.8094 55.3419 82.0852 55.2764 82.2492C55.2699 82.2352 55.2633 82.2205 55.2568 82.2065C55.1238 81.9396 55.0425 81.6581 54.9397 81.3913C54.842 81.1226 54.7464 80.8596 54.6533 80.6036C54.5806 80.3419 54.5249 80.0821 54.4627 79.8338C54.4004 79.5849 54.3408 79.3442 54.3107 79.1081C54.2727 78.8725 54.2366 78.6472 54.2026 78.4327C54.1868 78.3236 54.1639 78.2246 54.156 78.1155C54.1534 78.0127 54.1508 77.9125 54.1488 77.8161C54.1377 77.4293 54.1279 77.0916 54.12 76.8139C54.1082 76.535 54.0997 76.3154 54.0931 76.1654C54.0846 76.0154 54.0768 75.9356 54.0689 75.9356C54.061 75.9356 54.0545 76.0154 54.0479 76.166C54.044 76.3167 54.0381 76.5375 54.0309 76.8184C54.027 77.0954 54.0224 77.4318 54.0171 77.818C54.0165 77.9138 54.0152 78.0133 54.0145 78.1155C54.0152 78.1212 54.0132 78.164 54.0158 78.1736L54.0211 78.2131L54.0309 78.2923C54.0375 78.3453 54.0447 78.3989 54.0519 78.4538C54.08 78.6714 54.1102 78.9006 54.1416 79.14C54.1652 79.3806 54.2196 79.6257 54.2759 79.8785C54.3323 80.1313 54.3827 80.3955 54.4502 80.663C54.5387 80.9241 54.6297 81.1922 54.7221 81.4666C54.8204 81.7386 54.8977 82.0271 55.0261 82.299C55.2718 82.8473 55.4848 83.4333 55.8025 83.9835C55.9513 84.2631 56.1013 84.5453 56.252 84.828C56.427 85.0987 56.6025 85.37 56.7781 85.6419C56.8096 85.6923 56.8417 85.7402 56.8738 85.7893C56.6425 85.6393 56.3549 85.4657 56.0175 85.2863C55.4802 84.9902 54.8198 84.6844 54.1305 84.3461C54.1285 84.327 54.1285 84.3078 54.1213 84.2887C54.118 84.2727 54.0584 84.1489 53.9497 83.9561C53.8402 83.7633 53.6653 83.5188 53.4884 83.2278C53.3986 83.0822 53.3174 82.9233 53.2512 82.7503C53.1864 82.5671 53.1189 82.3641 53.0533 82.1599C52.9184 81.7469 52.8004 81.3147 52.7159 80.8571C52.5705 80.407 52.4479 79.9666 52.2697 79.5696C52.1839 79.371 52.1164 79.1732 52.0247 78.9976C51.9343 78.8221 51.8484 78.6555 51.7698 78.5023C51.7299 78.4263 51.6919 78.3529 51.6558 78.284C51.6158 78.2163 51.5726 78.155 51.5346 78.0963C51.4566 77.9808 51.3885 77.8799 51.3321 77.7963C51.2181 77.6316 51.1474 77.5423 51.1343 77.5499C51.1212 77.5576 51.1657 77.6629 51.2542 77.8397C51.2994 77.9278 51.3544 78.0338 51.4173 78.1563C51.4488 78.2176 51.4848 78.2808 51.5182 78.3497C51.5484 78.4212 51.5798 78.4959 51.6126 78.5738C51.6794 78.7295 51.7515 78.8981 51.8281 79.0768C51.9068 79.2542 51.9618 79.4534 52.0352 79.6519C52.1872 80.0445 52.29 80.5002 52.408 80.9196C52.4702 81.369 52.579 81.8458 52.6989 82.262C52.7585 82.4746 52.8162 82.6718 52.8784 82.869C52.9485 83.0765 53.0363 83.261 53.1267 83.4186C53.265 83.6625 53.3927 83.861 53.4871 84.0212C53.2303 83.8884 52.9728 83.7512 52.7205 83.6069C52.1485 83.2756 51.6041 82.9003 51.1677 82.4739C50.7241 82.0539 50.3978 81.5815 50.1856 81.1456C49.761 80.2653 49.7387 79.5868 49.6909 79.597C49.6778 79.5983 49.6778 79.7643 49.7092 80.0528C49.7472 80.34 49.8298 80.7511 50.0263 81.2139C50.2209 81.676 50.5394 82.1835 50.9836 82.6373C51.4199 83.0976 51.9703 83.5035 52.5443 83.8584C53.6987 84.5657 54.9311 85.1159 55.7993 85.6202C56.6772 86.1117 57.1883 86.5432 57.221 86.5655C57.2885 86.6223 57.3691 86.6479 57.4432 86.6479C57.569 86.84 57.6921 87.0334 57.8029 87.2358C57.9627 87.5026 58.0984 87.7822 58.2451 88.0503C58.3807 88.326 58.5151 88.5986 58.6468 88.8667C59.1624 89.9454 59.6361 90.9827 60.1498 91.8234C61.1968 93.4741 61.7668 94.6415 61.7799 94.7213C61.9064 95.0047 62.1029 95.1994 62.2182 95.1567C62.3335 95.1139 62.3204 94.8394 62.1881 94.5445C62.1665 94.5075 62.038 94.1705 61.7406 93.6605Z" fill="#4F1900"/>
<path d="M63.4218 92.8866C63.3773 92.7392 63.3249 92.5898 63.2796 92.4328C63.2377 92.2751 63.1945 92.1123 63.1499 91.9451C63.0588 91.6125 62.973 91.2513 62.8767 90.8842C62.7856 90.5714 62.7037 90.2472 62.5943 89.9248C62.652 89.905 62.6919 89.8738 62.6932 89.8361C62.6926 89.8208 62.686 89.5642 62.6762 89.1876C62.667 88.8116 62.6225 88.3182 62.5805 87.8292C62.4803 86.8494 62.2779 85.8996 62.2222 85.9092C62.1566 85.92 62.2477 86.8769 62.2674 87.8503C62.2693 88.2971 62.2785 88.742 62.27 89.0995C62.1933 88.952 62.1206 88.8008 62.0498 88.6482C61.715 87.9243 61.4163 87.1469 60.8784 86.5839C60.366 86.019 59.8517 85.5294 59.4553 85.0691C59.0576 84.6108 58.7699 84.1934 58.6042 83.8768C58.4482 83.5576 58.384 83.3572 58.3637 83.3629C58.3565 83.3648 58.3657 83.4159 58.3906 83.5104C58.4037 83.5576 58.4201 83.6157 58.4391 83.6846C58.4594 83.7529 58.479 83.834 58.5223 83.9131C58.6644 84.2483 58.935 84.6919 59.3177 85.1725C59.6983 85.6551 60.1989 86.167 60.6851 86.7371C61.1706 87.2752 61.4392 88.0258 61.7596 88.7701C61.8402 88.9571 61.9227 89.1442 62.0171 89.3286L62.0747 89.4467L62.1186 89.5846L62.2084 89.8642C62.3381 90.2312 62.4207 90.6129 62.5177 90.9749C62.6061 91.3445 62.6828 91.6987 62.7699 92.0434C62.8118 92.2151 62.8531 92.3817 62.8931 92.5439C62.9357 92.7041 62.9861 92.8573 63.0274 93.0041C63.2004 93.5881 63.3144 94.0809 63.3661 94.4346C63.4225 94.7888 63.4172 95.002 63.4251 95.0256C63.4251 95.2159 63.5227 95.3722 63.6446 95.3748C63.7665 95.3774 63.868 95.2076 63.8674 94.9956C63.8595 94.9707 63.8608 94.7358 63.7953 94.3611C63.7357 93.9865 63.6079 93.4745 63.4218 92.8866Z" fill="#4F1900"/>
<path d="M58.4518 94.3155C58.4485 94.3104 58.4472 94.3046 58.4433 94.2995C58.4354 94.2874 58.3529 94.1955 58.2369 94.0008C58.1196 93.8087 57.9742 93.5201 57.8136 93.1665C57.7324 92.9872 57.6446 92.7937 57.5516 92.5895L57.5221 92.5288L57.4985 92.4503C57.4821 92.3961 57.4664 92.3412 57.4494 92.2856C57.4166 92.1746 57.3825 92.061 57.3485 91.9461C57.2829 91.7175 57.2023 91.4737 57.1211 91.2292C57.0805 91.1073 57.0399 90.9841 56.9992 90.8603L56.9042 90.6854C56.9697 90.6739 57.0169 90.6471 57.0202 90.6094C57.0202 90.6024 57.0228 90.5392 57.0267 90.4345C57.0353 90.3292 57.0274 90.1849 57.011 90.0158C56.9894 89.6756 56.8983 89.2428 56.7824 88.824C56.6598 88.4066 56.5059 88.0032 56.365 87.7134C56.2261 87.4223 56.1082 87.2423 56.082 87.2531C56.0512 87.2659 56.1141 87.4663 56.2005 87.7689C56.289 88.0708 56.3945 88.4787 56.4751 88.8911C56.5491 89.3041 56.6048 89.7228 56.6035 90.0375C56.6048 90.0873 56.6055 90.1332 56.6061 90.1773C56.5334 90.07 56.4613 89.9634 56.3892 89.8581C56.2333 89.6558 56.0852 89.4528 55.9313 89.2658C55.6279 88.8879 55.3416 88.5406 55.1162 88.2266C54.6576 87.6042 54.4649 87.1146 54.4263 87.1293C54.4119 87.1344 54.4505 87.2589 54.5318 87.4746C54.5527 87.5289 54.5757 87.5883 54.6006 87.6534C54.6307 87.7159 54.6667 87.781 54.7034 87.8519C54.7801 87.9917 54.8587 88.1564 54.9694 88.3172C55.1758 88.6504 55.4458 89.0174 55.7275 89.4062C55.8723 89.6002 56.0066 89.8039 56.1508 90.0088C56.2156 90.1141 56.2811 90.22 56.3473 90.3266L56.4456 90.4869C56.4757 90.5411 56.5006 90.5966 56.5288 90.6515L56.6933 90.9809C56.7273 91.1003 56.762 91.219 56.7961 91.3371C56.8649 91.5726 56.9337 91.8024 56.9933 92.0437C57.0241 92.1618 57.0549 92.2786 57.0851 92.3922C57.1001 92.449 57.1145 92.5059 57.1296 92.5614L57.1525 92.6482C57.1755 92.7114 57.182 92.7171 57.1938 92.7452C57.2403 92.8569 57.2856 92.9642 57.3294 93.0689C57.2783 93.014 57.2272 92.9584 57.1742 92.901C57.1257 92.8467 57.0857 92.832 57.0484 92.8014C57.0097 92.774 56.9704 92.7459 56.9311 92.7178C56.6127 92.4956 56.2811 92.2403 55.8972 92.0182C55.7085 91.9033 55.5165 91.7801 55.3173 91.6646C55.1175 91.5516 54.9131 91.436 54.7054 91.3186C54.3988 91.1462 54.0843 90.9688 53.7613 90.7939C53.7979 90.7198 53.794 90.6158 53.7377 90.5175C53.7291 90.499 53.6276 90.3452 53.4382 90.1096C53.2502 89.8722 52.9508 89.5741 52.5767 89.2536C51.8402 88.6057 50.731 87.9061 50.1393 86.7974C49.8202 86.2427 49.4029 85.7518 48.9868 85.3254C48.8813 85.2207 48.7785 85.118 48.6769 85.0171C48.5826 84.9105 48.4895 84.8058 48.3998 84.7043C48.2203 84.5001 48.0525 84.306 47.8913 84.1318C47.571 83.7826 47.284 83.51 47.0606 83.3466C46.8398 83.1807 46.7002 83.106 46.693 83.1156C46.6819 83.1296 46.8024 83.2273 46.9996 83.4105C47.1995 83.5911 47.4596 83.8764 47.7557 84.2377C47.9031 84.4216 48.0624 84.6207 48.2314 84.8314C48.3172 84.9373 48.4057 85.0465 48.4961 85.1575C48.595 85.2641 48.6959 85.3733 48.7981 85.4844C49.169 85.8954 49.532 86.3563 49.8157 86.8657C49.796 86.8619 49.7777 86.8587 49.7567 86.8548C49.6859 86.835 49.6053 86.8127 49.5175 86.7878C49.4291 86.7635 49.3334 86.7367 49.2312 86.708C49.1303 86.6755 49.0261 86.6346 48.9148 86.595C48.6874 86.5229 48.4646 86.408 48.2235 86.2995L48.2144 86.2944C47.5218 85.9822 46.805 85.5284 46.3104 85.1109C46.0588 84.906 45.8629 84.7088 45.7279 84.5645C45.5982 84.4158 45.5143 84.3296 45.4986 84.3386C45.4828 84.3475 45.5366 84.4509 45.6421 84.6239C45.7528 84.7911 45.9297 85.0158 46.1662 85.2475C46.6334 85.7205 47.3325 86.228 48.042 86.5925L48.0276 86.5848C48.2766 86.715 48.5138 86.8497 48.7457 86.9353C48.8604 86.9819 48.9685 87.0297 49.0733 87.0687C49.1795 87.1031 49.2797 87.1357 49.3714 87.1657C49.4632 87.1951 49.547 87.2225 49.6211 87.2461C49.6984 87.264 49.7659 87.2793 49.8222 87.2921C49.9342 87.3176 50.0011 87.3323 50.0103 87.3342C50.0345 87.34 50.0594 87.3361 50.083 87.3278L50.1033 87.3623C50.1976 87.4976 50.2861 87.6374 50.3922 87.76C50.5934 88.0159 50.8207 88.2406 51.0435 88.4506C51.493 88.8674 51.9372 89.2179 52.2916 89.539C52.7326 89.9213 53.0202 90.2686 53.184 90.4901C52.8099 90.3005 52.4246 90.1211 52.0269 89.9647C51.0677 89.5804 50.0463 89.3724 49.0976 89.2045C48.1482 89.0347 47.2669 88.854 46.5475 88.5936C46.1859 88.4711 45.8432 88.39 45.5438 88.3044C45.2424 88.2234 44.9836 88.1366 44.7752 88.0504C44.3592 87.8742 44.158 87.7006 44.143 87.7197C44.1377 87.7255 44.1856 87.7689 44.2812 87.8461C44.3736 87.9278 44.5295 88.0223 44.734 88.127C44.9403 88.2279 45.2005 88.3293 45.4992 88.4238C45.796 88.5221 46.1348 88.6159 46.4807 88.7468C47.1995 89.0347 48.0951 89.2434 49.0379 89.4349C49.9834 89.6251 50.9734 89.8492 51.8933 90.2379C52.8184 90.6215 53.6846 91.1379 54.5056 91.6167C54.7106 91.7373 54.9131 91.8561 55.111 91.9722C55.3069 92.0903 55.4897 92.2116 55.6725 92.3271C56.044 92.5499 56.3617 92.8027 56.6677 93.0223C56.7057 93.0503 56.743 93.0778 56.7804 93.1046C56.8158 93.132 56.8636 93.1614 56.8695 93.1742C56.9298 93.2412 56.9881 93.3063 57.0457 93.3701C57.1604 93.4978 57.2692 93.6184 57.372 93.7327C57.5765 93.9619 57.7619 94.1585 57.9027 94.3353C57.9637 94.408 58.0181 94.4738 58.0685 94.5338C58.0783 94.5466 58.0869 94.5574 58.0888 94.5606C58.0908 94.5625 58.0934 94.5638 58.0947 94.5657C58.2677 94.7732 58.3699 94.8964 58.385 94.9142C58.5416 95.1025 58.7486 95.197 58.8482 95.1249C58.9471 95.0534 58.8986 94.8402 58.7401 94.6493C58.7231 94.6334 58.6222 94.5153 58.4518 94.3155Z" fill="#4F1900"/>
<path d="M52.4979 93.4477C52.0969 93.1982 51.6239 92.9224 51.0696 92.6926C51.006 92.6671 50.9425 92.6409 50.8783 92.6154C50.8055 92.5809 50.7321 92.5452 50.6542 92.5222C50.5009 92.4679 50.339 92.4392 50.1785 92.422C50.1084 92.4149 50.0389 92.4105 49.9695 92.4079C49.959 92.3447 49.9204 92.2898 49.8542 92.2669C49.8247 92.2573 49.2789 92.0817 48.5064 91.8341L48.4894 91.8283C48.2581 91.7619 48.0098 91.6579 47.7608 91.5066C47.5112 91.3572 47.255 91.1772 46.9661 91.0209C46.8232 90.9404 46.664 90.8798 46.5068 90.8262C46.3515 90.7789 46.1962 90.7311 46.0429 90.6838C45.7382 90.5842 45.4316 90.5102 45.1414 90.44C44.8518 90.3698 44.5779 90.3027 44.3302 90.2427C44.0812 90.1859 43.8598 90.1317 43.677 90.0774C43.3088 89.9759 43.0781 89.9217 43.0696 89.9408C43.0604 89.96 43.2734 90.0525 43.6311 90.191C43.8093 90.2644 44.0262 90.3366 44.2693 90.4106C44.5117 90.4859 44.7797 90.5689 45.064 90.657C45.3464 90.7425 45.6459 90.8313 45.94 90.943C46.0881 90.996 46.2382 91.0489 46.3882 91.1026C46.5284 91.1575 46.6608 91.213 46.7872 91.2915C47.0427 91.4434 47.2904 91.6311 47.5472 91.799C47.8047 91.9694 48.0858 92.1041 48.363 92.1922L48.342 92.1851C48.6113 92.2803 48.8498 92.3652 49.0509 92.436C48.7915 92.4532 48.5353 92.4686 48.285 92.4609C47.9888 92.4469 47.677 92.4028 47.3867 92.3773C47.0951 92.339 46.8082 92.3428 46.5382 92.332C46.4033 92.3281 46.2722 92.3249 46.1451 92.3211C46.018 92.3256 45.8948 92.33 45.7769 92.3345C45.541 92.3447 45.3255 92.3492 45.1348 92.3639C44.9441 92.383 44.7784 92.4003 44.6414 92.4143C44.3682 92.4449 44.2129 92.4686 44.2136 92.4826C44.2142 92.4973 44.3702 92.5018 44.6427 92.4986C44.779 92.496 44.9441 92.4922 45.1341 92.4884C45.3235 92.4871 45.5364 92.4954 45.769 92.4979C45.885 92.4998 46.0062 92.5011 46.132 92.503C46.2565 92.512 46.3856 92.5215 46.5179 92.5318C46.7826 92.5541 47.0624 92.5611 47.3487 92.6103C47.4922 92.6301 47.6383 92.6505 47.7857 92.6715C47.8598 92.6818 47.9338 92.692 48.0085 92.7022C48.0851 92.7118 48.1749 92.722 48.2555 92.7271C48.5818 92.7481 48.9048 92.7322 49.2173 92.7213C49.5305 92.7105 49.8371 92.7054 50.1195 92.7424C50.2604 92.7616 50.3954 92.7896 50.5166 92.8362C50.5795 92.856 50.6352 92.886 50.6909 92.9135C50.6876 92.9128 50.7682 92.9499 50.7669 92.9486L50.8147 92.9696L50.9104 93.0111C51.4168 93.2371 51.8761 93.5173 52.2568 93.7675C52.4468 93.8939 52.6178 94.0165 52.7691 94.125C52.9146 94.2393 53.0476 94.3363 53.1505 94.4231C53.3536 94.5986 53.4728 94.7052 53.4794 94.7199C53.5737 94.8195 53.731 94.8412 53.8293 94.7691C53.9282 94.6969 53.9177 94.5425 53.8057 94.4244C53.7795 94.3905 53.2992 93.945 52.4979 93.4477Z" fill="#4F1900"/>
<path d="M64.1832 72.737C65.0265 72.737 65.0265 71.4629 64.1832 71.4629C63.34 71.4629 63.34 72.737 64.1832 72.737Z" fill="#D4D659"/>
<path d="M65.3358 72.1369C66.179 72.1369 66.179 70.8628 65.3358 70.8628C64.4926 70.8628 64.4919 72.1369 65.3358 72.1369Z" fill="#D4D659"/>
<path d="M67.5885 72.3434C68.4317 72.3434 68.4317 71.0693 67.5885 71.0693C66.7452 71.0693 66.7452 72.3434 67.5885 72.3434Z" fill="#D4D659"/>
<path d="M68.1251 74.8239C68.9683 74.8239 68.9683 73.5498 68.1251 73.5498C67.2812 73.5498 67.2812 74.8239 68.1251 74.8239Z" fill="#D4D659"/>
<path d="M67.9879 73.9748C68.8311 73.9748 68.8311 72.7007 67.9879 72.7007C67.1447 72.7007 67.1447 73.9748 67.9879 73.9748Z" fill="#D4D659"/>
<path d="M69.1954 72.2731C70.0387 72.2731 70.0387 70.999 69.1954 70.999C68.3515 70.9984 68.3515 72.2731 69.1954 72.2731Z" fill="#D4D659"/>
<path d="M71.1871 72.0026C72.0304 72.0026 72.0304 70.7285 71.1871 70.7285C70.3439 70.7279 70.3439 72.0026 71.1871 72.0026Z" fill="#D4D659"/>
<path d="M71.7774 73.0754C72.6207 73.0754 72.6207 71.8013 71.7774 71.8013C70.9336 71.8013 70.9336 73.0754 71.7774 73.0754Z" fill="#D4D659"/>
<path d="M72.9293 72.4753C73.7725 72.4753 73.7725 71.2012 72.9293 71.2012C72.0861 71.2012 72.0861 72.4753 72.9293 72.4753Z" fill="#D4D659"/>
<path d="M74.1056 74.6222C74.9488 74.6222 74.9488 73.3481 74.1056 73.3481C73.2617 73.3481 73.2617 74.6222 74.1056 74.6222Z" fill="#D4D659"/>
<path d="M74.5587 74.5417C75.4019 74.5417 75.4019 73.2676 74.5587 73.2676C73.7148 73.2669 73.7148 74.5417 74.5587 74.5417Z" fill="#D4D659"/>
<path d="M76.3785 76.6603C77.2218 76.6603 77.2218 75.3862 76.3785 75.3862C75.5353 75.3856 75.5353 76.6603 76.3785 76.6603Z" fill="#D4D659"/>
<path d="M77.0309 77.5475C77.8741 77.5475 77.8741 76.2734 77.0309 76.2734C76.1876 76.2734 76.1876 77.5475 77.0309 77.5475Z" fill="#D4D659"/>
<path d="M77.3556 78.1437C78.1988 78.1437 78.1988 76.8696 77.3556 76.8696C76.5117 76.8696 76.5117 78.1437 77.3556 78.1437Z" fill="#D4D659"/>
<path d="M79.7379 77.9782C80.5811 77.9782 80.5811 76.7041 79.7379 76.7041C78.8947 76.7041 78.8947 77.9782 79.7379 77.9782Z" fill="#D4D659"/>
<path d="M80.2574 78.9328C81.1007 78.9328 81.1007 77.6587 80.2574 77.6587C79.4142 77.6587 79.4142 78.9328 80.2574 78.9328Z" fill="#D4D659"/>
<path d="M81.3512 78.8234C82.1944 78.8234 82.1944 77.5493 81.3512 77.5493C80.5079 77.5493 80.5079 78.8234 81.3512 78.8234Z" fill="#D4D659"/>
<path d="M82.7731 79.3107C83.6163 79.3107 83.6163 78.0366 82.7731 78.0366C81.9298 78.0366 81.9298 79.3107 82.7731 79.3107Z" fill="#D4D659"/>
<path d="M74.089 79.3864C74.9322 79.3864 74.9322 78.1123 74.089 78.1123C73.2451 78.1123 73.2451 79.3864 74.089 79.3864Z" fill="#D4D659"/>
<path d="M72.6988 75.3561C73.5421 75.3561 73.5421 74.082 72.6988 74.082C71.8556 74.0814 71.8556 75.3561 72.6988 75.3561Z" fill="#D4D659"/>
<path d="M73.9674 73.4679C74.8106 73.4679 74.8106 72.1938 73.9674 72.1938C73.1242 72.1938 73.1242 73.4679 73.9674 73.4679Z" fill="#D4D659"/>
<path d="M74.5074 75.9484C75.3507 75.9484 75.3507 74.6743 74.5074 74.6743C73.6642 74.6737 73.6642 75.9484 74.5074 75.9484Z" fill="#D4D659"/>
<path d="M77.3082 79.8561C78.1514 79.8561 78.1514 78.582 77.3082 78.582C76.465 78.5814 76.465 79.8561 77.3082 79.8561Z" fill="#D4D659"/>
<path d="M53.9767 74.8346C54.8199 74.8346 54.8199 73.5605 53.9767 73.5605C53.1328 73.5599 53.1328 74.8346 53.9767 74.8346Z" fill="#D4D659"/>
<path d="M56.2931 74.8551C57.1363 74.8551 57.1363 73.5811 56.2931 73.5811C55.4492 73.5804 55.4492 74.8551 56.2931 74.8551Z" fill="#D4D659"/>
<path d="M56.5558 75.6369C57.399 75.6369 57.399 74.3628 56.5558 74.3628C55.7119 74.3628 55.7119 75.6369 56.5558 75.6369Z" fill="#D4D659"/>
<path d="M57.0167 76.777C57.86 76.777 57.86 75.5029 57.0167 75.5029C56.1728 75.5029 56.1728 76.777 57.0167 76.777Z" fill="#D4D659"/>
<path d="M57.504 74.0685C58.3472 74.0685 58.3472 72.7944 57.504 72.7944C56.6601 72.7944 56.6601 74.0685 57.504 74.0685Z" fill="#D4D659"/>
<path d="M59.7613 74.5807C60.6046 74.5807 60.6046 73.3066 59.7613 73.3066C58.9181 73.306 58.9181 74.5807 59.7613 74.5807Z" fill="#D4D659"/>
<path d="M59.837 75.6154C60.6803 75.6154 60.6803 74.3413 59.837 74.3413C58.9931 74.3413 58.9931 75.6154 59.837 75.6154Z" fill="#D4D659"/>
<path d="M60.2975 76.7555C61.1407 76.7555 61.1407 75.4814 60.2975 75.4814C59.4542 75.4814 59.4542 76.7555 60.2975 76.7555Z" fill="#D4D659"/>
<path d="M63.4371 75.2736C64.2803 75.2736 64.2803 73.9995 63.4371 73.9995C62.5939 73.9995 62.5939 75.2736 63.4371 75.2736Z" fill="#D4D659"/>
<path d="M62.6554 74.4533C63.4986 74.4533 63.4986 73.1792 62.6554 73.1792C61.8115 73.1786 61.8115 74.4533 62.6554 74.4533Z" fill="#D4D659"/>
<path d="M62.3898 73.6711C63.233 73.6711 63.233 72.397 62.3898 72.397C61.5459 72.397 61.5459 73.6711 62.3898 73.6711Z" fill="#D4D659"/>
<path d="M63.547 73.3761C64.3902 73.3761 64.3902 72.1021 63.547 72.1021C62.7031 72.1021 62.7031 73.3761 63.547 73.3761Z" fill="#D4D659"/>
<path d="M64.5777 73.7585C65.421 73.7585 65.421 72.4844 64.5777 72.4844C63.7345 72.4837 63.7345 73.7585 64.5777 73.7585Z" fill="#D4D659"/>
<path d="M67.0035 71.5754C67.8467 71.5754 67.8467 70.3013 67.0035 70.3013C66.1603 70.3013 66.1603 71.5754 67.0035 71.5754Z" fill="#D4D659"/>
<path d="M61.8863 81.4494C62.7296 81.4494 62.7296 80.1753 61.8863 80.1753C61.0431 80.1747 61.0431 81.4494 61.8863 81.4494Z" fill="#D4D659"/>
<path d="M51.7457 76.5866C52.5889 76.5866 52.5889 75.3125 51.7457 75.3125C50.9025 75.3125 50.9025 76.5866 51.7457 76.5866Z" fill="#D4D659"/>
<path d="M49.9996 78.6403C50.8429 78.6403 50.8429 77.3662 49.9996 77.3662C49.1564 77.3656 49.1564 78.6403 49.9996 78.6403Z" fill="#D4D659"/>
<path d="M48.691 82.2506C49.5343 82.2506 49.5343 80.9766 48.691 80.9766C47.8478 80.9759 47.8478 82.2506 48.691 82.2506Z" fill="#D4D659"/>
<path d="M43.8229 85.153C44.6661 85.153 44.6661 83.8789 43.8229 83.8789C42.9796 83.8789 42.9796 85.153 43.8229 85.153Z" fill="#D4D659"/>
<path d="M42.879 86.7814C43.7223 86.7814 43.7223 85.5073 42.879 85.5073C42.0351 85.5067 42.0351 86.7814 42.879 86.7814Z" fill="#D4D659"/>
<path d="M44.9147 86.8522C45.7579 86.8522 45.7579 85.5781 44.9147 85.5781C44.0714 85.5781 44.0714 86.8522 44.9147 86.8522Z" fill="#D4D659"/>
<path d="M42.7342 88.5509C43.5775 88.5509 43.5775 87.2769 42.7342 87.2769C41.891 87.2769 41.8903 88.5509 42.7342 88.5509Z" fill="#D4D659"/>
<path d="M47.8941 91.0998C48.7374 91.0998 48.7374 89.8257 47.8941 89.8257C47.0509 89.8257 47.0509 91.0998 47.8941 91.0998Z" fill="#D4D659"/>
<path d="M49.6368 84.9406C50.4801 84.9406 50.4801 83.6665 49.6368 83.6665C48.7929 83.6665 48.7929 84.9406 49.6368 84.9406Z" fill="#D4D659"/>
<path d="M60.6402 78.8776C61.4835 78.8776 61.4835 77.6035 60.6402 77.6035C59.797 77.6035 59.797 78.8776 60.6402 78.8776Z" fill="#D4D659"/>
<path d="M66.0543 80.0446C66.8975 80.0446 66.8975 78.7705 66.0543 78.7705C65.2111 78.7705 65.2111 80.0446 66.0543 80.0446Z" fill="#D4D659"/>
<path d="M66.5074 80.5744C67.3507 80.5744 67.3507 79.3003 66.5074 79.3003C65.6642 79.3003 65.6642 80.5744 66.5074 80.5744Z" fill="#D4D659"/>
<path d="M67.8277 76.9743C68.671 76.9743 68.671 75.7002 67.8277 75.7002C66.9845 75.7002 66.9845 76.9743 67.8277 76.9743Z" fill="#D4D659"/>
<path d="M63.0631 76.6955C63.9063 76.6955 63.9063 75.4214 63.0631 75.4214C62.2199 75.4207 62.2199 76.6955 63.0631 76.6955Z" fill="#D4D659"/>
<path d="M70.3478 78.2687C71.191 78.2687 71.191 76.9946 70.3478 76.9946C69.5039 76.994 69.5039 78.2687 70.3478 78.2687Z" fill="#D4D659"/>
<path d="M70.9772 77.0197C71.8204 77.0197 71.8204 75.7456 70.9772 75.7456C70.1339 75.745 70.1339 77.0197 70.9772 77.0197Z" fill="#D4D659"/>
<path d="M72.1637 80.0817C73.0069 80.0817 73.0069 78.8076 72.1637 78.8076C71.3204 78.8076 71.3204 80.0817 72.1637 80.0817Z" fill="#D4D659"/>
<path d="M72.7496 80.8503C73.5928 80.8503 73.5928 79.5762 72.7496 79.5762C71.9064 79.5762 71.9064 80.8503 72.7496 80.8503Z" fill="#D4D659"/>
<path d="M73.922 82.3864C74.7652 82.3864 74.7652 81.1123 73.922 81.1123C73.0781 81.1117 73.0781 82.3864 73.922 82.3864Z" fill="#D4D659"/>
<path d="M80.7926 80.8024C81.6358 80.8024 81.6358 79.5283 80.7926 79.5283C79.9493 79.5283 79.9493 80.8024 80.7926 80.8024Z" fill="#D4D659"/>
<path d="M83.3644 80.6891C84.2076 80.6891 84.2076 79.415 83.3644 79.415C82.5205 79.415 82.5205 80.6891 83.3644 80.6891Z" fill="#D4D659"/>
<path d="M85.4293 81.4538C86.2726 81.4538 86.2726 80.1797 85.4293 80.1797C84.5861 80.179 84.5861 81.4538 85.4293 81.4538Z" fill="#D4D659"/>
<path d="M85.4376 82.3693C86.2808 82.3693 86.2808 81.0952 85.4376 81.0952C84.5937 81.0952 84.5937 82.3693 85.4376 82.3693Z" fill="#D4D659"/>
<path d="M84.5148 86.6852C85.358 86.6852 85.358 85.4111 84.5148 85.4111C83.6709 85.4111 83.6709 86.6852 84.5148 86.6852Z" fill="#D4D659"/>
<path d="M82.7814 86.8224C83.6246 86.8224 83.6246 85.5483 82.7814 85.5483C81.9375 85.5483 81.9375 86.8224 82.7814 86.8224Z" fill="#D4D659"/>
</g>
<defs>
<clipPath id="clip0">
<rect width="45" height="83" fill="white"/>
</clipPath>
<clipPath id="clip1">
<rect width="46" height="26" fill="white" transform="translate(41 70)"/>
</clipPath>
</defs>
</svg>
