<svg width="84" height="95" viewBox="0 0 84 95" fill="none" xmlns="http://www.w3.org/2000/svg">
<g clip-path="url(#clip0)">
<path d="M59.2468 67.0202C59.2468 67.0202 92.3833 67.3367 81.0709 40.9393C81.0709 40.9393 91.3503 20.9731 73.402 13.5465C73.402 13.5465 61.9138 -17.4825 46.9341 14.3749C46.9341 14.3749 33.1565 19.8499 41.9126 37.1187C41.9126 37.1187 30.4288 64.1211 59.2468 67.0202Z" fill="#406150"/>
<path d="M66.2031 46.2204C66.2986 45.919 66.3963 45.6176 66.4918 45.3162C66.5916 45.0148 66.7109 44.7178 66.8194 44.4185C67.0408 43.8201 67.2643 43.2194 67.4878 42.6188C67.7113 42.0182 67.9327 41.4175 68.154 40.8191C68.3623 40.2141 68.6379 39.6438 68.8745 39.0605C69.3627 37.9005 69.8445 36.7578 70.3089 35.6541C70.7667 34.6805 71.2138 33.7416 71.6391 32.8417C71.715 32.8699 71.7975 32.8721 71.8778 32.833C71.8995 32.8222 72.0904 32.7225 72.4094 32.5598C72.7284 32.395 73.1776 32.1782 73.6659 31.8334C73.9154 31.6686 74.1824 31.493 74.4666 31.3065C74.7422 31.1092 75.0157 30.8794 75.3064 30.6539C75.6254 30.4153 75.9379 30.1486 76.2504 29.8711C76.2808 29.9101 76.3155 29.9383 76.3546 29.934C76.3676 29.9318 76.4761 29.9123 76.6584 29.8819C76.7495 29.8646 76.858 29.8451 76.9817 29.8234C77.1054 29.7952 77.2378 29.7497 77.3853 29.7063C77.9799 29.5545 78.7112 29.2054 79.3991 28.8194C80.7619 28.0063 81.9641 27.0024 81.9207 26.9221C81.8643 26.8181 80.5492 27.6637 79.1865 28.3229C78.4986 28.6308 77.7998 28.9083 77.2508 29.0103C77.2313 29.0146 77.2139 29.0189 77.1944 29.0233C78.2837 27.9955 79.2147 26.8267 79.7941 25.8661C80.4082 24.8644 80.6708 24.1271 80.636 24.1098C80.5818 24.0816 80.2346 24.7668 79.564 25.6927C78.9022 26.6229 77.8823 27.7678 76.7235 28.7435C76.1267 29.2206 75.5473 29.7301 74.9592 30.1335C74.6684 30.3416 74.395 30.5541 74.1238 30.7363C73.846 30.9054 73.5834 31.068 73.3382 31.2176C72.8586 31.5364 72.4225 31.7294 72.1143 31.8768C72.1035 31.8811 72.097 31.8855 72.0861 31.8898C72.4398 31.1331 72.774 30.411 73.0756 29.7258C73.4749 28.8563 73.8091 28.0432 74.0565 27.3124C74.2909 26.5774 74.4341 25.9204 74.4862 25.3783C74.5035 25.1072 74.5187 24.8665 74.5317 24.6562C74.5187 24.448 74.4992 24.2702 74.484 24.1271C74.4536 23.8431 74.4254 23.6956 74.3994 23.6978C74.3733 23.7 74.3516 23.8539 74.3321 24.1336C74.3256 24.2724 74.3169 24.4437 74.3061 24.6454C74.2735 24.8449 74.2344 25.0747 74.1932 25.3327C74.0956 25.8445 73.9154 26.4581 73.6485 27.152C73.3664 27.8437 73.0062 28.6113 72.5657 29.4591C72.3509 29.8841 72.1273 30.3264 71.8973 30.784C71.6586 31.2437 71.4134 31.7164 71.1595 32.2042C70.6539 33.1822 70.1222 34.2121 69.571 35.2789C69.0676 36.3761 68.549 37.5102 68.0216 38.6659C67.7677 39.247 67.4726 39.8173 67.2448 40.4201C67.0278 40.9644 66.8086 41.5108 66.5894 42.0572C66.5352 41.2896 66.4505 40.097 66.3464 38.6355C66.3247 38.319 66.3008 37.9915 66.2748 37.6533C66.2487 37.315 66.2552 36.9659 66.2422 36.6081C66.2335 36.2504 66.227 35.8817 66.2183 35.5066C66.214 35.1315 66.2422 34.7477 66.2531 34.3574C66.2682 33.9671 66.2834 33.5703 66.3008 33.1691C66.3312 32.8309 66.3616 32.4861 66.3941 32.1435C66.4939 32.1348 66.5959 32.085 66.6719 31.9961C66.7088 31.9505 67.3207 31.2068 68.2191 30.1139C68.4426 29.8407 68.6857 29.5458 68.9396 29.2336C69.1913 28.9148 69.4864 28.5788 69.7425 28.2123C70.2459 27.4577 70.6712 26.6099 71.1053 25.7838C71.5718 24.9966 72.0514 24.151 72.3747 23.3357C72.7089 22.5161 72.9715 21.7376 73.1603 21.0589C73.3577 20.3846 73.4879 19.8121 73.5726 19.411C73.655 19.0098 73.6919 18.7778 73.6681 18.7713C73.6138 18.754 73.3512 19.6517 72.8912 20.9635C72.6633 21.6205 72.366 22.3729 72.0058 23.1535C71.8192 23.5417 71.6239 23.9385 71.396 24.3245C71.2897 24.5239 71.1725 24.7148 71.0445 24.9012L70.86 25.1853L70.7667 25.3284C70.7298 25.3848 70.719 25.4065 70.706 25.4303L70.6626 25.5062C70.1938 26.328 69.749 27.1411 69.2607 27.8285C69.0068 28.1689 68.7334 28.4573 68.4795 28.7631C68.2148 29.0688 67.9652 29.3572 67.7308 29.6261C67.2057 30.2354 66.7804 30.7276 66.4983 31.0528C66.5612 30.5303 66.6371 30.0077 66.7066 29.483C66.7543 29.0688 66.8303 28.6611 66.9106 28.2557C66.9496 28.0432 66.9887 27.8328 67.0299 27.6225C67.0408 27.5943 67.0451 27.5705 67.0429 27.5466C67.0733 27.3797 67.1059 27.2105 67.1363 27.0436C67.3554 26.2565 67.5442 25.4737 67.7851 24.7321C68.026 23.9905 68.2517 23.2728 68.4817 22.5963C68.7139 21.9198 68.9027 21.2714 69.1696 20.7098C69.2911 20.4236 69.4126 20.1526 69.5168 19.888C69.6123 19.6213 69.7034 19.3698 69.788 19.1313C69.9703 18.6586 70.0767 18.2401 70.1504 17.8845C70.2937 17.1754 70.4369 16.7548 70.4108 16.7439C70.3913 16.7287 70.196 17.1451 70.0072 17.8433C69.9096 18.1967 69.788 18.5848 69.5841 19.0489C69.4907 19.2787 69.3909 19.5237 69.2846 19.7818C69.1739 20.0376 69.0415 20.3022 68.9113 20.5797C68.8462 20.7185 68.779 20.8594 68.7117 21.0047L68.6596 21.1131L68.6227 21.1955L68.5989 21.2627C68.5707 21.3408 68.5424 21.4189 68.5121 21.4969C68.397 21.8113 68.2755 22.1366 68.1518 22.4705C67.9023 23.1362 67.6571 23.8561 67.3945 24.5955C67.1384 25.3241 66.9301 26.1047 66.6936 26.8853C66.6415 26.7747 66.5851 26.6511 66.5286 26.5123C66.3984 26.2066 66.2682 25.838 66.1446 25.4368C66.086 25.2373 66.023 25.027 65.9709 24.8145C65.9427 24.6996 65.9254 24.6172 65.8841 24.4741L65.7865 24.1532C65.5304 23.2923 65.3612 22.4055 65.3438 21.7181C65.3199 21.0307 65.4545 20.558 65.3959 20.5364C65.3633 20.5147 65.1246 20.9744 65.0595 21.7051C64.9858 22.4315 65.0834 23.3812 65.283 24.2898L65.3612 24.6302C65.3677 24.6605 65.3764 24.6931 65.372 24.6801L65.3872 24.7668L65.4176 24.9403C65.4567 25.1701 65.5066 25.3913 65.5565 25.6081C65.6606 26.0374 65.7756 26.4343 65.895 26.7703C66.1272 27.4469 66.3898 27.8914 66.4115 27.9196C66.4245 27.9413 66.444 27.9521 66.4657 27.9629C66.4527 28.028 66.4397 28.0909 66.4245 28.1559C66.3355 28.5701 66.2487 28.9864 66.1923 29.4006C66.0643 30.231 65.9167 31.0593 65.8451 31.8898C65.7995 32.304 65.7561 32.7138 65.7127 33.1193C65.6888 33.5269 65.6671 33.9302 65.6433 34.327C65.6259 34.7238 65.5912 35.1142 65.589 35.4979C65.5912 35.8817 65.5934 36.2569 65.5955 36.6233C65.602 36.9876 65.589 37.3475 65.6107 37.6901C65.6303 38.0327 65.6498 38.3623 65.6671 38.6811C65.8125 41.2159 65.9124 42.9441 65.9189 43.046C65.9275 43.2108 65.9644 43.3582 66.0165 43.4796C65.9449 43.6574 65.8733 43.8374 65.8017 44.0152C65.6845 44.3166 65.5565 44.6115 65.448 44.9151C65.3416 45.2208 65.2375 45.5244 65.1333 45.8258C64.7145 47.0379 64.3022 48.2305 63.9029 49.3884C63.5297 50.5571 63.2519 51.7237 62.9893 52.8317C62.883 53.3998 62.7593 53.9419 62.679 54.4862C62.6682 54.5816 62.6551 54.6748 62.6443 54.7681C62.6139 54.523 62.5922 54.2758 62.5662 54.0286C62.449 52.964 62.3687 51.8429 62.2754 50.7349C62.156 48.5102 62.1126 46.2313 62.0106 43.9502C61.9781 42.8161 61.9477 41.6821 61.9152 40.5545C61.9 39.9908 61.8848 39.427 61.8696 38.8654C61.8674 38.3016 61.8652 37.74 61.8631 37.1828C61.8609 34.9472 61.8414 32.7463 61.8132 30.617C61.8045 30.0858 61.8088 29.5567 61.7871 29.0341C61.7611 28.5115 61.735 27.9955 61.7068 27.4837C61.6721 26.8137 61.6374 26.1589 61.6048 25.5084C61.6765 25.4346 61.7372 25.3414 61.7654 25.2243C61.7741 25.1896 61.8457 24.8904 61.9651 24.3895C62.0258 24.1401 62.0974 23.8387 62.1799 23.4961C62.2797 23.1579 62.3926 22.7784 62.5141 22.3664C62.9199 20.9136 63.5644 19.1074 64.1807 17.2101C64.2176 17.2231 64.2545 17.2275 64.2848 17.2101C64.2979 17.2036 64.402 17.1364 64.5778 17.0258C64.7362 16.8935 64.9792 16.7352 65.2201 16.4946C65.7214 16.0349 66.2856 15.3497 66.7565 14.6146C67.2144 13.873 67.6657 13.1423 67.9175 12.5373C67.9826 12.3899 68.0238 12.2468 68.065 12.1232C68.0932 11.9952 68.1171 11.8868 68.1323 11.7979C68.1388 11.6158 68.1323 11.5182 68.1084 11.516C68.0824 11.5139 68.0412 11.6049 67.9913 11.7567C67.9565 11.8348 67.9153 11.928 67.8654 12.0364C67.8046 12.1427 67.7504 12.2663 67.6679 12.3942C67.5182 12.6566 67.3099 12.9536 67.082 13.2767C66.8476 13.5998 66.6003 13.9532 66.3507 14.2828C65.8473 14.9485 65.2809 15.5535 64.8078 15.9395C64.6971 16.0392 64.5908 16.1173 64.4932 16.1866C64.7471 15.1242 64.8143 14.053 64.8838 13.0577C64.9532 11.9996 65.0595 11.0108 65.066 10.163C65.0791 9.31515 65.0357 8.61261 64.9489 8.1334C64.8686 7.6542 64.7818 7.394 64.7622 7.39833C64.7015 7.41134 64.9163 8.48034 64.7796 10.15C64.7297 10.9848 64.5843 11.9497 64.4736 13.0209C64.363 14.0768 64.2545 15.1935 63.9485 16.2365C63.7857 16.7439 63.5796 17.2817 63.3886 17.8086C63.1976 18.3355 63.0089 18.8559 62.8244 19.3589C62.4642 20.3694 62.1257 21.317 61.8718 22.1518C61.7394 22.5681 61.6179 22.9497 61.5094 23.2902C61.4855 23.3791 61.466 23.4571 61.4443 23.5395C61.2555 21.9588 60.9951 20.4648 60.6652 19.0966C60.2963 17.4508 59.8905 15.9611 59.5542 14.6319C59.5129 14.4715 59.476 14.3219 59.437 14.1657C59.5259 14.1376 59.5997 14.0768 59.6301 13.9858C59.6366 13.9641 59.693 13.7733 59.7885 13.4567C59.8341 13.2984 59.8905 13.1076 59.9534 12.8929C59.999 12.6739 60.0489 12.4289 60.1053 12.1622C60.2269 11.6309 60.318 11.0108 60.4157 10.3516C60.4699 10.022 60.5046 9.67944 60.5524 9.33467C60.5958 8.98773 60.6479 8.63863 60.6544 8.28085C60.7368 6.86709 60.6891 5.45333 60.4894 4.42987C60.2941 3.40207 59.9643 2.80578 59.9339 2.82312C59.8732 2.85131 60.1053 3.46929 60.2073 4.4754C60.3158 5.47718 60.2855 6.85625 60.1379 8.23098C60.1162 8.57141 60.0489 8.91401 59.9925 9.2501C59.9317 9.58837 59.884 9.92012 59.8189 10.2432C59.6974 10.8872 59.5867 11.4922 59.4522 11.9974C59.3914 12.2533 59.335 12.4874 59.2829 12.6956C59.2395 12.8279 59.2004 12.945 59.1657 13.0556C58.9965 12.3682 58.8489 11.735 58.7339 11.1734C58.5082 10.2128 58.3932 9.43875 58.2912 8.91618C58.1935 8.39361 58.1284 8.11389 58.1024 8.11823C58.0764 8.12256 58.0916 8.40662 58.1415 8.94003C58.1935 9.47344 58.2608 10.2606 58.4409 11.2385C58.5559 11.9952 58.7317 12.8647 58.9357 13.8362C58.9357 13.8448 58.94 13.8513 58.94 13.8578C59.0008 14.1462 59.0637 14.4411 59.1288 14.7469C59.335 15.6966 59.578 16.7331 59.8146 17.8368C59.7451 17.8107 59.6323 17.763 59.4652 17.672C59.2026 17.5267 58.8359 17.2795 58.4019 16.9607C57.9505 16.6333 57.4666 16.2864 56.9848 15.831C56.8633 15.7183 56.7396 15.6034 56.6159 15.4863C56.4966 15.3627 56.3772 15.2391 56.2557 15.1111C56.0105 14.864 55.7761 14.5907 55.5374 14.3219C55.0578 13.7841 54.5457 13.2854 54.1573 12.7411C53.9403 12.4853 53.7971 12.1926 53.63 11.9302C53.515 11.6505 53.4216 11.3599 53.3305 11.104C52.9833 10.0589 52.6209 9.44309 52.5818 9.46694C52.5319 9.49729 52.7967 10.1348 53.0571 11.1973C53.094 11.3295 53.1309 11.4705 53.1699 11.6136C53.1894 11.6852 53.2112 11.7589 53.2307 11.8348C53.2567 11.9107 53.2567 11.9757 53.3175 12.0993C53.4737 12.3877 53.6148 12.7151 53.8231 12.997C54.205 13.602 54.6976 14.1311 55.1468 14.6862C55.3747 14.968 55.5938 15.2521 55.8391 15.521C55.9584 15.6554 56.0778 15.792 56.1949 15.9243C56.3208 16.05 56.4423 16.1758 56.5639 16.2994C56.7982 16.5509 57.0651 16.7699 57.306 16.9846C57.4232 17.0952 57.5534 17.1906 57.6619 17.273C57.7747 17.3619 57.8854 17.4486 57.9917 17.531C58.4192 17.8715 58.8012 18.149 59.1006 18.329C59.3979 18.5111 59.6258 18.5892 59.6518 18.5978C59.7603 18.639 59.8797 18.613 59.9643 18.548C60.012 18.7757 60.0598 18.999 60.1053 19.2332C60.4569 20.8724 60.7064 22.6548 60.854 24.55C60.8844 25.5149 60.9148 26.5058 60.9452 27.5206C60.9603 28.028 60.9777 28.5397 60.9951 29.058C61.0059 29.5762 60.9907 30.1031 60.9907 30.6322C60.9799 32.6574 60.9625 34.7542 60.9321 36.8965C60.7216 36.5865 60.4677 36.1723 60.1336 35.6844C59.9166 35.3982 59.7147 35.1055 59.5021 34.7932C59.4348 34.7022 59.374 34.5981 59.3133 34.5005C59.3697 34.4528 59.4044 34.3921 59.4023 34.327C59.3979 34.2923 59.3415 33.7177 59.259 32.8721C59.2243 32.4493 59.1484 31.9635 59.0702 31.4475C58.9856 30.9292 58.9249 30.3806 58.8033 29.8342C58.7469 29.561 58.6948 29.2878 58.6362 29.0233C58.5646 28.7609 58.493 28.5029 58.4257 28.2535C58.2934 27.7548 58.1284 27.3059 58.0026 26.9156C57.7357 26.1415 57.536 25.632 57.4883 25.6471C57.4384 25.6623 57.5447 26.2001 57.727 27.0002C57.8095 27.3992 57.9353 27.861 58.0265 28.3597C58.0764 28.6091 58.1263 28.865 58.1784 29.1252C58.2152 29.3897 58.2543 29.6564 58.2912 29.9253C58.378 30.4565 58.4084 31.0138 58.4648 31.5234C58.5169 32.0373 58.569 32.5186 58.5842 32.9371C58.5907 33.0499 58.5972 33.1583 58.6037 33.2602C58.493 33.0521 58.3845 32.8396 58.2803 32.6184C58.1849 32.4189 58.0872 32.2172 57.9917 32.0134C57.9114 31.8356 57.8312 31.5993 57.7487 31.3933C57.0933 29.6998 56.4966 27.9955 56.1776 26.6663C55.8499 25.3414 55.7848 24.4134 55.7197 24.4177C55.6937 24.4199 55.6893 24.6519 55.7023 25.0595C55.7045 25.2655 55.7197 25.5127 55.7609 25.7924C55.7978 26.0721 55.826 26.3931 55.8977 26.7335C56.1342 28.1039 56.6658 29.8711 57.2604 31.5884L57.3711 31.9115C57.4123 32.0221 57.4319 32.1153 57.497 32.2584C57.5881 32.4666 57.6792 32.6748 57.7704 32.8829C57.9505 33.2971 58.1523 33.6982 58.3433 34.0864C58.5603 34.4636 58.7404 34.8453 58.9683 35.177C59.1853 35.5175 59.3936 35.8405 59.5824 36.1007C59.9404 36.6515 60.2269 37.1676 60.4721 37.521C60.7108 37.8788 60.8974 38.0761 60.9104 38.1021C60.9148 38.1065 60.9191 38.1086 60.9235 38.113C60.9213 38.3688 60.9169 38.6225 60.9148 38.8806C60.9213 39.4465 60.9278 40.0168 60.9343 40.5849C60.9495 41.7233 60.9647 42.8682 60.9799 44.013C61.0471 46.2681 61.058 48.5514 61.1491 50.8173C61.2142 51.741 61.275 52.6452 61.3509 53.5668C61.1296 53.1179 60.9018 52.6582 60.6674 52.1855C60.42 51.6348 60.0706 51.0992 59.743 50.5463C59.5759 50.2709 59.4088 49.9912 59.2395 49.7093C59.0659 49.4317 58.8728 49.1694 58.6883 48.8962C58.2738 48.276 57.8312 47.6624 57.3798 47.0509C57.4449 46.8904 57.4774 46.6671 57.4622 46.4199C57.4579 46.3614 57.421 45.8431 57.3581 44.9823C57.3255 44.553 57.2865 44.0369 57.2431 43.4493C57.1715 42.8638 57.089 42.209 57.0022 41.4956C56.9588 41.14 56.9111 40.7692 56.8655 40.3876C56.8177 40.0059 56.7765 39.6091 56.6875 39.2123C56.527 38.4144 56.3772 37.5709 56.1884 36.7057C56.0886 36.2742 55.9888 35.8362 55.8868 35.3939C55.8347 35.1727 55.7848 34.9494 55.7327 34.726C55.6806 34.5027 55.6351 34.2772 55.5526 34.0582C55.2705 33.167 54.9146 32.3018 54.5544 31.4496C54.1529 30.4565 53.7341 29.4721 53.3131 28.5137C53.3804 28.4335 53.4195 28.3229 53.413 28.2036C53.4043 28.1451 53.3609 27.178 53.2285 25.7599C53.1634 25.0508 53.094 24.2312 52.9746 23.3574C52.916 22.9215 52.8705 22.4705 52.7988 22.0152C52.7207 21.562 52.6383 21.1023 52.558 20.6448C52.482 20.1851 52.3887 19.7297 52.2976 19.2809C52.1869 18.8364 52.0936 18.3962 51.9569 17.9842C51.8918 17.7782 51.8288 17.5744 51.7681 17.3749C51.6965 17.1797 51.6249 16.9889 51.5576 16.8046C51.4122 16.4425 51.321 16.0761 51.2147 15.7486C51.0151 15.0895 50.7937 14.5626 50.5832 14.2373C50.3793 13.9077 50.2143 13.7668 50.2013 13.7776C50.1731 13.8015 50.299 13.9728 50.453 14.3154C50.6136 14.6536 50.7829 15.1675 50.937 15.8332C51.0238 16.1693 51.0889 16.5271 51.2256 16.9347C51.2842 17.119 51.3428 17.3077 51.4035 17.5007C51.4556 17.698 51.5077 17.8996 51.5598 18.1035C51.6748 18.5111 51.7464 18.947 51.8375 19.3828C51.9091 19.8273 51.9829 20.2783 52.0437 20.7358C52.1066 21.1912 52.1717 21.6487 52.2346 22.0997C52.2911 22.5507 52.3236 22.9996 52.367 23.4311C52.4603 24.2963 52.5059 25.1116 52.5515 25.8163C52.5797 26.2478 52.6014 26.6316 52.6187 26.9677C51.8093 25.2048 51.0064 23.5807 50.2859 22.2428C49.661 21.0156 49.0816 20.0311 48.6845 19.3351C48.2852 18.6434 48.0465 18.2531 48.0248 18.2661C48.0031 18.2791 48.1962 18.6954 48.5543 19.4131C48.908 20.133 49.4461 21.1392 50.0299 22.386C50.325 23.0061 50.6592 23.6718 50.9912 24.3873C51.3167 25.1072 51.6574 25.8661 52.0133 26.6511C52.2411 27.1476 52.456 27.668 52.673 28.1928C52.6752 28.2188 52.6752 28.2405 52.6773 28.247C52.6838 28.3749 52.7403 28.4812 52.8227 28.5527C52.8987 28.7349 52.9724 28.9148 53.0506 29.0992C53.222 29.5198 53.4086 29.9318 53.5692 30.3676C53.7341 30.8013 53.8969 31.2393 54.0727 31.6665C54.4199 32.5295 54.7519 33.3816 55.0058 34.2338C55.0817 34.442 55.123 34.6675 55.1707 34.8886C55.2184 35.1098 55.2662 35.331 55.3117 35.55C55.3378 35.6714 55.3638 35.7907 55.3899 35.9121C55.0557 35.563 54.5913 35.1228 53.9924 34.6761C53.3652 34.1904 52.6122 33.6874 51.8353 33.1279C51.7572 33.0716 51.6769 33.0087 51.5966 32.9501C51.6856 32.9133 51.7442 32.8612 51.7399 32.8027C51.7377 32.7919 51.7225 32.6856 51.6986 32.51C51.6856 32.4232 51.6704 32.317 51.6509 32.1999C51.6227 32.085 51.5923 31.9549 51.5598 31.8118C51.4361 31.2437 51.1822 30.5368 50.8936 29.8581C50.3033 28.5072 49.5525 27.2799 49.4678 27.3233C49.3702 27.3731 49.9561 28.6915 50.4053 30.0511C50.6223 30.7319 50.8154 31.4215 50.8936 31.9527C50.9174 32.085 50.937 32.2064 50.9565 32.3148C50.9608 32.369 50.9652 32.4211 50.9695 32.4666C50.4856 32.0763 50.0147 31.6513 49.6132 31.1613C49.0165 30.3243 48.385 29.509 47.9228 28.646C47.402 27.822 47.0179 26.9915 46.6642 26.2955C46.4797 25.9485 46.3343 25.6211 46.2085 25.3284C46.0761 25.0378 45.9632 24.7841 45.8678 24.576C45.6746 24.1597 45.5531 23.9255 45.5292 23.9363C45.5054 23.9472 45.5791 24.1987 45.7289 24.6367C45.8048 24.8557 45.8981 25.1181 46.0066 25.4216C46.113 25.7252 46.2388 26.0656 46.4038 26.4256C46.7227 27.1498 47.0721 28.0085 47.5669 28.8693C47.8121 29.3008 48.0183 29.7735 48.3264 30.1963C48.6172 30.63 48.9123 31.0724 49.2074 31.5125C49.8736 32.382 50.6982 33.0564 51.4708 33.6505C52.2455 34.2425 52.979 34.7607 53.5735 35.2464C54.7823 36.1983 55.3703 37.0461 55.4072 37.0917C55.4745 37.1893 55.57 37.2565 55.6698 37.2825C55.8043 37.9872 55.9237 38.6789 56.0452 39.3359C56.1277 39.7306 56.1646 40.123 56.2058 40.5025C56.247 40.882 56.2883 41.2462 56.3273 41.5997C56.4054 42.3044 56.4771 42.9527 56.5422 43.5317C56.579 44.115 56.6116 44.6267 56.6376 45.0517C56.668 45.5396 56.6919 45.9104 56.7071 46.1554C56.5769 45.9819 56.4467 45.8106 56.3165 45.6371C55.902 45.0972 55.4832 44.5551 55.0644 44.0109C54.8452 43.7377 54.6304 43.4558 54.4068 43.1891L53.732 42.4063C53.5193 42.1439 53.2871 41.8924 53.0918 41.6214C52.9008 41.3438 52.7077 41.0901 52.5167 40.7952C52.3258 40.5047 52.137 40.2141 51.9482 39.9235C51.7594 39.6352 51.5771 39.3403 51.3623 39.0736C50.5246 37.9785 49.7478 36.9291 49.0317 35.8514C48.6758 35.3115 48.3329 34.7781 47.9814 34.262C47.8078 34.004 47.6363 33.7481 47.4649 33.4944C47.3803 33.3686 47.2956 33.2429 47.211 33.1193C47.1199 33 47.0287 32.8808 46.9376 32.7637C46.5774 32.2953 46.2258 31.8399 45.8873 31.3998C45.718 31.1808 45.5509 30.9639 45.3882 30.7514C45.2406 30.5281 45.1061 30.3004 44.9672 30.0792C44.824 29.8624 44.7068 29.6369 44.5961 29.4136C44.4833 29.1902 44.3661 28.9777 44.2663 28.7609C44.0818 28.3229 43.88 27.9152 43.7346 27.5141C43.42 26.7226 43.1769 26.0179 42.9729 25.4433C42.5693 24.2876 42.3197 23.6436 42.272 23.6588C42.2243 23.6783 42.3783 24.3505 42.6908 25.5409C42.8514 26.135 43.0489 26.8593 43.3266 27.6811C43.4503 28.0952 43.637 28.5267 43.8062 28.9842C43.8995 29.2119 44.0102 29.4396 44.1165 29.6759C44.2229 29.9123 44.3335 30.153 44.4746 30.3893C44.6091 30.6257 44.7415 30.8707 44.8891 31.1157C45.054 31.3477 45.2211 31.5863 45.3925 31.8269C45.7093 32.2714 46.037 32.7333 46.3734 33.206C46.4558 33.3231 46.5405 33.4402 46.6251 33.5594C46.7032 33.6852 46.7835 33.811 46.8616 33.9389C47.02 34.1948 47.1828 34.4528 47.3455 34.713C47.6732 35.2443 48.0052 35.7863 48.3459 36.3393C48.6714 36.8965 49.0729 37.456 49.4505 38.0262L49.7391 38.4534L50.0255 38.8545C50.2165 39.1213 50.4096 39.3901 50.6028 39.659C50.8046 39.9214 50.9717 40.2119 51.1496 40.4982C51.3254 40.7844 51.5012 41.0706 51.6791 41.3568C51.8527 41.6409 52.0827 41.9726 52.2845 42.2762C52.4408 42.5017 52.6057 42.7034 52.7685 42.9094C52.5493 42.8378 52.3019 42.7467 52.0285 42.634C51.8983 42.5819 51.7637 42.5256 51.627 42.4692L51.5684 42.4453L51.4925 42.4193L51.384 42.3825C51.3102 42.3586 51.2364 42.3326 51.1626 42.3087C50.8632 42.209 50.5463 42.1027 50.2208 41.9921C49.5698 41.7601 48.8581 41.5108 48.181 41.2484C46.8095 40.7388 45.5444 39.9604 44.6634 39.2752C44.2229 38.9326 43.8822 38.6009 43.6825 38.3211C43.5697 38.191 43.5111 38.0631 43.459 37.9807C43.4091 37.8983 43.3766 37.8549 43.3635 37.8593C43.3505 37.8636 43.3614 37.9157 43.3896 38.0132C43.42 38.1086 43.4612 38.2583 43.5588 38.4079C43.7281 38.7353 44.0536 39.1169 44.4789 39.5072C45.3187 40.2813 46.5839 41.1595 47.977 41.7558C48.6779 42.0659 49.342 42.3282 49.9973 42.5928C50.3272 42.7185 50.6483 42.84 50.9521 42.9549C51.0281 42.9831 51.104 43.0113 51.1778 43.0395L51.2885 43.0807L51.3167 43.0915L51.3297 43.0958C51.3189 43.0915 51.3167 43.0915 51.3167 43.0915L51.3601 43.111C51.499 43.1739 51.6335 43.2346 51.7637 43.2932C52.6426 43.7008 53.3609 43.8743 53.5952 43.9176L53.6018 43.9241C53.8122 44.1865 54.0032 44.4511 54.205 44.7134C54.613 45.2685 55.0188 45.8236 55.4224 46.3744C56.2166 47.4781 57 48.5536 57.6879 49.6334C57.8615 49.9023 58.046 50.1646 58.2066 50.4335C58.3628 50.7046 58.5169 50.9713 58.6688 51.238C58.9704 51.7714 59.2872 52.2701 59.5281 52.8339C59.7842 53.3781 60.0359 53.9094 60.2768 54.4233C60.3983 54.6791 60.5177 54.9328 60.6348 55.1822C60.6934 55.3058 60.752 55.4294 60.8084 55.5508L60.8301 55.5964C60.8323 55.6007 60.8475 55.6007 60.8497 55.605C60.8453 55.592 60.854 55.5725 60.8605 55.5899L60.867 55.6094C60.8692 55.6137 60.854 55.6159 60.854 55.6159L60.8605 55.6527L60.9386 55.8717C61.1556 56.4052 61.3292 56.8367 61.4942 57.2812C61.6331 57.7257 61.7871 58.142 61.8783 58.554C61.9846 58.9616 62.0866 59.3411 62.143 59.7097C62.2059 60.074 62.2797 60.4058 62.321 60.7158C62.3882 61.2969 62.4403 61.7631 62.4815 62.1101C62.4859 62.1664 62.4902 62.2185 62.4946 62.2705C62.5011 62.405 62.5054 62.5199 62.5097 62.6045C62.373 62.4939 62.2298 62.3876 62.0844 62.2857C61.8652 62.1448 61.6396 61.993 61.4074 61.8347C60.9408 61.5181 60.4374 61.1755 59.9057 60.8134C59.7299 60.692 59.5433 60.5749 59.3545 60.46C59.348 60.4144 59.3372 60.3667 59.322 60.319C59.3089 60.2822 59.1787 59.9309 58.9162 59.391C58.6558 58.8489 58.2478 58.1268 57.74 57.3072C57.6141 57.1012 57.4839 56.8887 57.3472 56.6697C57.217 56.4485 57.0738 56.223 56.9067 55.9997C56.5877 55.553 56.2535 55.0846 55.9107 54.6033C55.6329 54.2195 55.353 53.8227 55.0795 53.4128C55.1338 53.3738 55.1664 53.3239 55.162 53.2719C55.149 53.248 55.1229 52.7558 54.9645 52.0901C54.8343 51.4158 54.5826 50.5506 54.3027 49.7115C54.166 49.2995 54.0293 48.8701 53.8578 48.4907C53.758 48.3085 53.6799 48.1112 53.5432 47.9811C53.4195 47.8402 53.2806 47.7339 53.1504 47.6429C52.8856 47.4716 52.6448 47.3566 52.4864 47.2374C52.3258 47.1268 52.2325 47.0487 52.2129 47.0682C52.1956 47.0813 52.2498 47.1962 52.3887 47.3545C52.5254 47.5193 52.7598 47.6906 52.9746 47.8814C53.0788 47.979 53.1829 48.0852 53.2719 48.2153L53.3392 48.3151C53.3522 48.3367 53.3522 48.3281 53.3587 48.3497L53.3804 48.4083C53.413 48.4907 53.4455 48.5731 53.4802 48.6576C53.6018 49.0198 53.6994 49.4296 53.8079 49.8719C54.0206 50.7219 54.2115 51.5632 54.3005 52.2202C54.3048 52.2463 54.3092 52.2679 54.3114 52.294C54.1399 52.0706 53.9555 51.8538 53.7558 51.6521C52.1847 49.9825 50.3445 48.7791 49.0208 47.8337C47.6841 46.8991 46.8421 46.2161 46.8074 46.2616C46.7922 46.2811 46.9832 46.4741 47.3369 46.7994C47.6862 47.1268 48.257 47.5171 48.8993 48.0267C50.1796 49.048 51.946 50.3425 53.4716 51.9319L53.4933 51.9557C53.8752 52.3547 54.1573 52.8794 54.4698 53.4172C54.7888 53.9419 55.1164 54.4732 55.4506 54.9632C55.7761 55.4446 56.0843 55.9216 56.3859 56.3661C56.4597 56.4767 56.5291 56.5916 56.6007 56.6979C56.668 56.8128 56.7309 56.9299 56.796 57.0405C56.9262 57.2638 57.0521 57.4807 57.1736 57.6866C57.6619 58.5128 58.0416 59.2175 58.276 59.7357C58.2912 59.7683 58.3042 59.8008 58.3194 59.8311C58.2782 59.8051 58.2369 59.7813 58.1957 59.7552C57.0087 59.0397 55.7479 58.2764 54.4893 57.5175C53.8622 57.1359 53.2524 56.7326 52.6404 56.3488C52.048 55.939 51.4578 55.5443 50.9022 55.141C50.3641 54.716 49.8172 54.3322 49.3398 53.9181C48.8689 53.4974 48.4024 53.1179 48.0031 52.732C47.6103 52.3352 47.2522 51.9709 46.9332 51.65C46.6099 51.3291 46.3799 51.0038 46.1564 50.7609C45.7267 50.2622 45.4598 49.9868 45.4186 50.0172C45.3773 50.0476 45.5596 50.3837 45.9198 50.9518C46.1065 51.2293 46.3061 51.5936 46.5991 51.9535C46.8942 52.3135 47.2284 52.7168 47.5908 53.1591C47.964 53.582 48.4045 53.9983 48.8537 54.458C48.7995 54.4385 48.7474 54.4189 48.6888 54.3973C48.5694 54.3561 48.4436 54.3105 48.3156 54.265C48.2526 54.2411 48.181 54.2238 48.1116 54.2021C48.0551 54.1869 47.9966 54.1696 47.938 54.1522C47.6645 54.059 47.3759 53.9614 47.0786 53.8595C46.7835 53.7468 46.4689 53.686 46.1564 53.6015C45.8395 53.5169 45.5227 53.4432 45.2102 53.3803C43.9516 53.1158 42.7993 52.4761 42.0333 51.8603C41.2651 51.2402 40.8723 50.6699 40.8159 50.7111C40.7942 50.7262 40.8767 50.878 41.0416 51.1339C41.1197 51.264 41.2239 51.4158 41.3671 51.5719C41.506 51.728 41.6492 51.9232 41.8445 52.088C42.5802 52.8014 43.7607 53.5581 45.0648 53.9072L45.5466 54.0395C45.6985 54.0872 45.8504 54.1327 46.0001 54.1804C46.2974 54.278 46.6034 54.3517 46.8747 54.4688C47.1524 54.5772 47.4193 54.6813 47.6754 54.7811C47.8164 54.8309 47.9532 54.8786 48.0877 54.9242C48.2071 54.9719 48.3242 55.0174 48.4371 55.0629C48.8906 55.2494 49.2877 55.4207 49.5915 55.5118C49.8953 55.605 50.0863 55.6484 50.1102 55.6506C50.1362 55.6549 50.1601 55.6484 50.184 55.6441C50.2556 55.7069 50.3272 55.7677 50.3966 55.8305C50.9391 56.2794 51.5207 56.7131 52.1044 57.1641C52.7034 57.5847 53.3066 58.0292 53.9208 58.4434C54.4784 58.8229 55.0448 59.2001 55.6047 59.5709C55.1772 59.6382 54.5023 59.7618 53.6907 59.9634C53.005 60.126 52.2216 60.3125 51.3796 60.4491C50.5377 60.577 49.6436 60.6161 48.7756 60.3927C47.9098 60.1802 47.1047 59.7357 46.4472 59.1893C46.2822 59.0527 46.1325 58.9031 45.9784 58.7643C45.833 58.6125 45.692 58.4651 45.5553 58.322C45.2818 58.0314 45.0214 57.7582 44.7827 57.5045C44.5484 57.2465 44.3118 57.034 44.11 56.841C44.0059 56.7456 43.9147 56.6502 43.8214 56.5765C43.7238 56.5049 43.6348 56.4398 43.5545 56.3813C43.2312 56.1493 43.0445 56.0279 43.0294 56.0495C42.9903 56.1124 43.6977 56.6393 44.5722 57.7105C44.7936 57.9794 45.0323 58.2678 45.2992 58.5757C45.4316 58.7296 45.5683 58.8857 45.7072 59.0484C45.8612 59.2023 46.0131 59.3693 46.1802 59.5211C46.8508 60.1347 47.7036 60.6551 48.6345 60.9218C49.5633 61.2037 50.5659 61.195 51.4404 61.0866C52.3214 60.9739 53.1287 60.8069 53.8122 60.6638C55.1815 60.3667 56.0973 60.2778 56.1537 60.2757C56.2687 60.2648 56.3685 60.2041 56.438 60.1217C56.8134 60.3689 57.1845 60.6139 57.5425 60.8503C58.1133 61.2362 58.6796 61.5788 59.1918 61.9583C59.7039 62.3356 60.1922 62.6912 60.6413 63.0229C60.867 63.1899 61.084 63.346 61.2924 63.4891C61.4811 63.6322 61.6504 63.7602 61.785 63.8968C61.9369 64.0226 62.0302 64.1678 62.1408 64.2893C62.2298 64.4237 62.3058 64.5495 62.3774 64.6644C62.4316 64.7901 62.4794 64.9029 62.5206 65.0005C62.5662 65.098 62.5748 65.2 62.5987 65.2759C62.6399 65.4298 62.6638 65.5209 62.6682 65.5404C62.6747 65.6033 62.6964 65.6597 62.7267 65.716C62.7376 65.9329 62.7506 66.154 62.7571 66.3709C62.7832 67.2968 62.8201 68.1901 62.8331 69.0531C62.8938 72.503 62.8743 75.4237 62.896 77.5118C62.9155 79.6021 62.9416 80.8598 62.9524 81.0029C62.9828 82.1413 63.3387 83.0433 63.7445 83.0173C64.1503 82.9912 64.4541 82.061 64.4237 80.9378C64.415 80.799 64.3781 79.5523 64.3391 77.475C64.2979 75.3934 64.2892 72.4813 64.1915 69.0011C64.1677 68.1316 64.1221 67.2274 64.0852 66.2928C64.0787 66.0912 64.0613 65.8808 64.0505 65.677C64.057 65.664 64.0592 65.651 64.0657 65.638C64.146 65.5729 64.2002 65.4927 64.2154 65.406C64.2154 65.3886 64.2458 65.3149 64.2848 65.1848C64.3087 65.1219 64.3217 65.0373 64.3608 64.9506C64.402 64.866 64.4498 64.7706 64.5018 64.6622C64.5626 64.5581 64.6451 64.4541 64.7254 64.3305C64.8295 64.222 64.9228 64.0941 65.0639 63.9705C65.129 63.9076 65.1984 63.8426 65.283 63.7732C65.3699 63.6973 65.461 63.6214 65.5543 63.5412C65.7279 63.3851 65.9102 63.2224 66.1012 63.0511C66.1988 62.9644 66.2986 62.8755 66.3984 62.7866C66.5004 62.689 66.6068 62.5893 66.7131 62.4874C66.8194 62.392 66.9236 62.2662 67.0299 62.1513C67.1688 61.9973 67.1645 62.0168 67.3012 61.8867C67.7243 61.4726 68.1866 61.0606 68.6336 60.5857C68.6401 60.577 68.6488 60.5705 68.6575 60.5619C68.6748 60.5424 68.7443 60.5684 68.7963 60.564C68.8267 60.5619 69.0893 60.5337 69.4929 60.4361C69.8965 60.3472 70.4325 60.1564 71.0336 60.0848L71.0575 60.0805C72.1317 59.881 73.4988 59.5796 74.8529 58.9204L75.1068 58.8012L75.3455 58.6516L75.8229 58.348C76.1441 58.1507 76.45 57.9252 76.7582 57.7127C77.0707 57.5045 77.3636 57.266 77.6544 57.0383C77.9495 56.8171 78.223 56.5721 78.4855 56.3314C79.5402 55.3687 80.3626 54.3539 80.8292 53.5408C80.8921 53.441 80.9529 53.3499 81.0049 53.2589C81.0527 53.1635 81.0961 53.0746 81.1373 52.9922C81.2176 52.8252 81.2871 52.6821 81.3435 52.5628C81.4541 52.3265 81.5062 52.1921 81.4889 52.1834C81.4715 52.1747 81.3869 52.2896 81.2458 52.5043C81.1764 52.6127 81.0939 52.745 80.9963 52.8989C80.9485 52.977 80.8986 53.0594 80.8444 53.1461C80.7836 53.2285 80.7185 53.3153 80.6491 53.4085C80.1348 54.1652 79.2884 55.1041 78.2273 55.9932C77.9604 56.2143 77.6891 56.4442 77.3918 56.6458C77.0989 56.8562 76.8081 57.0773 76.4956 57.2703C76.1853 57.4676 75.8793 57.678 75.5647 57.8558L75.0959 58.1333L74.8616 58.2699L74.6207 58.3697C74.4015 58.4672 74.1802 58.554 73.9567 58.6364C74.0131 58.4391 74.0869 58.1637 74.1563 57.8558C74.2019 57.717 74.2323 57.5696 74.2995 57.4026C74.3646 57.2378 74.4319 57.0643 74.5035 56.8844C74.6446 56.5222 74.7965 56.1341 74.9484 55.7416L74.9549 55.7286C75.109 55.2971 75.2912 54.87 75.4866 54.4775C75.6949 54.0937 75.901 53.7337 76.1224 53.454C76.5499 52.8816 76.9448 52.5737 76.9101 52.5173C76.8927 52.4783 76.4305 52.6994 75.9075 53.2415C75.6385 53.5039 75.3824 53.8573 75.1285 54.2411C74.8876 54.6336 74.6598 55.0651 74.4666 55.5031C74.2887 55.8826 74.1107 56.2599 73.9458 56.6111C73.8612 56.7911 73.7809 56.9646 73.705 57.1294C73.6268 57.292 73.5704 57.4807 73.5118 57.6368C73.4207 57.9338 73.3447 58.1832 73.2905 58.361C73.2406 58.5388 73.195 58.5952 73.1928 58.6125C73.169 58.6689 73.221 58.7621 73.3122 58.851C72.4745 59.1047 71.6608 59.2565 70.9729 59.3649L71.0033 59.3628C70.3045 59.4278 69.7967 59.5926 69.4256 59.6685C69.5971 59.469 69.7685 59.2652 69.9399 59.0592C70.1591 58.7968 70.3479 58.5041 70.5519 58.2244C70.758 57.9425 70.9534 57.6606 71.14 57.3809C71.9038 56.2512 72.646 55.0911 73.2384 53.9484C73.6984 53.0724 74.0739 52.2116 74.3429 51.4093C74.3733 51.4114 74.4037 51.4114 74.4319 51.4006C74.4601 51.3963 74.6381 51.3247 74.8486 51.1773C75.0569 51.0342 75.3129 50.8065 75.5864 50.5593C75.6168 50.5333 75.6493 50.5051 75.6819 50.4769C75.6927 50.4682 75.7079 50.4574 75.7014 50.4595L75.7665 50.4205C75.8533 50.3685 75.9444 50.3164 76.0356 50.2622C76.22 50.1538 76.4153 50.0389 76.615 49.9218C76.8146 49.8025 77.0229 49.6811 77.2313 49.5575C77.266 49.538 77.3832 49.4708 77.4157 49.4296L77.5568 49.3038C77.6501 49.2192 77.7477 49.1369 77.8389 49.048C78.581 48.3411 79.1387 47.452 79.3774 46.73C79.6205 46.0079 79.6552 45.5027 79.6183 45.4962C79.5575 45.4789 79.4273 45.9581 79.1192 46.6064C78.8132 47.2569 78.2447 48.0158 77.5134 48.6273C77.4222 48.7032 77.3267 48.7747 77.2334 48.8485L77.0924 48.959C77.0685 48.9786 77.0555 48.9894 77.0555 48.9872C77.0511 48.9894 77.0468 48.9916 77.0381 48.9959L76.9969 49.0176C76.7821 49.1282 76.5694 49.2366 76.3632 49.3428C76.1571 49.4491 75.9574 49.551 75.7687 49.6486C75.6732 49.6985 75.582 49.7462 75.4931 49.7917L75.4258 49.8264C75.3694 49.8524 75.3455 49.8741 75.313 49.8936C75.2674 49.9283 75.2218 49.9608 75.1784 49.9955C74.9549 50.1777 74.7726 50.3251 74.625 50.4335C75.0873 48.5926 74.905 47.3566 74.8355 47.3675C74.7075 47.3631 74.7032 48.6793 74.0174 50.5072C73.6854 51.4223 73.1776 52.4479 72.5353 53.5039C71.8995 54.5642 71.1226 55.6419 70.3154 56.7217L70.0072 57.1315L69.7056 57.5132C69.5016 57.7647 69.315 58.0292 69.1001 58.2656C68.6661 58.7361 68.2451 59.2045 67.7894 59.6251C67.5941 59.8203 67.3945 60.0046 67.1948 60.1846C67.1775 59.9851 67.1536 59.7466 67.1297 59.4734C67.0581 58.7188 66.9605 57.73 66.9388 56.7391C66.9106 55.7503 66.9822 54.7594 67.1297 54.0221C67.2686 53.2849 67.4531 52.8035 67.3988 52.7775C67.3619 52.7558 67.0863 53.2003 66.8542 53.9441C66.6155 54.6835 66.457 55.7113 66.4201 56.7282C66.3746 57.7474 66.4201 58.76 66.4527 59.5211C66.4852 60.1867 66.5091 60.666 66.5135 60.7939C66.4983 60.8069 66.4809 60.8221 66.4657 60.8351L66.3854 60.9066L66.3464 60.9413L66.3095 60.9739L66.2726 61.0129L66.1077 61.182C66.0209 61.2688 65.9471 61.3577 65.8473 61.4401C65.7539 61.5246 65.6606 61.6048 65.5695 61.6872C65.4697 61.7696 65.372 61.8499 65.2744 61.9301C64.8751 62.2597 64.5062 62.5633 64.1763 62.8321C64.1243 62.8733 64.0787 62.921 64.0309 62.9687C64.0331 62.9059 64.0331 62.8408 64.0288 62.7758C64.0309 62.7367 64.0049 62.5329 63.9723 62.1925C63.9702 62.1404 63.9658 62.0927 63.9637 62.032C63.9572 61.9843 63.9506 61.9258 63.9441 61.8737C63.9181 61.5918 63.8921 61.2557 63.866 60.8589C63.8508 60.2822 63.8139 59.5926 63.8053 58.8033C63.8183 58.0141 63.8313 57.1294 63.8769 56.1493C63.9528 54.6922 64.261 53.0269 64.6971 51.2662C64.8078 51.2553 64.9293 51.2185 65.0465 51.1556C65.0726 51.1404 65.244 51.0472 65.5326 50.8867C65.8299 50.7154 66.2661 50.4942 66.7717 50.1798C67.0191 50.0129 67.2882 49.8307 67.5789 49.6356C67.8697 49.4383 68.1714 49.2604 68.4925 49.0545C68.8267 48.842 69.1761 48.6186 69.5428 48.3844C69.7338 48.2717 69.8944 48.1156 70.0767 47.979C70.2546 47.838 70.4369 47.6949 70.604 47.5366C70.9512 47.2287 71.3006 46.9078 71.6564 46.5782C72.0036 46.2421 72.34 45.88 72.6894 45.5244C73.0366 45.1666 73.386 44.8023 73.7397 44.4402L74.0044 44.167C74.0869 44.0716 74.1867 44 74.2778 43.8634L74.7227 43.2476C75.326 42.4323 75.9509 41.6387 76.5108 40.8386C77.075 40.0406 77.572 39.2362 77.9604 38.4512V38.4491V38.4469C78.2816 37.7313 78.581 37.0613 78.8675 36.4737C79.0063 36.1766 79.1452 35.8991 79.2494 35.6389C79.3492 35.3722 79.4273 35.1207 79.4989 34.8886C79.6422 34.4268 79.7637 34.056 79.8765 33.8088C79.9872 33.5594 80.0653 33.425 80.048 33.4142C80.0393 33.4055 79.9351 33.5226 79.7941 33.7633C79.6508 34.004 79.4968 34.3726 79.3275 34.8258C79.2429 35.0534 79.1517 35.2963 79.0432 35.5457C78.9347 35.7798 78.7785 36.0595 78.6309 36.3458C78.3228 36.9139 77.9951 37.5839 77.6414 38.3038L77.6522 38.2799C77.2508 39.028 76.7452 39.7956 76.1701 40.5632C75.5972 41.333 74.9571 42.1071 74.3299 42.9159L73.8634 43.5295L73.8286 43.575L73.7766 43.6271L73.642 43.7593L73.3729 44.0239C73.0149 44.3773 72.659 44.7308 72.3074 45.0777C71.9863 45.3921 71.6738 45.7109 71.357 46.0101C71.3613 45.661 71.396 45.1341 71.5393 44.4749C71.6586 43.8938 71.8517 43.2281 72.0991 42.5234C72.2272 42.1743 72.3595 41.8122 72.5093 41.4501C72.5765 41.2701 72.6698 41.0901 72.7284 40.882L72.9107 40.3073C73.3773 38.7722 73.872 37.2608 74.4623 36.2178C75.0439 35.1727 75.6298 34.6068 75.5799 34.5525C75.5625 34.533 75.4106 34.6631 75.1545 34.9082C75.0265 35.0318 74.8659 35.177 74.7205 35.3809C74.5751 35.5803 74.382 35.7907 74.2258 36.0552C73.54 37.0808 72.952 38.6204 72.4268 40.123L72.2033 40.6781C72.1664 40.7865 72.1512 40.8191 72.1013 40.9275L71.9776 41.2007C71.8105 41.5628 71.6608 41.9293 71.5176 42.2849C71.2355 43.0004 71.0098 43.6921 70.8622 44.3079C70.5541 45.5417 70.6105 46.4524 70.6127 46.5001C70.6148 46.5457 70.6257 46.5869 70.6409 46.6259C70.489 46.7582 70.3392 46.8883 70.1917 47.0162C70.0224 47.1702 69.8488 47.3003 69.6795 47.4304C69.5081 47.554 69.3475 47.7036 69.1739 47.8012C68.8202 48.018 68.4795 48.2283 68.154 48.4256C67.8155 48.6316 67.4791 48.8268 67.1948 49.0111C66.9084 49.1976 66.6437 49.3689 66.4006 49.5272C65.9058 49.8221 65.4892 50.0259 65.1984 50.1863C65.0791 50.2492 64.9858 50.3013 64.9076 50.3425C64.9597 50.1451 65.014 49.9478 65.0682 49.7483C65.4393 48.6056 65.8169 47.4217 66.2031 46.2204Z" fill="#D7C7B8"/>
<path d="M60.8281 55.605C60.8305 55.6098 60.8329 55.6147 60.8329 55.6171C60.8354 55.6195 60.8329 55.6171 60.8329 55.6171V55.6147C60.8329 55.6123 60.8305 55.6074 60.8281 55.605Z" fill="#66462D"/>
<path d="M74.4414 55.4909C74.4459 55.4819 74.4504 55.4729 74.4549 55.4639L74.4414 55.4909Z" fill="#66462D"/>
<path d="M53.7422 51.6348C53.7445 51.637 53.7445 51.6393 53.7467 51.6393C53.749 51.6416 53.7513 51.6439 53.7513 51.6439L53.7422 51.6348Z" fill="#66462D"/>
<path d="M61.1186 1.40751C60.4111 1.05624 59.8079 2.26618 60.5153 2.61745C61.3421 3.02943 61.9453 1.8195 61.1186 1.40751Z" fill="#D4D659"/>
<path d="M58.6885 1.55912C57.8618 1.1493 57.2607 2.35924 58.0853 2.76905C58.7949 3.12033 59.396 1.91039 58.6885 1.55912Z" fill="#D4D659"/>
<path d="M61.959 3.86429C61.1323 3.45447 60.5312 4.66441 61.3558 5.07423C62.0632 5.4255 62.6665 4.21556 61.959 3.86429Z" fill="#D4D659"/>
<path d="M63.4164 3.00321C62.709 2.65194 62.1057 3.86188 62.8131 4.21315C63.6399 4.62514 64.2432 3.4152 63.4164 3.00321Z" fill="#D4D659"/>
<path d="M64.8344 3.70829C64.127 3.35702 63.5237 4.56696 64.2311 4.91823C65.0557 5.32805 65.659 4.11811 64.8344 3.70829Z" fill="#D4D659"/>
<path d="M56.2748 6.70048C55.5674 6.34921 54.9641 7.55914 55.6715 7.91042C56.4983 8.32023 57.0994 7.1103 56.2748 6.70048Z" fill="#D4D659"/>
<path d="M55.6684 5.26493C54.9609 4.91366 54.3577 6.1236 55.0651 6.47487C55.8919 6.88469 56.493 5.67475 55.6684 5.26493Z" fill="#D4D659"/>
<path d="M51.4151 10.8487C50.5883 10.4388 49.9872 11.6488 50.8118 12.0586C51.5193 12.412 52.1225 11.2021 51.4151 10.8487Z" fill="#D4D659"/>
<path d="M52.5323 14.8037C51.7055 14.3939 51.1044 15.6039 51.929 16.0137C52.6386 16.3671 53.2397 15.155 52.5323 14.8037Z" fill="#D4D659"/>
<path d="M55.0166 18.9821C54.8994 18.9236 54.7692 18.9019 54.6564 18.9171C54.728 18.6482 54.6651 18.3555 54.3721 18.208C53.5453 17.7982 52.9442 19.0082 53.7689 19.418C53.8795 19.4744 53.9859 19.4874 54.0879 19.4744C54.0249 19.7432 54.0596 20.0143 54.4155 20.1899C55.2401 20.6041 55.8434 19.3941 55.0166 18.9821Z" fill="#D4D659"/>
<path d="M56.5792 19.9859C55.7524 19.5761 55.1513 20.786 55.9759 21.1958C56.6855 21.5471 57.2888 20.3371 56.5792 19.9859Z" fill="#D4D659"/>
<path d="M49.0557 16.4712C48.2289 16.0614 47.6278 17.2713 48.4525 17.6812C49.1599 18.0324 49.7632 16.8225 49.0557 16.4712Z" fill="#D4D659"/>
<path d="M48.7436 14.7298C48.0361 14.3785 47.4329 15.5884 48.1403 15.9397C48.9671 16.3517 49.5703 15.1418 48.7436 14.7298Z" fill="#D4D659"/>
<path d="M52.0873 8.01444C51.3799 7.66317 50.7766 8.87311 51.484 9.22438C52.3108 9.6342 52.9141 8.42426 52.0873 8.01444Z" fill="#D4D659"/>
<path d="M45.2421 19.1032C44.9751 18.971 44.7212 19.0599 44.5498 19.2442C44.4391 19.2225 44.3241 19.2247 44.2113 19.2659C43.8684 19.3851 43.6731 19.7754 43.786 20.1224C43.8446 20.3023 43.901 20.4823 43.9596 20.6623C44.0702 21.0092 44.45 21.1979 44.7929 21.0764C45.0988 20.9702 45.2833 20.6515 45.2442 20.337C45.6891 20.1202 45.8432 19.4003 45.2421 19.1032Z" fill="#D4D659"/>
<path d="M46.6498 20.7102C45.9424 20.359 45.3391 21.5689 46.0465 21.9202C46.8733 22.33 47.4766 21.1201 46.6498 20.7102Z" fill="#D4D659"/>
<path d="M48.9617 24.5785C49.463 24.4462 49.743 23.607 49.1722 23.323C48.365 22.9218 47.7704 24.0689 48.5191 24.5047C47.9917 24.6218 47.7183 25.4675 48.3303 25.7732C49.0833 26.1484 49.6779 24.9731 48.9617 24.5785Z" fill="#D4D659"/>
<path d="M43.669 22.8501C42.8422 22.4403 42.2411 23.6503 43.0657 24.0601C43.7732 24.4135 44.3764 23.2014 43.669 22.8501Z" fill="#D4D659"/>
<path d="M42.5323 20.6993C41.7055 20.2894 41.1044 21.4994 41.929 21.9092C42.6364 22.2626 43.2397 21.0527 42.5323 20.6993Z" fill="#D4D659"/>
<path d="M46.5092 16.5623C45.8018 16.211 45.1985 17.421 45.9059 17.7722C46.7305 18.1821 47.3338 16.9721 46.5092 16.5623Z" fill="#D4D659"/>
<path d="M58.1504 23.0323C57.3237 22.6224 56.7226 23.8324 57.5472 24.2422C58.2568 24.5935 58.86 23.3835 58.1504 23.0323Z" fill="#D4D659"/>
<path d="M58.3842 20.2029C57.6768 19.8516 57.0735 21.0616 57.7809 21.4129C58.6077 21.8248 59.211 20.6149 58.3842 20.2029Z" fill="#D4D659"/>
<path d="M54.6928 15.198C53.9853 14.8468 53.3821 16.0567 54.0895 16.408C54.9163 16.8178 55.5196 15.6079 54.6928 15.198Z" fill="#D4D659"/>
<path d="M57.001 12.0435C56.1743 11.6337 55.5732 12.8436 56.3978 13.2534C57.1052 13.6047 57.7085 12.3948 57.001 12.0435Z" fill="#D4D659"/>
<path d="M41.4516 25.8255C40.7441 25.4742 40.1409 26.6841 40.8483 27.0354C41.6751 27.4452 42.2762 26.2353 41.4516 25.8255Z" fill="#D4D659"/>
<path d="M41.3174 27.5708C40.4907 27.161 39.8896 28.371 40.7142 28.7808C41.4238 29.132 42.0249 27.9221 41.3174 27.5708Z" fill="#D4D659"/>
<path d="M42.4542 29.7198C41.6274 29.3099 41.0263 30.5199 41.8509 30.9297C42.5605 31.2831 43.1616 30.0732 42.4542 29.7198Z" fill="#D4D659"/>
<path d="M43.4122 32.2349C42.5854 31.8251 41.9843 33.035 42.8089 33.4448C43.5163 33.7961 44.1196 32.5862 43.4122 32.2349Z" fill="#D4D659"/>
<path d="M43.8331 34.9346C43.0063 34.5248 42.4052 35.7347 43.2298 36.1445C43.9372 36.498 44.5405 35.288 43.8331 34.9346Z" fill="#D4D659"/>
<path d="M52.016 37.4192C51.3086 37.068 50.7053 38.2779 51.4128 38.6292C52.2374 39.0411 52.8406 37.8312 52.016 37.4192Z" fill="#D4D659"/>
<path d="M53.8565 36.9751C53.0297 36.5653 52.4286 37.7752 53.2532 38.1851C53.9607 38.5385 54.5639 37.3286 53.8565 36.9751Z" fill="#D4D659"/>
<path d="M54.6378 38.9502C53.811 38.5404 53.2099 39.7504 54.0345 40.1602C54.7441 40.5136 55.3474 39.3037 54.6378 38.9502Z" fill="#D4D659"/>
<path d="M54.9698 21.4473C54.143 21.0375 53.5419 22.2474 54.3665 22.6572C55.074 23.0107 55.6772 21.8007 54.9698 21.4473Z" fill="#D4D659"/>
<path d="M61.5287 15.6556C60.8213 15.3043 60.218 16.5142 60.9254 16.8655C61.7522 17.2753 62.3555 16.0654 61.5287 15.6556Z" fill="#D4D659"/>
<path d="M45.4506 25.7752C44.7432 25.4239 44.1399 26.6338 44.8473 26.9851C45.6719 27.3949 46.2752 26.185 45.4506 25.7752Z" fill="#D4D659"/>
<path d="M45.3881 32.9915C44.6807 32.6402 44.0774 33.8502 44.7848 34.2014C45.6116 34.6112 46.2149 33.4013 45.3881 32.9915Z" fill="#D4D659"/>
<path d="M46.4272 36.2268C45.7197 35.8756 45.1165 37.0855 45.8239 37.4368C46.6485 37.8466 47.2518 36.6367 46.4272 36.2268Z" fill="#D4D659"/>
<path d="M42.5284 41.9859C41.7016 41.5761 41.1005 42.786 41.9251 43.1958C42.6325 43.5493 43.2358 42.3393 42.5284 41.9859Z" fill="#D4D659"/>
<path d="M43.9424 42.6905C43.1157 42.2806 42.5146 43.4906 43.3392 43.9004C44.0466 44.2517 44.6499 43.0417 43.9424 42.6905Z" fill="#D4D659"/>
<path d="M43.1221 45.2256C42.2953 44.8158 41.6942 46.0257 42.5189 46.4355C43.2285 46.789 43.8317 45.5791 43.1221 45.2256Z" fill="#D4D659"/>
<path d="M41.6264 46.7478C40.9189 46.3966 40.3157 47.6065 41.0231 47.9578C41.8499 48.3698 42.451 47.1598 41.6264 46.7478Z" fill="#D4D659"/>
<path d="M43.2653 49.3733C42.9116 49.1977 42.7163 49.2931 42.5405 49.4536C42.5666 49.2194 42.4581 48.97 42.2042 48.8443C41.3774 48.4345 40.7763 49.6444 41.6009 50.0542C41.8548 50.18 42.1195 50.1193 42.2888 49.9545C42.2671 50.1908 42.3083 50.4055 42.662 50.5811C43.3695 50.9345 43.9727 49.7246 43.2653 49.3733Z" fill="#D4D659"/>
<path d="M46.3402 46.1492C45.6328 45.7979 45.0295 47.0079 45.737 47.3591C46.5638 47.769 47.167 46.559 46.3402 46.1492Z" fill="#D4D659"/>
<path d="M48.5596 43.1743C47.7328 42.7645 47.1317 43.9745 47.9564 44.3843C48.666 44.7377 49.2671 43.5278 48.5596 43.1743Z" fill="#D4D659"/>
<path d="M50.7113 44.471C50.0039 44.1197 49.4006 45.3297 50.1081 45.6809C50.9327 46.0929 51.5359 44.883 50.7113 44.471Z" fill="#D4D659"/>
<path d="M47.8334 48.4759C47.126 48.1246 46.5227 49.3345 47.2301 49.6858C48.0569 50.0956 48.6602 48.8857 47.8334 48.4759Z" fill="#D4D659"/>
<path d="M45.7286 41.7671C44.9018 41.3573 44.3007 42.5672 45.1253 42.9771C45.8327 43.3283 46.436 42.1184 45.7286 41.7671Z" fill="#D4D659"/>
<path d="M48.8051 38.5428C48.0977 38.1915 47.4944 39.4014 48.2018 39.7527C49.0286 40.1625 49.6319 38.9526 48.8051 38.5428Z" fill="#D4D659"/>
<path d="M42.3721 39.6441C41.5453 39.2343 40.9442 40.4442 41.7689 40.854C42.4763 41.2053 43.0796 39.9953 42.3721 39.6441Z" fill="#D4D659"/>
<path d="M45.4662 54.9983C44.7588 54.6471 44.1555 55.857 44.8629 56.2083C45.6897 56.6202 46.293 55.4103 45.4662 54.9983Z" fill="#D4D659"/>
<path d="M47.736 56.3537C47.2 56.0869 46.7573 56.5054 46.7399 56.9434C46.4014 57.221 46.3081 57.8346 46.8116 58.084C47.302 58.3268 47.7251 57.9127 47.762 57.4855C48.0962 57.2036 48.2069 56.5878 47.736 56.3537Z" fill="#D4D659"/>
<path d="M49.1417 57.96C48.3149 57.5502 47.7138 58.7601 48.5384 59.1699C49.248 59.5212 49.8513 58.3113 49.1417 57.96Z" fill="#D4D659"/>
<path d="M42.4346 52.8106C41.6078 52.4008 41.0067 53.6107 41.8314 54.0205C42.5388 54.3739 43.1421 53.164 42.4346 52.8106Z" fill="#D4D659"/>
<path d="M50.0049 50.9131C49.1782 50.5033 48.5771 51.7132 49.4017 52.1231C50.1091 52.4765 50.7124 51.2666 50.0049 50.9131Z" fill="#D4D659"/>
<path d="M54.3295 26.5667C53.6221 26.2154 53.0188 27.4254 53.7262 27.7766C54.553 28.1886 55.1563 26.9787 54.3295 26.5667Z" fill="#D4D659"/>
</g>
<path d="M3.13166 93.5204C3.13166 93.5204 -5.515 83.3389 5.92696 79.0224C5.92696 79.0224 6.9974 67.9639 17.7969 70.587C17.7969 70.587 29.8839 62.808 35.508 74.2283C35.508 74.2283 47.8188 75.7974 43.7232 84.8347C43.7232 84.8347 49.132 93.4489 37.6849 94.4825C24.0806 95.711 3.13166 93.5204 3.13166 93.5204Z" fill="#67904C"/>
<path d="M26.8524 78.882C26.9151 78.8879 26.9794 78.87 27.0291 78.8241C27.0403 78.813 27.1372 78.7185 27.2985 78.5593C27.4631 78.3992 27.699 78.1847 27.9726 77.9123C28.1073 77.7726 28.2617 77.6381 28.4083 77.467C28.4821 77.3827 28.5576 77.2967 28.6348 77.2082L28.6931 77.1418C28.7017 77.1315 28.7188 77.1137 28.7068 77.1247C28.7017 77.1281 28.7248 77.1077 28.7326 77.1009C28.778 77.0592 28.8235 77.0166 28.8689 76.974C29.0516 76.7901 29.2069 76.579 29.3458 76.3542C29.3861 76.4172 29.4385 76.4539 29.4814 76.4411C29.4959 76.436 29.7464 76.3474 30.1143 76.218C30.4832 76.0861 30.9772 75.9124 31.443 75.6774C31.9113 75.4484 32.3358 75.1393 32.5923 74.8541C32.8522 74.5715 32.9594 74.3399 32.9397 74.3263C32.9114 74.305 32.7595 74.4965 32.4791 74.7264C32.2012 74.9588 31.7809 75.2091 31.3186 75.3939C30.8588 75.5837 30.3691 75.7234 29.9951 75.8341C29.8227 75.8851 29.6769 75.9286 29.5663 75.9609C29.61 75.8758 29.6538 75.7915 29.6941 75.7063L29.8545 75.3641C29.9051 75.2747 29.9823 75.1598 30.0483 75.061C30.1881 74.8584 30.3253 74.6583 30.4583 74.4659C30.725 74.0794 30.9643 73.709 31.123 73.3685C31.286 73.0296 31.3692 72.7274 31.3992 72.5137C31.4318 72.3 31.4172 72.1766 31.4069 72.1757C31.3692 72.1697 31.3409 72.6567 30.9755 73.285C30.7997 73.6009 30.5484 73.9474 30.2644 74.3169C30.1221 74.5042 29.9745 74.6983 29.8253 74.895L29.7147 75.0482L29.6598 75.1266L29.6323 75.1657C29.6246 75.1734 29.598 75.2211 29.5954 75.2279L29.4239 75.5591C29.1949 75.9984 28.9384 76.4121 28.6219 76.7101L28.501 76.8157L28.4598 76.8523L28.4101 76.9051L28.3535 76.9655C28.2788 77.0456 28.2059 77.1239 28.1347 77.1997C27.9958 77.3538 27.8345 77.4874 27.7007 77.6177C27.4263 77.8756 27.1818 78.0876 27.0137 78.2426C27.0068 78.2494 27.0017 78.2537 26.9948 78.2605C27.036 78.1813 27.0231 78.0834 26.9665 78.0085C26.9957 77.4585 27.0249 76.9153 27.0532 76.39C27.0746 75.8017 27.0815 75.2338 27.0883 74.6941C27.0892 74.6966 27.09 74.6983 27.0909 74.7009C27.1466 74.8081 27.2453 74.8635 27.3105 74.8243C27.3216 74.8124 27.6098 74.6566 27.8963 74.299C28.1828 73.9449 28.4358 73.4051 28.561 72.8474C28.6948 72.2906 28.736 71.7262 28.7454 71.3047C28.754 70.8833 28.736 70.6015 28.7077 70.599C28.6768 70.5956 28.6382 70.8722 28.5782 71.2826C28.5181 71.6921 28.4315 72.237 28.2685 72.7521C28.1142 73.2706 27.856 73.7388 27.5969 74.0291C27.3516 74.3058 27.1243 74.4233 27.0918 74.4446C27.0978 73.9738 27.1063 73.526 27.1261 73.1105C27.1424 72.6303 27.1569 72.1902 27.1698 71.8002C27.2093 71.4171 27.1904 71.08 27.1715 70.8016C27.1218 70.2465 27.1055 69.9196 27.0875 69.9204C27.0797 69.9204 27.0755 70.0004 27.0737 70.1528C27.0703 70.3061 27.0737 70.5266 27.0849 70.8041C27.09 71.0808 27.0943 71.4129 27.0437 71.779L27.0351 71.8684L27.0309 71.9424C27.0274 71.9918 27.0248 72.0429 27.0214 72.094C27.0154 72.1961 27.0086 72.3017 27.0017 72.4107C26.9888 72.6286 26.9742 72.8577 26.9597 73.0969C26.8859 74.0743 26.8808 75.1742 26.813 76.3704C26.7804 76.8344 26.7461 77.3129 26.7118 77.7965C26.6809 77.7726 26.6483 77.7479 26.6114 77.719C26.4382 77.5555 26.1834 77.3367 25.9295 77.0268C25.8609 76.9545 25.7966 76.8719 25.7357 76.7833C25.6722 76.6965 25.6062 76.6062 25.5393 76.5143C25.4149 76.3227 25.2854 76.1176 25.1653 75.8979C24.9252 75.4577 24.7107 74.9657 24.5109 74.4625C24.2887 73.9661 24.0803 73.4766 24.0057 72.9828C23.9894 72.8602 23.9697 72.7385 23.9688 72.6193C23.9594 72.4992 23.9619 72.3826 23.9688 72.2685C23.98 72.1553 23.9654 72.0386 23.9542 71.9322C23.9431 71.8241 23.9328 71.7202 23.9233 71.6198C23.8427 70.8237 23.7707 70.2848 23.7424 70.2839C23.7278 70.2839 23.7226 70.4176 23.7261 70.6543C23.7295 70.891 23.7415 71.2332 23.7552 71.6232C23.7587 71.7219 23.7629 71.8241 23.7672 71.9305C23.7698 71.9833 23.7715 72.0378 23.7741 72.0923L23.7758 72.1263C23.775 72.1314 23.7741 72.1485 23.7732 72.1553L23.7647 72.2447C23.7509 72.3647 23.7424 72.4882 23.7458 72.6159C23.7406 72.7436 23.7552 72.8738 23.7672 73.0066C23.8221 73.5362 24.0288 74.0777 24.2278 74.5681C24.4071 75.0746 24.6121 75.5906 24.8488 76.0571C24.9672 76.2895 25.0967 76.51 25.2219 76.7161C25.2905 76.8165 25.3574 76.9136 25.4226 77.0081C25.4852 77.1043 25.5513 77.1937 25.6225 77.2737C25.8849 77.6126 26.1526 77.8552 26.3361 78.0349C26.5317 78.1983 26.6543 78.2903 26.668 78.303C26.5728 78.8828 26.4656 79.4677 26.3241 80.0577C26.2538 80.3702 26.1843 80.6826 26.114 80.9942C26.0788 81.1509 26.0445 81.3067 26.0093 81.4625C25.981 81.6208 25.9527 81.7783 25.9253 81.935C25.8206 82.5701 25.686 83.1644 25.565 83.751C25.5153 83.974 25.4724 84.1954 25.4226 84.4125C25.4218 84.4108 25.4209 84.4091 25.4209 84.4082C25.3815 84.3146 25.3454 84.2065 25.3017 84.0907C25.1156 83.6292 24.9415 82.9958 24.7965 82.3556C24.5203 81.07 24.4654 79.7512 24.3994 79.7512C24.3719 79.7504 24.3488 80.0781 24.3505 80.5745C24.3556 81.07 24.3942 81.7349 24.4954 82.399C24.6044 83.0605 24.7528 83.7229 24.9243 84.2082C24.9646 84.3299 24.9981 84.444 25.0341 84.5428C25.0727 84.6407 25.107 84.7275 25.1353 84.799C25.1919 84.9429 25.2262 85.0297 25.2305 85.0391C25.2357 85.0527 25.2468 85.0621 25.2562 85.0723C25.2245 85.1915 25.1928 85.3149 25.1619 85.4316C25.0916 85.6981 25.0238 85.9577 24.9578 86.2097C24.8685 86.449 24.7819 86.6797 24.6987 86.9028C24.6576 87.0143 24.6164 87.1233 24.5769 87.2297C24.534 87.3361 24.4843 87.4383 24.4397 87.5387C24.3488 87.7397 24.2621 87.9312 24.1807 88.1117C24.0168 88.4752 23.8719 88.7954 23.7518 89.0618C23.6969 89.1836 23.648 89.2926 23.6034 89.3913C23.5837 87.789 23.5657 85.8981 23.5176 84.0081C23.5039 83.711 23.4902 83.4147 23.4765 83.1193C23.4447 82.8247 23.4139 82.5318 23.383 82.2415C23.3675 82.0968 23.3512 81.952 23.3358 81.8081C23.3118 81.6651 23.2878 81.5229 23.2646 81.3825C23.2166 81.1006 23.1686 80.8222 23.1214 80.5481C23.0665 80.2757 22.9979 80.01 22.9387 79.7495C22.8804 79.5179 22.834 79.2889 22.7714 79.0693C22.774 79.0676 22.7766 79.0667 22.7791 79.065C22.8675 78.9867 22.8735 78.8471 22.7929 78.7526C22.7903 78.7492 22.7791 78.7364 22.7629 78.7185C22.8366 78.6887 22.8907 78.6223 22.8924 78.5431C22.8924 78.5159 22.8915 78.057 22.8907 77.3844C22.8829 76.7135 22.8967 75.8136 22.8675 74.9248C22.8452 74.7009 22.8237 74.4778 22.8023 74.2573L22.786 74.0938L22.7534 73.9338C22.7311 73.8282 22.7097 73.7235 22.6882 73.6213C22.6145 73.2093 22.4935 72.8381 22.4018 72.518C22.2053 71.8811 22.0484 71.4648 22.0218 71.4716C21.9901 71.4784 22.093 71.9109 22.2388 72.5554C22.3057 72.8772 22.4009 73.2518 22.4506 73.6554C22.4661 73.7558 22.4815 73.8589 22.4978 73.9627L22.5218 74.1194L22.5296 74.2777C22.5407 74.4897 22.5519 74.706 22.563 74.9222C22.5296 76.1167 22.4961 77.3154 22.4772 77.9872C22.4438 77.8578 22.4103 77.7309 22.3777 77.6075C22.1564 76.7493 21.9403 76.0426 21.7405 75.5684C21.6495 75.3275 21.5535 75.1495 21.4917 75.0278C21.4291 74.9061 21.3922 74.8431 21.3854 74.8465C21.3785 74.8499 21.4017 74.9188 21.4514 75.0457C21.5003 75.1725 21.5818 75.3547 21.659 75.5974C21.8314 76.0758 22.0192 76.7808 22.2148 77.6441C22.2611 77.8416 22.3083 78.0493 22.3589 78.2622C22.2345 78.1191 22.0904 77.9514 21.93 77.759C21.4437 77.1716 20.8313 76.3696 20.3364 75.4978C20.0825 75.0653 19.8758 74.6089 19.6974 74.1756C19.6185 73.9551 19.5327 73.7439 19.4769 73.5362C19.4461 73.4332 19.416 73.3327 19.3877 73.2357C19.3646 73.1369 19.3423 73.0415 19.3208 72.9504C19.1553 72.2157 19.1433 71.7066 19.1038 71.7074C19.0892 71.7074 19.0807 71.8334 19.0781 72.0557C19.0781 72.1118 19.0772 72.1731 19.0772 72.2404C19.0824 72.3077 19.0884 72.38 19.0944 72.4575C19.1073 72.6125 19.1184 72.7887 19.1553 72.9768C19.1707 73.0713 19.1879 73.1701 19.205 73.2723C19.2265 73.3736 19.2531 73.4774 19.2788 73.5847C19.3243 73.801 19.4006 74.0215 19.4709 74.2513C19.6313 74.7051 19.8252 75.1836 20.0688 75.6365C20.5422 76.5509 21.1443 77.3904 21.6212 78.0016C22.1007 78.6138 22.4532 79.0071 22.4721 79.0318C22.4995 79.0633 22.533 79.0829 22.5682 79.0957C22.629 79.3238 22.6685 79.5563 22.7234 79.7946C22.7757 80.0535 22.8383 80.3157 22.8864 80.5856C22.9275 80.8572 22.9687 81.133 23.0116 81.4123C23.0322 81.5519 23.0528 81.6924 23.0742 81.8337C23.0871 81.9759 23.0999 82.1189 23.1128 82.2619C23.1385 82.5488 23.1643 82.8383 23.19 83.1286C23.1986 83.4198 23.2071 83.7127 23.2157 84.0047C23.2166 84.5479 23.2166 85.091 23.2174 85.6283C23.1643 85.5567 23.0871 85.4563 22.985 85.3354C22.8889 85.2213 22.7731 85.0859 22.6514 84.9318C22.5913 84.8544 22.527 84.7718 22.4704 84.6824L22.4249 84.6143C22.3855 84.5555 22.3795 84.5496 22.3589 84.5215C22.3246 84.4738 22.2885 84.4244 22.2525 84.3742C22.1084 84.1716 21.9446 83.957 21.7816 83.7152C21.7044 83.5909 21.6238 83.4632 21.5415 83.3312C21.5003 83.2657 21.4583 83.1984 21.4162 83.1312L21.3528 83.029L21.3202 82.9779C21.3133 82.966 21.3004 82.9456 21.291 82.9354L21.2704 82.9107C20.8536 82.3947 20.3733 81.8626 19.9041 81.2897C19.7891 81.1449 19.6725 80.9985 19.5558 80.8512C19.4452 80.6997 19.3337 80.5473 19.2213 80.394C19.1184 80.2357 19.0121 80.0773 18.9108 79.9164L18.771 79.6678C18.7307 79.5869 18.663 79.4958 18.6484 79.4303C18.4279 78.6896 18.1561 77.9557 17.8112 77.2984C17.0427 76.0171 16.9595 74.6294 16.5959 73.7226L16.595 73.7201C16.5221 73.4894 16.4569 73.2808 16.3986 73.0969C16.3394 72.913 16.3051 72.747 16.2665 72.6142C16.2253 72.34 16.2022 72.1834 16.1893 72.1834C16.1782 72.1825 16.1782 72.3392 16.1979 72.6244C16.2253 72.7606 16.2493 72.9334 16.2991 73.1224C16.3471 73.308 16.402 73.5183 16.4629 73.7507L16.4663 73.7627C16.5281 73.9942 16.5959 74.2488 16.6688 74.5204C16.7434 74.792 16.7888 75.0925 16.8566 75.4024C16.8875 75.5565 16.9312 75.731 16.9698 75.8996C17.0059 76.0724 17.0813 76.2333 17.1371 76.4053C17.2657 76.7408 17.4218 77.0737 17.5831 77.4065C17.8447 77.9369 18.054 78.5048 18.2341 79.0948C17.9425 78.8581 17.4673 78.4716 16.993 78.0859C16.6104 77.7718 16.2013 77.5274 15.9534 77.2558C15.7038 76.9894 15.5898 76.7595 15.5546 76.7748C15.5409 76.7808 15.5572 76.8421 15.5966 76.9468C15.6318 77.0541 15.7116 77.1962 15.8213 77.358C16.0469 77.6849 16.4569 77.9897 16.7871 78.309C17.1542 78.6649 17.4853 78.9603 17.7675 79.2217C18.0454 79.4745 18.2341 79.6474 18.2461 79.6576C18.2796 79.6874 18.3405 79.6729 18.3996 79.6278L18.4271 79.6789L18.4974 79.81L18.6389 80.0722C18.7402 80.2416 18.8474 80.4068 18.9512 80.5736C19.0635 80.7329 19.175 80.8921 19.2865 81.0496C19.4032 81.202 19.519 81.3535 19.6339 81.5033C20.1005 82.0942 20.5722 82.6331 20.9719 83.1448L20.9917 83.1695L21.0234 83.2223L21.0869 83.327C21.1289 83.396 21.1701 83.4641 21.2104 83.5322C21.2919 83.6667 21.3716 83.7978 21.448 83.9255C21.6118 84.1758 21.7799 84.404 21.9266 84.6168C21.9635 84.6696 22.0003 84.7215 22.0355 84.7718C22.0501 84.7922 22.081 84.8356 22.0715 84.8237L22.1221 84.9029C22.1873 85.0093 22.2559 85.0996 22.3203 85.1855C22.4498 85.3541 22.5647 85.4912 22.6574 85.6044C22.8409 85.83 22.9301 85.9637 22.943 85.9824C23.0279 86.1093 23.1257 86.2055 23.2174 86.2387C23.2217 90.1269 23.226 93.5188 23.226 93.6422C23.226 93.936 23.3229 94.176 23.4422 94.1786C23.5614 94.1812 23.6583 93.9453 23.6575 93.6516C23.6566 93.5784 23.642 92.3498 23.6206 90.5492C23.6197 90.516 23.6197 90.4811 23.6189 90.447C23.6815 90.3661 23.7415 90.2589 23.7878 90.1346C23.7947 90.1167 23.8273 90.0264 23.883 89.8732C23.9113 89.7966 23.9448 89.7046 23.9834 89.5982C24.0297 89.4926 24.082 89.3734 24.1403 89.2406C24.257 88.9741 24.3977 88.6549 24.5572 88.2913C24.6378 88.1083 24.7227 87.9133 24.8128 87.709C24.8565 87.606 24.9054 87.5038 24.9483 87.3932C24.9886 87.2816 25.0298 87.1675 25.0718 87.0509C25.155 86.8185 25.2425 86.5758 25.3317 86.3264C25.3952 86.0718 25.4612 85.8087 25.529 85.5389C25.5968 85.269 25.6654 84.9923 25.7366 84.7088C25.8112 84.427 25.8549 84.1298 25.9175 83.8327C26.0325 83.2367 26.162 82.6212 26.2546 82.0031C26.2804 81.8482 26.3052 81.6924 26.331 81.5366C26.3636 81.3816 26.3953 81.2258 26.4279 81.07C26.4931 80.7575 26.5583 80.4451 26.6234 80.1318C26.7084 79.7172 26.7847 79.2991 26.8524 78.882Z" fill="#454B03"/>
<path d="M33.8915 88.3474C33.907 88.3457 33.9207 88.3449 33.9361 88.3406C33.9636 88.3406 33.9884 88.3346 34.0099 88.3193C34.0159 88.3151 34.0185 88.3074 34.0245 88.3031C34.0639 88.2802 34.1025 88.2521 34.1377 88.2155C34.1514 88.1967 34.2981 88.0477 34.5511 87.8051C34.8067 87.5641 35.185 87.244 35.6224 86.8303C35.7322 86.7272 35.8446 86.6174 35.9543 86.4965C36.0684 86.3807 36.1782 86.2522 36.2871 86.1151C36.3918 85.9857 36.4998 85.852 36.6096 85.7167C36.7237 85.5898 36.8421 85.4612 36.975 85.3412C37.4116 84.9325 37.9614 84.5809 38.4675 84.1621C38.5206 84.1987 38.579 84.214 38.6261 84.191C38.6356 84.1859 38.7188 84.1408 38.8569 84.0667C38.9263 84.0292 39.0087 83.9841 39.103 83.9322C39.2008 83.8845 39.3106 83.8309 39.4298 83.773C39.905 83.5363 40.5483 83.2511 41.1873 82.9557C41.8392 82.6619 42.4044 82.2192 42.7621 81.8386C43.1257 81.4615 43.341 81.1848 43.3213 81.1652C43.299 81.1414 43.04 81.3789 42.6488 81.7109C42.2603 82.0472 41.7036 82.4252 41.0655 82.6713C40.4162 82.9284 39.7557 83.1855 39.2634 83.406C39.2617 83.4069 39.26 83.4077 39.2574 83.4086C39.6228 83.0033 39.9376 82.5649 40.2163 82.1392C40.4128 81.8318 40.6015 81.5347 40.7816 81.2529C40.8708 81.1116 40.9634 80.9796 41.0423 80.8417C41.1075 80.6987 41.171 80.5607 41.2319 80.4279C41.4729 79.8967 41.6316 79.4361 41.7096 79.1074C41.7482 78.9431 41.7705 78.8129 41.7757 78.7235C41.7843 78.6341 41.7851 78.5864 41.7783 78.5855C41.7705 78.5847 41.7551 78.6298 41.7328 78.7141C41.7139 78.7992 41.6779 78.9235 41.6264 79.081C41.5235 79.3952 41.3434 79.8354 41.0809 80.3504C41.0149 80.4799 40.9463 80.6144 40.8759 80.7531C40.8596 80.7829 40.8759 80.7565 40.8588 80.7812L40.8245 80.8306L40.7541 80.9302C40.707 80.9966 40.6598 81.0647 40.6109 81.1337C40.4222 81.4079 40.2232 81.6982 40.0174 81.9979C39.6031 82.5896 39.1348 83.1923 38.5549 83.6759C37.9889 84.1799 37.3061 84.5605 36.7349 85.0696C36.5916 85.1931 36.4587 85.3301 36.3335 85.4647C36.2177 85.6017 36.1036 85.7371 35.9929 85.8682C35.89 85.9934 35.7854 86.1117 35.6739 86.2198C35.5684 86.3322 35.4586 86.4352 35.3505 86.5331C35.0906 86.7698 34.8496 86.9758 34.6377 87.1589L34.7638 86.9341L34.8745 86.7366L34.9714 86.5323C35.5744 85.3293 36.0067 84.0624 36.3309 82.8731C36.4046 82.9207 36.4853 82.9301 36.5299 82.8884C36.5427 82.8739 36.7743 82.6415 37.132 82.3026C37.4871 81.9621 37.9648 81.5151 38.3971 81.0247C38.8294 80.5369 39.2154 79.9997 39.3852 79.5416C39.5679 79.0861 39.531 78.7609 39.5104 78.7626C39.4718 78.7592 39.4504 79.0606 39.2343 79.465C39.0293 79.8728 38.6253 80.3581 38.1775 80.8059C37.7298 81.2555 37.2375 81.6726 36.8678 81.997C36.7091 82.1341 36.5745 82.2541 36.4681 82.3495C36.6585 81.5926 36.8078 80.8766 36.9313 80.2406C37.0333 79.803 37.0857 79.3926 37.15 79.0334C37.2109 78.6724 37.2641 78.3582 37.3078 78.0986C37.3619 77.8406 37.4039 77.638 37.433 77.4992C37.4596 77.3596 37.4708 77.2846 37.4639 77.2821C37.4571 77.2795 37.4313 77.351 37.391 77.4864C37.3524 77.6235 37.2958 77.8236 37.2238 78.0781C37.1646 78.3344 37.1003 78.6477 37.0248 79.007C36.9476 79.362 36.8824 79.769 36.7683 80.2006C36.6611 80.6331 36.5513 81.1073 36.4355 81.6088C36.3755 81.8591 36.3017 82.1102 36.2331 82.3699C36.1671 82.6304 36.0856 82.8926 36.0007 83.1574C35.6687 84.2208 35.2527 85.3395 34.7012 86.3858L34.6026 86.5851L34.4911 86.7766L34.2689 87.1589C34.1926 87.284 34.1265 87.4169 34.0425 87.5361C34.0125 87.5795 33.9833 87.622 33.9533 87.6655C33.9327 87.6025 33.9113 87.5301 33.8898 87.4458C33.8049 87.1325 33.7371 86.6753 33.6205 86.1126C33.5502 85.8384 33.4747 85.543 33.3949 85.2314C33.3203 84.9521 33.2439 84.661 33.171 84.3621C33.2551 84.3749 33.3383 84.3434 33.376 84.2753C33.382 84.2642 33.4344 84.1621 33.5227 83.9935C33.6119 83.8249 33.7251 83.5857 33.895 83.3073C34.2269 82.7513 34.6283 82.003 35.0417 81.2614C35.3822 80.4483 35.5667 79.6234 35.6318 78.984C35.6996 78.348 35.6481 77.9257 35.6241 77.9266C35.5881 77.9257 35.5821 78.342 35.4663 78.9533C35.4131 79.2598 35.3205 79.6114 35.209 79.9844C35.1472 80.1691 35.0872 80.3607 35.0108 80.5505C34.9748 80.6459 34.9388 80.7429 34.8968 80.8366L34.8359 80.9796L34.805 81.0511C34.7896 81.0869 34.8007 81.063 34.7801 81.0979C34.335 81.8165 33.9035 82.5521 33.5562 83.091C33.3812 83.3566 33.2508 83.6053 33.1539 83.7772C33.1222 83.8334 33.0973 83.8794 33.0741 83.9203C33.0287 83.6946 32.9901 83.4648 32.966 83.2315C32.9335 82.8782 32.9232 82.5121 32.9043 82.146C32.8322 80.685 33.0312 79.236 33.2937 78.1803C33.5587 77.1237 33.8341 76.4494 33.7963 76.4333C33.7826 76.4273 33.7045 76.5908 33.5785 76.8836C33.515 77.0301 33.4369 77.2072 33.3675 77.4192C33.298 77.6311 33.2011 77.8636 33.1324 78.1309C32.8168 79.1824 32.5663 80.6578 32.5998 82.1409C32.6092 82.5087 32.6092 82.8782 32.6341 83.2519C32.6633 83.6257 32.7276 83.9867 32.7971 84.3323C32.8708 84.6763 32.9515 85.0058 33.0269 85.314C33.099 85.6222 33.1676 85.9142 33.2311 86.1841C33.3314 86.7187 33.394 87.1972 33.479 87.5378C33.5502 87.8417 33.6359 88.0375 33.6574 88.0937C33.5381 88.2657 33.4181 88.4377 33.292 88.6105C33.1213 88.848 32.9609 89.0864 32.8005 89.318C32.4823 89.7837 32.1744 90.2255 31.8519 90.6189C31.6958 90.8198 31.5268 90.9977 31.3664 91.174C31.2 91.3468 31.0242 91.4932 30.8689 91.6627C29.6235 92.9942 28.7735 93.9026 28.7229 93.9571C28.5222 94.1725 28.427 94.4169 28.5111 94.5037C28.5951 94.5906 28.8293 94.4841 29.0334 94.2653C29.0832 94.2108 29.9186 93.2973 31.1443 91.9572C31.2944 91.7887 31.4796 91.6295 31.6486 91.449C31.8141 91.2625 31.9891 91.0735 32.1478 90.8641C32.4754 90.4529 32.7842 89.9965 33.0956 89.5266C33.3537 89.1417 33.6213 88.7467 33.8915 88.3474Z" fill="#454B03"/>
<path d="M42.8425 89.4145C42.6641 89.5371 42.4385 89.6571 42.1941 89.7797C41.9445 89.8947 41.6734 90.0096 41.3921 90.1092C40.9546 90.2659 40.5035 90.3995 40.1158 90.5128C40.1535 90.4804 40.193 90.4497 40.2299 90.4174C40.3714 90.2803 40.5103 90.1535 40.6519 90.0317C41.2197 89.543 41.7703 89.1063 42.1958 88.6832C42.6255 88.2643 42.9283 87.865 43.0972 87.5644C43.1787 87.4121 43.2388 87.2912 43.2671 87.2035C43.2988 87.1175 43.3117 87.0707 43.3048 87.0672C43.2859 87.0587 43.2105 87.2367 43.0235 87.5159C42.8348 87.7943 42.52 88.1647 42.08 88.5571C41.6451 88.9547 41.0859 89.366 40.4958 89.8427C40.4211 89.9049 40.3465 89.9679 40.2702 90.0309C40.2007 90.093 40.1304 90.1552 40.06 90.2173C39.9177 90.3374 39.771 90.4497 39.6089 90.5485C39.4622 90.6422 39.307 90.7256 39.1474 90.8048C39.084 90.8252 39.0436 90.8388 39.0376 90.8405C39.0179 90.8473 39.0025 90.861 38.9896 90.8788C38.8515 90.9418 38.7117 91.0023 38.5685 91.0585C37.8171 91.3309 37.0632 91.6357 36.3555 91.9064C36.1789 91.9754 36.0039 92.0427 35.8332 92.1091L35.7062 92.1585L35.6745 92.1704C35.6582 92.1763 35.6359 92.1848 35.6179 92.1985L35.5476 92.2427C35.4772 92.2879 35.4069 92.333 35.3383 92.3764C35.051 92.5424 34.7559 92.6744 34.4746 92.8029C34.1941 92.9213 33.923 93.0813 33.712 93.2184C33.4993 93.358 33.3184 93.4832 33.1674 93.5768C33.0868 93.6288 33.0147 93.6713 32.9512 93.7071C32.9907 93.622 33.0559 93.4977 33.1597 93.3419C33.3501 93.0558 33.6837 92.6863 34.1229 92.2785C34.3468 92.075 34.5886 91.8554 34.8434 91.6238C34.9069 91.5642 34.972 91.5037 35.0372 91.4433L35.135 91.3479L35.1839 91.2994C35.189 91.2926 35.2079 91.279 35.2173 91.2637L35.2405 91.233C35.3486 91.0866 35.4584 90.9376 35.5699 90.786C35.7929 90.4855 36.0236 90.1748 36.2578 89.8597C36.3804 89.7091 36.5048 89.5567 36.6292 89.4043L36.817 89.1752L37.0229 88.965C37.1601 88.8287 37.3008 88.6772 37.4346 88.5529C37.5941 88.438 37.7536 88.3239 37.9115 88.2098C38.2288 87.9842 38.5539 87.7807 38.8661 87.5798C39.5008 87.1924 40.0721 86.7974 40.603 86.53C41.1305 86.2567 41.5662 86.0218 41.8458 85.8242C41.9153 85.774 41.9771 85.7297 42.0302 85.6906C42.08 85.6472 42.122 85.6106 42.1563 85.5808C42.2241 85.5203 42.2575 85.4854 42.2524 85.4794C42.2472 85.4735 42.2044 85.4965 42.1289 85.545C42.0911 85.5697 42.0457 85.6003 41.9916 85.6361C41.935 85.6693 41.8707 85.7068 41.7978 85.7493C41.507 85.9205 41.0679 86.1265 40.5258 86.3776C39.97 86.6279 39.3859 87.0025 38.7383 87.3695C38.4184 87.5619 38.0839 87.7577 37.7553 87.9774C37.5915 88.0889 37.426 88.2013 37.2604 88.3137C37.1978 88.3554 37.1764 88.3894 37.1352 88.4243L37.0254 88.5299L36.805 88.7427L36.5854 88.9564L36.3873 89.1863C36.256 89.3396 36.1257 89.492 35.9962 89.6444C35.7543 89.956 35.5158 90.2624 35.2851 90.5596C35.171 90.7077 35.0587 90.8533 34.9489 90.9963L34.9317 91.0185L34.9232 91.027L34.876 91.0721L34.7816 91.1606C34.7164 91.2185 34.653 91.2756 34.5895 91.3326C34.3296 91.5599 34.0826 91.7762 33.8544 91.9754C33.3973 92.3841 33.0344 92.7689 32.8132 93.0882C32.591 93.4066 32.5018 93.6424 32.4967 93.6705C32.4786 93.7241 32.4666 93.7769 32.4623 93.8263C32.4598 93.8748 32.4692 93.9216 32.4804 93.9608C32.4752 93.9659 32.4683 93.9693 32.4632 93.9744C32.416 94.0272 32.3869 94.0902 32.3963 94.1498C32.4057 94.2094 32.4555 94.2537 32.5361 94.275C32.6159 94.2971 32.7282 94.2971 32.826 94.2503C32.8518 94.2418 33.0833 94.149 33.3973 93.9378C33.5568 93.8357 33.7369 93.7062 33.9419 93.5666C34.1503 93.4287 34.3656 93.2925 34.647 93.1656C34.9206 93.0345 35.2268 92.8915 35.5356 92.705C35.611 92.6548 35.6882 92.6037 35.7654 92.5518L35.7946 92.5322L35.8092 92.5228L35.8143 92.5194C35.816 92.5186 35.8169 92.5177 35.8212 92.5152L35.8521 92.5024L35.9781 92.4505C36.1471 92.3807 36.3187 92.31 36.4945 92.2376C37.1961 91.9524 37.9338 91.6349 38.686 91.3411C38.8043 91.2918 38.921 91.239 39.0368 91.1836C39.0805 91.2364 39.1337 91.2654 39.18 91.25C39.198 91.2441 39.4879 91.1351 39.9245 90.9853C40.3602 90.8329 40.9418 90.6379 41.5036 90.3944C41.7849 90.2744 42.0577 90.1347 42.3056 89.9943C42.5492 89.8461 42.7713 89.6997 42.9411 89.5498C43.2885 89.2578 43.4515 89.0058 43.4326 88.9896C43.4069 88.9692 43.2053 89.1769 42.8425 89.4145ZM35.8117 92.5237C35.8126 92.5237 35.8135 92.5228 35.8135 92.5228C35.8117 92.5237 35.81 92.5245 35.8117 92.5237Z" fill="#454B03"/>
<path d="M30.4267 87.1012C30.672 86.6789 30.8822 86.2413 31.0837 85.8377C31.2407 85.4103 31.4002 85.0195 31.4705 84.6628C31.5109 84.4866 31.5598 84.3291 31.5795 84.1835C31.5958 84.0379 31.6095 83.9111 31.6207 83.8063C31.6412 83.5978 31.6464 83.4794 31.6309 83.4777C31.6164 83.476 31.5821 83.5901 31.5349 83.7902C31.5126 83.8906 31.4851 84.0124 31.4543 84.1511C31.4225 84.2899 31.3608 84.4415 31.3093 84.61C31.2167 84.9514 31.0374 85.3235 30.865 85.7287C30.6471 86.1153 30.4233 86.5324 30.1711 86.9266C29.6376 87.6954 28.972 88.4046 28.5354 89.0108C28.5346 89.0116 28.5346 89.0125 28.5337 89.0133C28.7207 88.1586 28.8768 87.251 28.9943 86.3349C29.1084 85.3575 29.2405 84.3912 29.358 83.482C29.4146 83.0273 29.4695 82.5872 29.5218 82.1708C29.5758 81.7545 29.5973 81.3569 29.6324 80.9925C29.7122 80.2646 29.7002 79.6525 29.7036 79.2268C29.7045 78.8003 29.6985 78.5576 29.6839 78.5576C29.6693 78.5576 29.6462 78.7994 29.617 79.2217C29.5853 79.6448 29.5707 80.2493 29.4652 80.9713C29.418 81.3322 29.3846 81.7247 29.3177 82.1376C29.2542 82.5514 29.1881 82.9873 29.1195 83.4394C29.0809 83.6906 29.0406 83.9485 29.0003 84.2082C28.9583 84.1341 28.9111 84.0396 28.8631 83.9281C28.7275 83.6097 28.5946 83.1542 28.5123 82.6927C28.4685 82.4637 28.4565 82.2313 28.4385 82.0065C28.4188 81.7852 28.3999 81.5783 28.3836 81.4004C28.3476 81.0453 28.3124 80.8095 28.2824 80.8087C28.2524 80.8078 28.2309 81.0428 28.2155 81.397C28.2103 81.574 28.2035 81.7809 28.1966 82.0023C28.1949 82.1138 28.1923 82.2287 28.1906 82.3454C28.1898 82.4722 28.1983 82.5957 28.2086 82.7191C28.2558 83.2095 28.3604 83.6923 28.4891 84.0558C28.6118 84.4202 28.7884 84.6628 28.8022 84.6756C28.8296 84.7088 28.8759 84.7139 28.9257 84.6994C28.8459 85.2213 28.7661 85.7526 28.6941 86.2821C28.6281 86.7666 28.5286 87.2425 28.4496 87.7167C28.3604 88.1884 28.2472 88.6464 28.1512 89.0934C28.0645 89.4399 27.9693 89.7711 27.8784 90.0946C27.8698 90.1125 27.8647 90.1244 27.8621 90.1278C27.8467 90.1601 27.8415 90.1925 27.8415 90.2248C27.8287 90.2717 27.8141 90.3202 27.8021 90.3662C27.6863 90.7689 27.5576 91.135 27.4161 91.473C27.2754 91.8118 27.1348 92.1209 27.013 92.4027C26.9821 92.4725 26.9521 92.5406 26.9238 92.6061C26.922 92.6164 26.8972 92.653 26.8937 92.6879L26.8817 92.75C26.8749 92.7841 26.8689 92.8173 26.862 92.8505C26.8354 92.9807 26.8131 93.0999 26.7882 93.2064C26.6973 93.6346 26.5927 93.8543 26.5841 93.8815C26.4992 94.0799 26.4735 94.2706 26.5678 94.3523C26.6561 94.4306 26.874 94.3097 26.9812 94.062C26.9915 94.0322 27.1125 93.7598 27.2017 93.3085C27.2265 93.1961 27.248 93.0735 27.2728 92.9416C27.2857 92.882 27.2969 92.7875 27.3063 92.7798C27.3337 92.7143 27.3629 92.6462 27.3921 92.5763C27.5087 92.2971 27.646 91.9829 27.7849 91.6339C27.9307 91.2525 28.0671 90.8319 28.194 90.3866C28.2206 90.367 28.2438 90.3432 28.2584 90.3125C28.2644 90.2998 28.3158 90.184 28.4008 89.9924C28.514 89.8111 28.6461 89.5437 28.8605 89.2526C29.2602 88.6541 29.9018 87.9253 30.4267 87.1012Z" fill="#454B03"/>
<path d="M20.5198 92.3583C20.3697 92.0885 20.187 91.7658 19.9614 91.4133C19.7418 91.0549 19.4914 90.6599 19.2169 90.2342C18.6774 89.3828 18.1628 88.3314 17.5898 87.2076C17.4432 86.9283 17.2948 86.6439 17.1447 86.357C16.9826 86.0752 16.8316 85.7832 16.6549 85.5023C16.3247 84.9293 15.901 84.3904 15.5433 83.837C15.358 83.5611 15.1728 83.2861 14.9875 83.012C14.8245 82.7242 14.6624 82.4373 14.502 82.153C14.2627 81.7596 14.0715 81.3493 13.8845 80.9457C13.9265 80.9287 13.9643 80.8998 13.9874 80.8538C13.996 80.8419 14.0475 80.7184 14.1032 80.5107C14.1615 80.3021 14.1933 80.0058 14.1984 79.6661C14.201 79.4958 14.1958 79.3145 14.1898 79.1255C14.1898 79.0872 14.1873 79.1204 14.1907 79.0804L14.1976 79.0072C14.2027 78.9578 14.207 78.9084 14.2121 78.8582C14.2207 78.7577 14.2362 78.6564 14.237 78.5517C14.261 78.1345 14.2456 77.696 14.2301 77.2593C14.2301 77.2499 14.2301 77.2397 14.2276 77.2303L14.2224 77.2014L14.2147 77.1622L14.2001 77.0831L14.1701 76.9256C14.1478 76.8217 14.1349 76.7144 14.1204 76.6088C14.0912 76.3969 14.0629 76.1883 14.0354 75.9865C14.008 75.7839 13.9677 75.5889 13.936 75.405C13.8879 75.222 13.8262 75.0559 13.7575 74.907C13.622 74.6107 13.5054 74.3612 13.4556 74.1697C13.3999 73.9807 13.393 73.8615 13.3733 73.8623C13.3639 73.8606 13.3407 73.9815 13.3707 74.185C13.3947 74.3902 13.4925 74.666 13.6006 74.964C13.6563 75.1155 13.7009 75.2722 13.7335 75.4374C13.7524 75.6187 13.7798 75.8043 13.7953 76.0052C13.8124 76.2078 13.8296 76.4181 13.8476 76.631C13.857 76.7391 13.8648 76.8472 13.8828 76.9596L13.9248 77.2559C13.9214 77.6858 13.9179 78.1183 13.8811 78.5117C13.8768 78.6113 13.8579 78.7066 13.8467 78.802C13.8407 78.8497 13.8339 78.8965 13.8279 78.9425L13.8184 79.0114C13.8159 79.014 13.8073 79.1119 13.8107 79.1161C13.8099 79.3034 13.809 79.4797 13.8013 79.6389C13.7919 80.0305 13.7215 80.314 13.6658 80.4826C13.6589 80.4681 13.652 80.4528 13.6443 80.4383C13.5019 80.1608 13.4093 79.8687 13.2961 79.592C13.188 79.3128 13.0817 79.0404 12.9787 78.7747C12.8955 78.5031 12.8286 78.2341 12.7557 77.977C12.6837 77.719 12.6133 77.4696 12.573 77.2252C12.525 76.9817 12.4787 76.7485 12.4349 76.5263C12.4144 76.4139 12.3878 76.3109 12.374 76.1976C12.3663 76.0912 12.3595 75.9882 12.3526 75.8877C12.3234 75.4876 12.2977 75.1394 12.2771 74.8516C12.2522 74.563 12.2334 74.3365 12.2197 74.1816C12.2042 74.0266 12.1922 73.9441 12.1853 73.9441C12.1776 73.9441 12.1751 74.0266 12.1759 74.1816C12.1793 74.3374 12.1845 74.5656 12.1905 74.855C12.1999 75.1411 12.2119 75.4893 12.2248 75.8877C12.2282 75.9873 12.2325 76.0895 12.236 76.1951C12.2368 76.201 12.2368 76.2453 12.2394 76.2547L12.2462 76.2955L12.26 76.3773C12.2694 76.4318 12.2788 76.4879 12.2883 76.5441C12.326 76.7698 12.3663 77.0064 12.4084 77.2542C12.4427 77.5036 12.5078 77.7565 12.5748 78.0196C12.6425 78.2818 12.7043 78.5551 12.7823 78.8318C12.881 79.1025 12.9822 79.3809 13.086 79.6661C13.1949 79.9488 13.2841 80.2476 13.4222 80.5294C13.6881 81.099 13.9239 81.7077 14.2602 82.2798C14.4188 82.571 14.5784 82.8639 14.7388 83.1584C14.9223 83.4402 15.1067 83.7229 15.2911 84.0064C15.3246 84.0592 15.358 84.1086 15.3915 84.1605C15.1591 84.003 14.8691 83.8191 14.5321 83.6301C13.9943 83.3176 13.3338 82.9924 12.6451 82.6348C12.6425 82.6153 12.6417 82.5957 12.6331 82.5752C12.6296 82.5582 12.5653 82.4297 12.4495 82.2296C12.3337 82.0295 12.151 81.7741 11.9641 81.471C11.8697 81.3195 11.7822 81.1543 11.7102 80.9747C11.6381 80.7848 11.5626 80.5737 11.4889 80.3617C11.3371 79.9334 11.2015 79.4856 11.0969 79.0114C10.9331 78.544 10.7924 78.0885 10.5994 77.6748C10.5068 77.4679 10.4305 77.2635 10.3327 77.0805C10.2358 76.8975 10.1448 76.7246 10.0599 76.5654C10.017 76.4862 9.97672 76.4105 9.93812 76.3381C9.89609 76.2683 9.85063 76.2044 9.81118 76.1431C9.7297 76.0222 9.65851 75.9175 9.59932 75.8307C9.4801 75.6596 9.40719 75.5659 9.39433 75.5736C9.38232 75.5812 9.43035 75.6911 9.5247 75.875C9.57273 75.9661 9.63192 76.0767 9.69882 76.2036C9.73227 76.2674 9.77087 76.333 9.80689 76.4054C9.83948 76.4794 9.87379 76.5569 9.90982 76.6386C9.98272 76.8004 10.0608 76.9758 10.1448 77.1605C10.2297 77.3453 10.2932 77.5513 10.3738 77.7573C10.5411 78.1651 10.6629 78.6368 10.7984 79.0719C10.8808 79.5367 11.0094 80.0314 11.1466 80.4621C11.2153 80.6827 11.2805 80.887 11.3508 81.0922C11.4288 81.3076 11.5232 81.4991 11.6193 81.6634C11.7659 81.9171 11.8997 82.124 12.0001 82.2909C11.7428 82.1504 11.4854 82.0057 11.2324 81.8533C10.6577 81.5034 10.1088 81.1092 9.66279 80.6631C9.20992 80.2229 8.8694 79.7317 8.64039 79.2779C8.18409 78.3627 8.13005 77.6611 8.08373 77.6714C8.07087 77.6722 8.07859 77.8442 8.12319 78.1422C8.17379 78.4393 8.27415 78.865 8.48858 79.346C8.70043 79.8262 9.0358 80.354 9.49039 80.8291C9.93812 81.3101 10.4948 81.7366 11.072 82.1113C12.2325 82.8571 13.4616 83.4411 14.3331 83.9732C15.2131 84.4925 15.7329 84.9446 15.7655 84.9676C15.8341 85.0272 15.9138 85.0544 15.9859 85.0553C16.118 85.2554 16.2475 85.4571 16.365 85.6674C16.534 85.945 16.6798 86.2353 16.835 86.5145C16.9809 86.8015 17.1241 87.0841 17.2656 87.3634C17.8197 88.4846 18.3318 89.5624 18.8738 90.4377C19.9743 92.1566 20.5867 93.3706 20.603 93.4532C20.7402 93.7478 20.9409 93.9513 21.0516 93.9087C21.1622 93.8661 21.1356 93.5826 20.9933 93.2753C20.9761 93.2387 20.8346 92.8888 20.5198 92.3583Z" fill="#454B03"/>
<path d="M22.1249 91.5802C22.0743 91.4278 22.016 91.2728 21.9645 91.1094C21.9156 90.9459 21.8659 90.7773 21.8144 90.6037C21.7098 90.2589 21.6085 89.8843 21.497 89.5045C21.3933 89.1802 21.2981 88.8439 21.1754 88.5093C21.2303 88.4897 21.268 88.4582 21.268 88.419C21.2672 88.4029 21.2483 88.1381 21.22 87.749C21.1934 87.3599 21.1265 86.85 21.0613 86.3442C20.9172 85.3302 20.6736 84.3461 20.6196 84.3554C20.5561 84.3656 20.6908 85.3558 20.7568 86.3613C20.78 86.8236 20.81 87.2825 20.8194 87.6519C20.7371 87.4987 20.6591 87.3412 20.5827 87.1828C20.2208 86.4302 19.8931 85.624 19.3407 85.0348C18.8132 84.4448 18.2883 83.9323 17.8792 83.4513C17.4692 82.9728 17.1681 82.5369 16.9915 82.2083C16.8242 81.8762 16.7513 81.6685 16.7324 81.6744C16.7256 81.6761 16.7367 81.7289 16.7659 81.8268C16.7813 81.8762 16.8002 81.9367 16.8216 82.0073C16.8448 82.078 16.8671 82.1623 16.9134 82.2449C17.0687 82.5931 17.3534 83.0545 17.7497 83.5568C18.1442 84.06 18.6571 84.5955 19.1589 85.1906C19.659 85.7525 19.9566 86.5324 20.3048 87.3054C20.3923 87.4996 20.4824 87.6937 20.5827 87.8861L20.6445 88.0087L20.6942 88.1517L20.7954 88.442C20.9395 88.8226 21.0382 89.2185 21.1505 89.5939C21.2543 89.9771 21.3461 90.344 21.4473 90.7016C21.497 90.8795 21.5451 91.0523 21.5914 91.2201C21.6403 91.3861 21.6969 91.5453 21.7449 91.6977C21.9413 92.3039 22.0769 92.8138 22.1438 93.1808C22.2158 93.5469 22.221 93.7674 22.2295 93.7929C22.2381 93.9896 22.341 94.1522 22.4611 94.1565C22.5803 94.1607 22.6713 93.9862 22.6601 93.7674C22.6515 93.7418 22.6412 93.4983 22.5598 93.111C22.4834 92.7202 22.3342 92.1906 22.1249 91.5802Z" fill="#454B03"/>
<path d="M17.3408 92.9934C17.3374 92.9883 17.3357 92.9815 17.3314 92.9764C17.3237 92.9636 17.2379 92.8674 17.1153 92.6648C16.9917 92.4647 16.8356 92.165 16.6624 91.7972C16.574 91.6108 16.4797 91.4098 16.3793 91.1979L16.3476 91.1349L16.321 91.054C16.303 90.9978 16.2841 90.9407 16.2653 90.8828C16.2275 90.7679 16.1898 90.6504 16.1503 90.5304C16.0757 90.2928 15.9856 90.0408 15.8939 89.7863C15.8484 89.6594 15.8029 89.5317 15.7566 89.404L15.6554 89.2227C15.7189 89.2116 15.7635 89.1852 15.7652 89.1461C15.7652 89.1384 15.7643 89.0737 15.7626 88.9656C15.7661 88.8566 15.7515 88.7076 15.7275 88.5331C15.6897 88.1814 15.5808 87.7328 15.447 87.2986C15.3072 86.8652 15.1382 86.4472 14.9864 86.1458C14.8372 85.8436 14.7128 85.6563 14.6888 85.6665C14.6587 85.6793 14.7299 85.887 14.8294 86.2012C14.9306 86.5145 15.0524 86.9367 15.1511 87.3641C15.2429 87.7915 15.3175 88.2249 15.3312 88.5501C15.3355 88.6012 15.3381 88.6489 15.3406 88.6948C15.2643 88.5833 15.1888 88.4726 15.1142 88.3619C14.9521 88.1508 14.7986 87.9388 14.639 87.7438C14.3251 87.3497 14.0292 86.987 13.7942 86.6601C13.3173 86.0113 13.1054 85.503 13.0685 85.5175C13.0548 85.5226 13.0986 85.652 13.1878 85.8759C13.2109 85.9321 13.2358 85.9943 13.2632 86.0615C13.295 86.1262 13.3336 86.1944 13.373 86.2676C13.4545 86.4132 13.5394 86.5843 13.6544 86.7512C13.8714 87.0977 14.1527 87.4808 14.446 87.886C14.597 88.0887 14.7377 88.3006 14.8878 88.5143C14.9564 88.6242 15.025 88.734 15.0945 88.8447L15.1983 89.0115C15.23 89.0677 15.2574 89.1256 15.2875 89.1827L15.4633 89.5249C15.5027 89.6484 15.5413 89.7718 15.5808 89.8944C15.6589 90.1387 15.7369 90.3771 15.8072 90.6274C15.8433 90.75 15.8784 90.8709 15.9127 90.9893C15.9299 91.048 15.947 91.1068 15.9642 91.1646L15.9908 91.2549C16.0165 91.3204 16.0225 91.3264 16.0354 91.3562C16.086 91.472 16.1357 91.5835 16.1829 91.6925C16.1306 91.6355 16.0774 91.5767 16.0234 91.5171C15.9728 91.4601 15.9333 91.4447 15.8956 91.4124C15.8561 91.3834 15.8167 91.3545 15.7772 91.3247C15.4556 91.0914 15.1202 90.8232 14.7351 90.5883C14.5455 90.4674 14.3525 90.338 14.1527 90.2154C13.952 90.0962 13.747 89.9736 13.5386 89.8501C13.2306 89.6688 12.9159 89.4806 12.5925 89.2959C12.6251 89.2201 12.6165 89.1128 12.5565 89.0098C12.5479 88.9903 12.4415 88.8302 12.2451 88.5841C12.0504 88.3364 11.7442 88.0248 11.3634 87.6885C10.6137 87.0091 9.49786 86.2727 8.86743 85.1199C8.52949 84.5427 8.09892 84.0302 7.67177 83.5841C7.56456 83.4742 7.4582 83.367 7.35442 83.2614C7.25664 83.1499 7.16143 83.0409 7.0688 82.9345C6.88439 82.7216 6.71113 82.519 6.54559 82.3368C6.21622 81.9716 5.92288 81.6864 5.6973 81.5152C5.4743 81.3416 5.33449 81.2624 5.32763 81.2717C5.31734 81.2862 5.43913 81.3884 5.6407 81.5799C5.84397 81.7698 6.11158 82.0669 6.41865 82.4441C6.57132 82.6356 6.736 82.8434 6.91098 83.0639C7.00018 83.1745 7.0911 83.2878 7.18459 83.4044C7.2858 83.5159 7.38958 83.63 7.49508 83.7458C7.87677 84.1758 8.25331 84.6559 8.55351 85.1863C8.53464 85.1821 8.51577 85.1787 8.49518 85.1744C8.42485 85.1531 8.34594 85.1284 8.25845 85.102C8.17097 85.0757 8.07662 85.0467 7.97541 85.0161C7.87591 84.9812 7.77127 84.9377 7.66148 84.8952C7.4359 84.8177 7.21289 84.6968 6.97273 84.581L6.96416 84.5759C6.27283 84.2447 5.55235 83.7662 5.04973 83.3286C4.79413 83.1141 4.59428 82.9072 4.45533 82.7565C4.32152 82.6016 4.23575 82.5113 4.22117 82.5207C4.20659 82.5301 4.2632 82.6373 4.3747 82.817C4.49049 82.9915 4.67405 83.2256 4.91678 83.4683C5.39539 83.9629 6.10215 84.4959 6.81148 84.8824L6.7969 84.8739C7.0465 85.011 7.28408 85.154 7.51481 85.2451C7.62889 85.2945 7.73696 85.3455 7.84074 85.3864C7.94624 85.4239 8.04488 85.4579 8.13666 85.4903C8.22757 85.5218 8.31077 85.5507 8.38454 85.5763C8.46087 85.5958 8.52778 85.612 8.58267 85.6265C8.69332 85.6537 8.75936 85.6708 8.76794 85.6725C8.79195 85.6784 8.81597 85.675 8.83827 85.6665L8.85971 85.7023C8.95835 85.8436 9.05099 85.9883 9.16077 86.1169C9.3692 86.3842 9.60164 86.6192 9.82894 86.8388C10.2878 87.2747 10.7381 87.6434 11.0992 87.9788C11.5478 88.3798 11.8454 88.7417 12.0153 88.9732C11.6413 88.7732 11.257 88.5824 10.8608 88.4156C9.90613 88.0061 8.89917 87.7788 7.96597 87.5932C7.03106 87.4059 6.16305 87.2075 5.44771 86.9299C5.08918 86.7988 4.75038 86.7103 4.45447 86.6183C4.15684 86.5306 3.89953 86.4378 3.69196 86.3459C3.27768 86.1586 3.07269 85.9764 3.05896 85.996C3.05382 86.0019 3.10271 86.0471 3.20049 86.1279C3.29483 86.2139 3.45094 86.3135 3.65593 86.4242C3.86179 86.5306 4.12082 86.6396 4.41673 86.7409C4.71093 86.8465 5.0463 86.9478 5.39024 87.0866C6.10558 87.3931 6.98989 87.6204 7.9188 87.8298C8.85028 88.0384 9.82722 88.2828 10.7441 88.6957C11.6653 89.1035 12.5359 89.6484 13.3593 90.1532C13.5652 90.2801 13.7684 90.4052 13.9674 90.5278C14.1638 90.6521 14.3483 90.7807 14.5327 90.9016C14.9058 91.1366 15.2283 91.4022 15.5371 91.6329C15.5757 91.6618 15.6134 91.6908 15.6511 91.7197C15.6863 91.7487 15.7352 91.7793 15.7412 91.793C15.8029 91.8628 15.863 91.9309 15.9222 91.9973C16.0405 92.1301 16.152 92.257 16.2584 92.3761C16.4694 92.6162 16.6589 92.8214 16.8056 93.0053C16.8682 93.0819 16.9248 93.15 16.9772 93.213C16.9875 93.2267 16.996 93.2377 16.9986 93.2411C17.0003 93.2437 17.0029 93.2445 17.0046 93.2462C17.183 93.4633 17.2894 93.591 17.3048 93.6098C17.4669 93.8064 17.6736 93.9061 17.7671 93.8337C17.8606 93.7613 17.8031 93.5408 17.6385 93.3407C17.6213 93.3254 17.5167 93.2011 17.3408 92.9934Z" fill="#454B03"/>
<path d="M11.4888 92.0213C11.0857 91.7583 10.6114 91.4679 10.059 91.2228C9.99639 91.1955 9.93207 91.1683 9.86859 91.1402C9.79569 91.1036 9.72278 91.0661 9.64559 91.0406C9.49291 90.9827 9.33424 90.9512 9.17642 90.9307C9.1078 90.9222 9.04004 90.9171 8.97142 90.9137C8.9577 90.8482 8.91738 90.7911 8.8522 90.7664C8.82304 90.7562 8.28181 90.5681 7.51587 90.3016L7.49872 90.2956C7.26971 90.2241 7.02268 90.1134 6.77223 89.9542C6.52092 89.7967 6.26275 89.6077 5.97369 89.4417C5.83046 89.3566 5.67178 89.2919 5.51567 89.2348C5.36214 89.1837 5.20861 89.1327 5.05594 89.0824C4.75402 88.976 4.45039 88.8951 4.16391 88.8185C3.87743 88.7419 3.60725 88.6695 3.3628 88.6048C3.11749 88.5427 2.89792 88.4839 2.71694 88.4252C2.35241 88.3154 2.12511 88.2566 2.11739 88.2762C2.10967 88.2958 2.32153 88.3945 2.67748 88.5418C2.85503 88.6201 3.06946 88.6968 3.31134 88.7768C3.5515 88.8577 3.81739 88.9471 4.09872 89.0416C4.37834 89.1335 4.67511 89.2289 4.96759 89.3481C5.11512 89.4042 5.2635 89.4613 5.41275 89.5192C5.5517 89.5779 5.68379 89.6367 5.81159 89.7192C6.06804 89.8793 6.3185 90.0768 6.57753 90.2531C6.83656 90.4318 7.11789 90.5749 7.39236 90.6694L7.37178 90.6617C7.63853 90.7639 7.87611 90.8541 8.07596 90.9299C7.82379 90.9444 7.5742 90.9571 7.32975 90.9461C7.03984 90.9282 6.73363 90.878 6.44887 90.8482C6.16239 90.8047 5.88278 90.8056 5.6186 90.7903C5.48651 90.7852 5.35871 90.7792 5.23434 90.7741C5.11083 90.7775 4.99075 90.78 4.87581 90.7835C4.64595 90.7911 4.4358 90.7928 4.25054 90.8056C4.06527 90.8235 3.90402 90.8388 3.77107 90.8516C3.50604 90.8797 3.35594 90.9018 3.35679 90.9171C3.35765 90.9324 3.51033 90.9392 3.77622 90.9392C3.90917 90.9384 4.07042 90.9367 4.25568 90.935C4.44009 90.9367 4.64852 90.9478 4.87581 90.9529C4.98903 90.9563 5.1074 90.9597 5.23005 90.9631C5.35185 90.9742 5.47793 90.9861 5.60745 90.9971C5.86648 91.0235 6.14095 91.0346 6.42228 91.0891C6.56295 91.1121 6.70704 91.1342 6.852 91.1581C6.9249 91.17 6.99781 91.181 7.07072 91.193C7.14534 91.2032 7.23368 91.2159 7.31259 91.2219C7.63252 91.2474 7.94645 91.2355 8.25094 91.2287C8.55628 91.221 8.85477 91.2202 9.13267 91.2619C9.27076 91.2841 9.40457 91.3147 9.52465 91.3641C9.58726 91.3854 9.64216 91.4169 9.69877 91.4467C9.69534 91.4458 9.77596 91.4858 9.77425 91.4841L9.82228 91.5063L9.91748 91.5505C10.4227 91.7898 10.8841 92.086 11.2675 92.3491C11.4597 92.4819 11.6312 92.6105 11.7847 92.7254C11.9323 92.8455 12.0669 92.9476 12.1707 93.0387C12.3774 93.2226 12.4984 93.3341 12.5061 93.3495C12.603 93.4533 12.7574 93.478 12.85 93.4048C12.9427 93.3316 12.9255 93.1715 12.8106 93.0489C12.7848 93.0115 12.2951 92.5449 11.4888 92.0213Z" fill="#454B03"/>
<defs>
<clipPath id="clip0">
<rect width="45" height="83" fill="white" transform="translate(39)"/>
</clipPath>
</defs>
</svg>
